SplineFontDB: 3.2
FontName: kfgqpcwarshuthmanicscript-Re
FullName: kfgqpc_warsh_uthmanic_script Regular
FamilyName: kfgqpc_warsh_uthmanic_script
Weight: Book
Copyright: The digitally signed machine readable Typeface(Font) licensed to you is copyrighted, (2010), King Fahd Glorious Quran Printing Complex.\nISBN: 978-603-8010-07-5, Accession No. 1430/7270\nAll rights reserved. This Font is the property of King Fahd Glorious Quran Printing Complex, and may not be reproduced, modified without the express written approval of King Fahd Glorious Quran Printing Complex.
Version: 2.1
ItalicAngle: 0
UnderlinePosition: -750
UnderlineWidth: 102
Ascent: 1638
Descent: 410
InvalidEm: 0
sfntRevision: 0x00020000
LayerCount: 2
Layer: 0 1 "Back" 1
Layer: 1 1 "Fore" 0
XUID: [1021 479 649005610 9239629]
StyleMap: 0x0040
FSType: 0
OS2Version: 3
OS2_WeightWidthSlopeOnly: 0
OS2_UseTypoMetrics: 0
CreationTime: 1649054761
ModificationTime: 1758636062
PfmFamily: 17
TTFWeight: 400
TTFWidth: 5
LineGap: 0
VLineGap: 0
Panose: 2 0 0 0 0 0 0 0 0 0
OS2TypoAscent: 2375
OS2TypoAOffset: 0
OS2TypoDescent: -1175
OS2TypoDOffset: 0
OS2TypoLinegap: 0
OS2WinAscent: 2375
OS2WinAOffset: 0
OS2WinDescent: 1175
OS2WinDOffset: 0
HheadAscent: 2375
HheadAOffset: 0
HheadDescent: -1175
HheadDOffset: 0
OS2SubXSize: 1434
OS2SubYSize: 1331
OS2SubXOff: 0
OS2SubYOff: 287
OS2SupXSize: 1434
OS2SupYSize: 1331
OS2SupXOff: 0
OS2SupYOff: 977
OS2StrikeYSize: 102
OS2StrikeYPos: 512
OS2CapHeight: 1440
OS2XHeight: 851
OS2Vendor: 'KFQC'
OS2CodePages: 00000040.00000000
OS2UnicodeRanges: 80002000.80000000.00000008.00000000
Lookup: 1 1 0 "'init' Initial Forms in Arabic lookup 0" { "'init' Initial Forms in Arabic lookup 0 subtable"  } ['init' ('arab' <'dflt' > ) 'zz01' ('arab' <'zz01' > ) ]
Lookup: 1 1 0 "'medi' Medial Forms in Arabic lookup 1" { "'medi' Medial Forms in Arabic lookup 1 subtable"  } ['medi' ('arab' <'dflt' > ) 'zz02' ('arab' <'zz01' > ) ]

StartChar: exclam
Encoding: 33 33 2
Width: 382
GlyphClass: 2
Flags: W
LayerCount: 2
Fore
SplineSet
183 968 m 0,0,1
 224 968 224 968 242 942.5 c 128,-1,2
 260 917 260 917 265 881.5 c 128,-1,3
 270 846 270 846 267 808 c 128,-1,4
 264 770 264 770 263 745 c 0,5,6
 258 714 258 714 253.5 689.5 c 128,-1,7
 249 665 249 665 244.5 643 c 128,-1,8
 240 621 240 621 236 600.5 c 128,-1,9
 232 580 232 580 228 557 c 0,10,11
 224 533 224 533 220.5 505 c 128,-1,12
 217 477 217 477 214 441 c 128,-1,13
 211 405 211 405 208.5 358 c 128,-1,14
 206 311 206 311 204 250 c 1,15,-1
 162 250 l 1,16,17
 160 311 160 311 157 357.5 c 128,-1,18
 154 404 154 404 151 440.5 c 128,-1,19
 148 477 148 477 144.5 505 c 128,-1,20
 141 533 141 533 138 557 c 0,21,22
 133 580 133 580 128.5 600.5 c 128,-1,23
 124 621 124 621 119.5 643 c 128,-1,24
 115 665 115 665 111 689.5 c 128,-1,25
 107 714 107 714 104 745 c 0,26,27
 101 770 101 770 98.5 808 c 128,-1,28
 96 846 96 846 101.5 881.5 c 128,-1,29
 107 917 107 917 125.5 942.5 c 128,-1,30
 144 968 144 968 183 968 c 0,0,1
186 35 m 256,31,32
 154 35 154 35 132 57.5 c 128,-1,33
 110 80 110 80 110 112 c 0,34,35
 110 145 110 145 132 167 c 128,-1,36
 154 189 154 189 186 189 c 256,37,38
 218 189 218 189 240.5 166.5 c 128,-1,39
 263 144 263 144 263 112 c 256,40,41
 263 80 263 80 240.5 57.5 c 128,-1,42
 218 35 218 35 186 35 c 256,31,32
EndSplineSet
EndChar

StartChar: quotedbl
Encoding: 34 34 3
Width: 423
GlyphClass: 2
Flags: W
LayerCount: 2
Fore
SplineSet
120 1136 m 0,0,1
 141 1136 141 1136 150.5 1122.5 c 128,-1,2
 160 1109 160 1109 163 1090 c 128,-1,3
 166 1071 166 1071 164.5 1051 c 128,-1,4
 163 1031 163 1031 162 1018 c 0,5,6
 152 949 152 949 145 887.5 c 128,-1,7
 138 826 138 826 136 757 c 1,8,-1
 104 757 l 1,9,10
 101 826 101 826 94 887.5 c 128,-1,11
 87 949 87 949 78 1018 c 0,12,13
 77 1031 77 1031 75 1051 c 128,-1,14
 73 1071 73 1071 75.5 1090 c 128,-1,15
 78 1109 78 1109 87.5 1122.5 c 128,-1,16
 97 1136 97 1136 120 1136 c 0,0,1
315 1136 m 0,17,18
 337 1136 337 1136 346.5 1122.5 c 128,-1,19
 356 1109 356 1109 359 1090 c 128,-1,20
 362 1071 362 1071 360.5 1051 c 128,-1,21
 359 1031 359 1031 358 1018 c 0,22,23
 349 949 349 949 341 887.5 c 128,-1,24
 333 826 333 826 332 757 c 1,25,-1
 299 757 l 1,26,27
 298 826 298 826 290 887.5 c 128,-1,28
 282 949 282 949 273 1018 c 0,29,30
 271 1031 271 1031 270 1051 c 128,-1,31
 269 1071 269 1071 272 1090 c 128,-1,32
 275 1109 275 1109 285 1122.5 c 128,-1,33
 295 1136 295 1136 315 1136 c 0,17,18
EndSplineSet
EndChar

StartChar: numbersign
Encoding: 35 35 4
Width: 1163
GlyphClass: 2
Flags: W
LayerCount: 2
Fore
SplineSet
90 412 m 1,0,-1
 90 497 l 1,1,-1
 283 497 l 1,2,-1
 354 822 l 1,3,-1
 90 822 l 1,4,-1
 90 907 l 1,5,-1
 371 907 l 1,6,-1
 445 1248 l 1,7,-1
 527 1248 l 1,8,-1
 456 907 l 1,9,-1
 801 907 l 1,10,-1
 873 1248 l 1,11,-1
 956 1248 l 1,12,-1
 885 907 l 1,13,-1
 1065 907 l 1,14,-1
 1065 822 l 1,15,-1
 867 822 l 1,16,-1
 798 497 l 1,17,-1
 1065 497 l 1,18,-1
 1065 412 l 1,19,-1
 779 412 l 1,20,-1
 706 71 l 1,21,-1
 623 71 l 1,22,-1
 695 412 l 1,23,-1
 349 412 l 1,24,-1
 277 71 l 1,25,-1
 194 71 l 1,26,-1
 266 412 l 1,27,-1
 90 412 l 1,0,-1
368 497 m 1,28,-1
 713 497 l 1,29,-1
 783 822 l 1,30,-1
 439 822 l 1,31,-1
 368 497 l 1,28,-1
EndSplineSet
EndChar

StartChar: dollar
Encoding: 36 36 5
Width: 819
GlyphClass: 2
Flags: W
LayerCount: 2
Fore
SplineSet
444 1135 m 1,0,-1
 444 1241 l 1,1,-1
 507 1241 l 1,2,-1
 507 1120 l 1,3,4
 544 1109 544 1109 578 1092 c 128,-1,5
 612 1075 612 1075 638 1054 c 128,-1,6
 664 1033 664 1033 679.5 1008.5 c 128,-1,7
 695 984 695 984 695 959 c 0,8,9
 695 936 695 936 677 918.5 c 128,-1,10
 659 901 659 901 635 901 c 0,11,12
 614 901 614 901 598 913 c 128,-1,13
 582 925 582 925 568 943.5 c 128,-1,14
 554 962 554 962 539.5 984.5 c 128,-1,15
 525 1007 525 1007 507 1028 c 1,16,-1
 507 660 l 1,17,18
 553 633 553 633 595 602.5 c 128,-1,19
 637 572 637 572 668.5 536 c 128,-1,20
 700 500 700 500 718.5 458.5 c 128,-1,21
 737 417 737 417 737 368 c 0,22,23
 737 316 737 316 718.5 271.5 c 128,-1,24
 700 227 700 227 668.5 191.5 c 128,-1,25
 637 156 637 156 595 130 c 128,-1,26
 553 104 553 104 507 90 c 1,27,-1
 507 -70 l 1,28,-1
 444 -70 l 1,29,-1
 444 77 l 1,30,31
 434 75 434 75 425.5 75 c 128,-1,32
 417 75 417 75 407 75 c 0,33,34
 388 75 388 75 368.5 76.5 c 128,-1,35
 349 78 349 78 330 82 c 1,36,-1
 330 -70 l 1,37,-1
 269 -70 l 1,38,-1
 269 99 l 1,39,40
 226 112 226 112 189 132.5 c 128,-1,41
 152 153 152 153 124.5 177.5 c 128,-1,42
 97 202 97 202 81 230 c 128,-1,43
 65 258 65 258 65 285 c 0,44,45
 65 307 65 307 81 322 c 128,-1,46
 97 337 97 337 121 337 c 256,47,48
 145 337 145 337 160.5 319.5 c 128,-1,49
 176 302 176 302 190.5 275.5 c 128,-1,50
 205 249 205 249 222.5 219.5 c 128,-1,51
 240 190 240 190 269 166 c 1,52,-1
 269 638 l 1,53,54
 230 663 230 663 196.5 690 c 128,-1,55
 163 717 163 717 138 747 c 128,-1,56
 113 777 113 777 98.5 810.5 c 128,-1,57
 84 844 84 844 84 882 c 0,58,59
 84 926 84 926 99 963.5 c 128,-1,60
 114 1001 114 1001 139.5 1030.5 c 128,-1,61
 165 1060 165 1060 198.5 1082 c 128,-1,62
 232 1104 232 1104 269 1118 c 1,63,-1
 269 1241 l 1,64,-1
 330 1241 l 1,65,-1
 330 1135 l 1,66,67
 344 1137 344 1137 359.5 1139 c 128,-1,68
 375 1141 375 1141 390 1139 c 0,69,70
 403 1139 403 1139 416 1138 c 128,-1,71
 429 1137 429 1137 444 1135 c 1,0,-1
330 1084 m 1,72,-1
 330 766 l 1,73,74
 357 749 357 749 385.5 732.5 c 128,-1,75
 414 716 414 716 444 699 c 1,76,-1
 444 1074 l 1,77,78
 417 1086 417 1086 377 1086 c 0,79,80
 365 1086 365 1086 353 1085.5 c 128,-1,81
 341 1085 341 1085 330 1084 c 1,72,-1
507 485 m 1,82,-1
 507 153 l 1,83,84
 556 177 556 177 589 220 c 128,-1,85
 622 263 622 263 622 326 c 0,86,87
 622 371 622 371 590 409 c 128,-1,88
 558 447 558 447 507 485 c 1,82,-1
444 527 m 1,89,90
 417 544 417 544 388 562.5 c 128,-1,91
 359 581 359 581 330 598 c 1,92,-1
 330 133 l 1,93,94
 355 124 355 124 394 124 c 0,95,96
 407 124 407 124 419.5 126 c 128,-1,97
 432 128 432 128 444 130 c 1,98,-1
 444 527 l 1,89,90
269 1062 m 1,99,100
 230 1041 230 1041 211 1008.5 c 128,-1,101
 192 976 192 976 192 934 c 0,102,103
 192 898 192 898 212.5 868.5 c 128,-1,104
 233 839 233 839 269 811 c 1,105,-1
 269 1062 l 1,99,100
EndSplineSet
EndChar

StartChar: percent
Encoding: 37 37 6
Width: 1260
GlyphClass: 2
Flags: W
LayerCount: 2
Fore
SplineSet
222 -26 m 1,0,-1
 953 1278 l 1,1,-1
 1077 1278 l 1,2,-1
 345 -26 l 1,3,-1
 222 -26 l 1,0,-1
351 1128 m 256,4,5
 351 1103 351 1103 360.5 1081.5 c 128,-1,6
 370 1060 370 1060 386 1044 c 128,-1,7
 402 1028 402 1028 423.5 1019 c 128,-1,8
 445 1010 445 1010 469 1010 c 0,9,10
 494 1010 494 1010 516 1019 c 128,-1,11
 538 1028 538 1028 553.5 1043.5 c 128,-1,12
 569 1059 569 1059 578 1080.5 c 128,-1,13
 587 1102 587 1102 587 1128 c 0,14,15
 587 1153 587 1153 578 1175 c 128,-1,16
 569 1197 569 1197 553.5 1212.5 c 128,-1,17
 538 1228 538 1228 516 1237 c 128,-1,18
 494 1246 494 1246 469 1246 c 0,19,20
 445 1246 445 1246 423.5 1237 c 128,-1,21
 402 1228 402 1228 386 1212 c 128,-1,22
 370 1196 370 1196 360.5 1174.5 c 128,-1,23
 351 1153 351 1153 351 1128 c 256,4,5
711 116 m 256,24,25
 711 92 711 92 720 70 c 128,-1,26
 729 48 729 48 745 32 c 128,-1,27
 761 16 761 16 782.5 6.5 c 128,-1,28
 804 -3 804 -3 829 -3 c 0,29,30
 853 -3 853 -3 874.5 6.5 c 128,-1,31
 896 16 896 16 912 32 c 128,-1,32
 928 48 928 48 937.5 70 c 128,-1,33
 947 92 947 92 947 116 c 256,34,35
 947 140 947 140 937.5 161.5 c 128,-1,36
 928 183 928 183 912 199 c 128,-1,37
 896 215 896 215 874.5 224.5 c 128,-1,38
 853 234 853 234 829 234 c 0,39,40
 804 234 804 234 782.5 224.5 c 128,-1,41
 761 215 761 215 745 199 c 128,-1,42
 729 183 729 183 720 161.5 c 128,-1,43
 711 140 711 140 711 116 c 256,24,25
EndSplineSet
EndChar

StartChar: ampersand
Encoding: 38 38 7
Width: 1269
GlyphClass: 2
Flags: W
LayerCount: 2
Fore
SplineSet
383 657 m 1,0,1
 341 643 341 643 311 617.5 c 128,-1,2
 281 592 281 592 261.5 558.5 c 128,-1,3
 242 525 242 525 232.5 485.5 c 128,-1,4
 223 446 223 446 223 404 c 0,5,6
 223 351 223 351 243.5 307 c 128,-1,7
 264 263 264 263 299 232.5 c 128,-1,8
 334 202 334 202 381.5 187.5 c 128,-1,9
 429 173 429 173 483 179 c 0,10,11
 517 183 517 183 551.5 202 c 128,-1,12
 586 221 586 221 615.5 244.5 c 128,-1,13
 645 268 645 268 667 290.5 c 128,-1,14
 689 313 689 313 698 324 c 1,15,16
 664 374 664 374 631 417 c 128,-1,17
 598 460 598 460 561.5 499.5 c 128,-1,18
 525 539 525 539 481.5 577.5 c 128,-1,19
 438 616 438 616 383 657 c 1,0,1
1159 159 m 1,20,21
 1134 140 1134 140 1098 116 c 128,-1,22
 1062 92 1062 92 1021.5 76 c 128,-1,23
 981 60 981 60 939 60 c 128,-1,24
 897 60 897 60 859 89 c 0,25,26
 826 116 826 116 794 163 c 128,-1,27
 762 210 762 210 727 279 c 1,28,29
 658 191 658 191 580.5 133.5 c 128,-1,30
 503 76 503 76 415 66 c 0,31,32
 344 60 344 60 280.5 79 c 128,-1,33
 217 98 217 98 169.5 137 c 128,-1,34
 122 176 122 176 94 231.5 c 128,-1,35
 66 287 66 287 66 354 c 0,36,37
 66 413 66 413 84 468.5 c 128,-1,38
 102 524 102 524 135.5 570.5 c 128,-1,39
 169 617 169 617 217 651 c 128,-1,40
 265 685 265 685 326 702 c 1,41,42
 277 744 277 744 253.5 792 c 128,-1,43
 230 840 230 840 228 888 c 0,44,45
 225 931 225 931 238.5 972 c 128,-1,46
 252 1013 252 1013 280.5 1045 c 128,-1,47
 309 1077 309 1077 351.5 1099 c 128,-1,48
 394 1121 394 1121 448 1127 c 0,49,50
 496 1133 496 1133 538.5 1121 c 128,-1,51
 581 1109 581 1109 612.5 1083 c 128,-1,52
 644 1057 644 1057 662.5 1019.5 c 128,-1,53
 681 982 681 982 681 936 c 0,54,55
 681 898 681 898 667 865.5 c 128,-1,56
 653 833 653 833 629.5 806 c 128,-1,57
 606 779 606 779 574.5 758 c 128,-1,58
 543 737 543 737 508 722 c 1,59,60
 541 700 541 700 575 668 c 128,-1,61
 609 636 609 636 643.5 597.5 c 128,-1,62
 678 559 678 559 711.5 515.5 c 128,-1,63
 745 472 745 472 777 427 c 1,64,65
 834 505 834 505 883 585.5 c 128,-1,66
 932 666 932 666 977 751 c 0,67,68
 984 765 984 765 979.5 772 c 128,-1,69
 975 779 975 779 962 781.5 c 128,-1,70
 949 784 949 784 930 784 c 128,-1,71
 911 784 911 784 890 784 c 1,72,-1
 890 828 l 1,73,-1
 1186 828 l 1,74,-1
 1186 784 l 1,75,76
 1161 784 1161 784 1136 782.5 c 128,-1,77
 1111 781 1111 781 1089.5 777.5 c 128,-1,78
 1068 774 1068 774 1052.5 767.5 c 128,-1,79
 1037 761 1037 761 1031 751 c 0,80,81
 1013 712 1013 712 989 666.5 c 128,-1,82
 965 621 965 621 936.5 573 c 128,-1,83
 908 525 908 525 876 476 c 128,-1,84
 844 427 844 427 810 380 c 1,85,86
 822 362 822 362 839.5 330 c 128,-1,87
 857 298 857 298 879 263.5 c 128,-1,88
 901 229 901 229 927 198 c 128,-1,89
 953 167 953 167 982 151 c 0,90,91
 1003 140 1003 140 1023.5 142 c 128,-1,92
 1044 144 1044 144 1063.5 153 c 128,-1,93
 1083 162 1083 162 1102 174.5 c 128,-1,94
 1121 187 1121 187 1139 197 c 1,95,-1
 1159 159 l 1,20,21
457 1074 m 256,96,97
 434 1069 434 1069 413 1052.5 c 128,-1,98
 392 1036 392 1036 376.5 1012 c 128,-1,99
 361 988 361 988 352 958 c 128,-1,100
 343 928 343 928 343 896 c 256,101,102
 343 864 343 864 352 837.5 c 128,-1,103
 361 811 361 811 376.5 792.5 c 128,-1,104
 392 774 392 774 413 765.5 c 128,-1,105
 434 757 434 757 457 762 c 0,106,107
 480 765 480 765 500.5 781 c 128,-1,108
 521 797 521 797 536.5 821.5 c 128,-1,109
 552 846 552 846 561 876.5 c 128,-1,110
 570 907 570 907 570 940 c 0,111,112
 570 972 570 972 561 999 c 128,-1,113
 552 1026 552 1026 536.5 1044 c 128,-1,114
 521 1062 521 1062 500.5 1070.5 c 128,-1,115
 480 1079 480 1079 457 1074 c 256,96,97
EndSplineSet
EndChar

StartChar: quotesingle
Encoding: 39 39 8
Width: 308
GlyphClass: 2
Flags: W
LayerCount: 2
Fore
SplineSet
156 1219 m 0,0,1
 196 1218 196 1218 215 1199.5 c 128,-1,2
 234 1181 234 1181 240 1156.5 c 128,-1,3
 246 1132 246 1132 243 1105.5 c 128,-1,4
 240 1079 240 1079 236 1061 c 0,5,6
 216 974 216 974 203 887 c 0,7,8
 196 842 196 842 190 800 c 128,-1,9
 184 758 184 758 181 713 c 1,10,-1
 130 713 l 1,11,12
 128 758 128 758 122 800 c 128,-1,13
 116 842 116 842 108 887 c 2,14,-1
 75 1061 l 2,15,16
 71 1079 71 1079 68 1105.5 c 128,-1,17
 65 1132 65 1132 71 1156.5 c 128,-1,18
 77 1181 77 1181 96 1199.5 c 128,-1,19
 115 1218 115 1218 156 1219 c 0,0,1
EndSplineSet
EndChar

StartChar: parenleft
Encoding: 40 40 9
Width: 692
GlyphClass: 2
Flags: W
LayerCount: 2
Fore
SplineSet
517 -345 m 1,0,1
 409 -251 409 -251 329.5 -148 c 128,-1,2
 250 -45 250 -45 197.5 65 c 128,-1,3
 145 175 145 175 118.5 291 c 128,-1,4
 92 407 92 407 91 526 c 0,5,6
 89 648 89 648 115 767.5 c 128,-1,7
 141 887 141 887 194.5 1001 c 128,-1,8
 248 1115 248 1115 328.5 1221 c 128,-1,9
 409 1327 409 1327 517 1423 c 1,10,-1
 569 1383 l 1,11,12
 410 1184 410 1184 336.5 968.5 c 128,-1,13
 263 753 263 753 266 522 c 0,14,15
 269 300 269 300 342 92 c 128,-1,16
 415 -116 415 -116 569 -310 c 1,17,-1
 517 -345 l 1,0,1
EndSplineSet
EndChar

StartChar: parenright
Encoding: 41 41 10
Width: 692
GlyphClass: 2
Flags: W
LayerCount: 2
Fore
SplineSet
123 -310 m 1,0,1
 277 -116 277 -116 350 92 c 128,-1,2
 423 300 423 300 426 522 c 0,3,4
 429 753 429 753 355.5 968.5 c 128,-1,5
 282 1184 282 1184 123 1383 c 1,6,-1
 175 1423 l 1,7,8
 393 1229 393 1229 498 1001.5 c 128,-1,9
 603 774 603 774 601 526 c 0,10,11
 599 406 599 406 573 290.5 c 128,-1,12
 547 175 547 175 494.5 65 c 128,-1,13
 442 -45 442 -45 362.5 -148 c 128,-1,14
 283 -251 283 -251 175 -345 c 1,15,-1
 123 -310 l 1,0,1
EndSplineSet
EndChar

StartChar: asterisk
Encoding: 42 42 11
Width: 578
GlyphClass: 2
Flags: W
LayerCount: 2
Fore
SplineSet
286 904 m 0,0,1
 301 904 301 904 310.5 913.5 c 128,-1,2
 320 923 320 923 320 936 c 0,3,4
 320 950 320 950 310.5 960 c 128,-1,5
 301 970 301 970 286 970 c 0,6,7
 273 970 273 970 263.5 960 c 128,-1,8
 254 950 254 950 254 936 c 0,9,10
 254 923 254 923 263.5 913.5 c 128,-1,11
 273 904 273 904 286 904 c 0,0,1
303 1002 m 1,12,13
 307 1002 307 1002 313 999 c 128,-1,14
 319 996 319 996 324 994 c 1,15,16
 344 1018 344 1018 363.5 1048.5 c 128,-1,17
 383 1079 383 1079 400 1107 c 0,18,19
 404 1113 404 1113 411.5 1121 c 128,-1,20
 419 1129 419 1129 428.5 1134 c 128,-1,21
 438 1139 438 1139 449.5 1138 c 128,-1,22
 461 1137 461 1137 474 1124 c 0,23,24
 486 1112 486 1112 487 1100.5 c 128,-1,25
 488 1089 488 1089 483.5 1079 c 128,-1,26
 479 1069 479 1069 471 1061 c 128,-1,27
 463 1053 463 1053 457 1049 c 0,28,29
 430 1032 430 1032 400 1013.5 c 128,-1,30
 370 995 370 995 344 973 c 1,31,32
 349 968 349 968 350.5 963 c 128,-1,33
 352 958 352 958 354 951 c 1,34,35
 386 955 386 955 421 962.5 c 128,-1,36
 456 970 456 970 486 977 c 0,37,38
 494 978 494 978 505.5 978.5 c 128,-1,39
 517 979 517 979 527.5 975.5 c 128,-1,40
 538 972 538 972 545.5 963 c 128,-1,41
 553 954 553 954 553 936 c 0,42,43
 553 919 553 919 545.5 910 c 128,-1,44
 538 901 538 901 527.5 897.5 c 128,-1,45
 517 894 517 894 505.5 894 c 128,-1,46
 494 894 494 894 486 895 c 0,47,48
 456 903 456 903 421 910.5 c 128,-1,49
 386 918 386 918 354 922 c 1,50,51
 352 915 352 915 350.5 909.5 c 128,-1,52
 349 904 349 904 344 900 c 1,53,54
 370 878 370 878 400 859.5 c 128,-1,55
 430 841 430 841 457 825 c 0,56,57
 463 819 463 819 471 811.5 c 128,-1,58
 479 804 479 804 484 794.5 c 128,-1,59
 489 785 489 785 488 774 c 128,-1,60
 487 763 487 763 474 750 c 0,61,62
 462 736 462 736 450.5 735 c 128,-1,63
 439 734 439 734 429 739 c 128,-1,64
 419 744 419 744 411.5 752.5 c 128,-1,65
 404 761 404 761 400 767 c 0,66,67
 383 794 383 794 363.5 823.5 c 128,-1,68
 344 853 344 853 324 880 c 1,69,70
 312 871 312 871 303 870 c 1,71,72
 304 837 304 837 312 802.5 c 128,-1,73
 320 768 320 768 327 736 c 0,74,75
 329 729 329 729 329.5 718 c 128,-1,76
 330 707 330 707 326 697 c 128,-1,77
 322 687 322 687 313 679.5 c 128,-1,78
 304 672 304 672 286 672 c 0,79,80
 269 672 269 672 260.5 679.5 c 128,-1,81
 252 687 252 687 248.5 697 c 128,-1,82
 245 707 245 707 245.5 718 c 128,-1,83
 246 729 246 729 247 736 c 0,84,85
 254 768 254 768 261.5 802.5 c 128,-1,86
 269 837 269 837 273 870 c 1,87,88
 268 871 268 871 262 873.5 c 128,-1,89
 256 876 256 876 249 880 c 1,90,91
 229 853 229 853 210 823.5 c 128,-1,92
 191 794 191 794 173 767 c 0,93,94
 169 760 169 760 161.5 752 c 128,-1,95
 154 744 154 744 144.5 739 c 128,-1,96
 135 734 135 734 123.5 735.5 c 128,-1,97
 112 737 112 737 100 750 c 0,98,99
 87 763 87 763 86 774 c 128,-1,100
 85 785 85 785 90 794.5 c 128,-1,101
 95 804 95 804 103 811.5 c 128,-1,102
 111 819 111 819 117 825 c 0,103,104
 143 841 143 841 173.5 859.5 c 128,-1,105
 204 878 204 878 229 900 c 1,106,107
 223 909 223 909 220 922 c 1,108,109
 188 918 188 918 152.5 910.5 c 128,-1,110
 117 903 117 903 87 895 c 0,111,112
 79 894 79 894 68.5 893.5 c 128,-1,113
 58 893 58 893 47.5 897 c 128,-1,114
 37 901 37 901 30 910 c 128,-1,115
 23 919 23 919 23 936 c 0,116,117
 23 954 23 954 30 963 c 128,-1,118
 37 972 37 972 47.5 975.5 c 128,-1,119
 58 979 58 979 68.5 978.5 c 128,-1,120
 79 978 79 978 87 977 c 0,121,122
 117 970 117 970 152.5 962.5 c 128,-1,123
 188 955 188 955 220 951 c 1,124,125
 222 958 222 958 224 963 c 128,-1,126
 226 968 226 968 229 973 c 1,127,128
 204 995 204 995 173.5 1013.5 c 128,-1,129
 143 1032 143 1032 117 1049 c 0,130,131
 111 1053 111 1053 102.5 1060.5 c 128,-1,132
 94 1068 94 1068 89.5 1078 c 128,-1,133
 85 1088 85 1088 86.5 1100 c 128,-1,134
 88 1112 88 1112 100 1124 c 0,135,136
 113 1137 113 1137 124 1138 c 128,-1,137
 135 1139 135 1139 144.5 1134 c 128,-1,138
 154 1129 154 1129 161 1121 c 128,-1,139
 168 1113 168 1113 173 1107 c 0,140,141
 191 1079 191 1079 210 1048.5 c 128,-1,142
 229 1018 229 1018 249 994 c 1,143,144
 256 996 256 996 261.5 999 c 128,-1,145
 267 1002 267 1002 273 1002 c 1,146,147
 269 1036 269 1036 261.5 1070.5 c 128,-1,148
 254 1105 254 1105 247 1137 c 0,149,150
 246 1144 246 1144 245.5 1155 c 128,-1,151
 245 1166 245 1166 248.5 1176.5 c 128,-1,152
 252 1187 252 1187 260.5 1194 c 128,-1,153
 269 1201 269 1201 286 1201 c 0,154,155
 304 1201 304 1201 313.5 1193.5 c 128,-1,156
 323 1186 323 1186 326.5 1176 c 128,-1,157
 330 1166 330 1166 329.5 1155 c 128,-1,158
 329 1144 329 1144 327 1137 c 0,159,160
 320 1105 320 1105 312 1070.5 c 128,-1,161
 304 1036 304 1036 303 1002 c 1,12,13
EndSplineSet
EndChar

StartChar: plus
Encoding: 43 43 12
Width: 781
GlyphClass: 2
Flags: W
LayerCount: 2
Fore
SplineSet
73 455 m 1,0,-1
 343 455 l 1,1,-1
 343 723 l 1,2,-1
 428 723 l 1,3,-1
 428 455 l 1,4,-1
 697 455 l 1,5,-1
 697 368 l 1,6,-1
 428 368 l 1,7,-1
 428 99 l 1,8,-1
 343 99 l 1,9,-1
 343 368 l 1,10,-1
 73 368 l 1,11,-1
 73 455 l 1,0,-1
EndSplineSet
EndChar

StartChar: comma
Encoding: 44 44 13
Width: 372
GlyphClass: 2
Flags: W
LayerCount: 2
Fore
SplineSet
217 43 m 1,0,1
 193 31 193 31 167.5 33.5 c 128,-1,2
 142 36 142 36 123 49 c 256,3,4
 104 62 104 62 96.5 81.5 c 128,-1,5
 89 101 89 101 91 121.5 c 128,-1,6
 93 142 93 142 104 160.5 c 128,-1,7
 115 179 115 179 133 190 c 0,8,9
 161 206 161 206 191.5 201 c 128,-1,10
 222 196 222 196 244 174 c 0,11,12
 265 152 265 152 275 123.5 c 128,-1,13
 285 95 285 95 286.5 64 c 128,-1,14
 288 33 288 33 282 2.5 c 128,-1,15
 276 -28 276 -28 265 -55 c 0,16,17
 246 -94 246 -94 218 -124.5 c 128,-1,18
 190 -155 190 -155 151 -174 c 0,19,20
 134 -184 134 -184 119 -187 c 128,-1,21
 104 -190 104 -190 99 -181 c 0,22,23
 94 -175 94 -175 101 -167.5 c 128,-1,24
 108 -160 108 -160 119 -151 c 0,25,26
 141 -137 141 -137 162.5 -115.5 c 128,-1,27
 184 -94 184 -94 199 -68 c 0,28,29
 213 -42 213 -42 219.5 -14 c 128,-1,30
 226 14 226 14 217 43 c 1,0,1
EndSplineSet
EndChar

StartChar: hyphen
Encoding: 45 45 14
Width: 804
GlyphClass: 2
Flags: W
LayerCount: 2
Fore
SplineSet
720 375 m 1,0,-1
 82 375 l 1,1,-1
 82 462 l 1,2,-1
 720 462 l 1,3,-1
 720 375 l 1,0,-1
EndSplineSet
EndChar

StartChar: period
Encoding: 46 46 15
Width: 400
GlyphClass: 2
Flags: W
LayerCount: 2
Fore
SplineSet
294 136 m 0,0,1
 294 84 294 84 268 62 c 128,-1,2
 242 40 242 40 188 40 c 0,3,4
 136 40 136 40 109 62 c 128,-1,5
 82 84 82 84 82 136 c 0,6,7
 82 187 82 187 109 208 c 128,-1,8
 136 229 136 229 188 229 c 0,9,10
 242 229 242 229 268 208 c 128,-1,11
 294 187 294 187 294 136 c 0,0,1
EndSplineSet
EndChar

StartChar: slash
Encoding: 47 47 16
Width: 521
GlyphClass: 2
Flags: W
LayerCount: 2
Fore
SplineSet
57 -298 m 1,0,-1
 379 1040 l 1,1,-1
 445 1040 l 1,2,-1
 122 -298 l 1,3,-1
 57 -298 l 1,0,-1
EndSplineSet
EndChar

StartChar: zero
Encoding: 48 48 17
Width: 800
GlyphClass: 2
Flags: W
LayerCount: 2
Fore
SplineSet
389 1126 m 0,0,1
 475 1128 475 1128 534 1104 c 128,-1,2
 593 1080 593 1080 630.5 1038 c 128,-1,3
 668 996 668 996 687.5 939.5 c 128,-1,4
 707 883 707 883 715.5 819.5 c 128,-1,5
 724 756 724 756 725 690.5 c 128,-1,6
 726 625 726 625 726 564 c 0,7,8
 726 504 726 504 725 439 c 128,-1,9
 724 374 724 374 715.5 311 c 128,-1,10
 707 248 707 248 687.5 191.5 c 128,-1,11
 668 135 668 135 630.5 93 c 128,-1,12
 593 51 593 51 534 27 c 128,-1,13
 475 3 475 3 389 5 c 0,14,15
 305 6 305 6 248.5 31.5 c 128,-1,16
 192 57 192 57 156 99 c 128,-1,17
 120 141 120 141 101.5 197 c 128,-1,18
 83 253 83 253 75 314.5 c 128,-1,19
 67 376 67 376 66.5 440.5 c 128,-1,20
 66 505 66 505 66 564 c 0,21,22
 66 624 66 624 66.5 688.5 c 128,-1,23
 67 753 67 753 75 815 c 128,-1,24
 83 877 83 877 101.5 933 c 128,-1,25
 120 989 120 989 156 1031.5 c 128,-1,26
 192 1074 192 1074 248.5 1099.5 c 128,-1,27
 305 1125 305 1125 389 1126 c 0,0,1
392 127 m 0,28,29
 449 126 449 126 487.5 147 c 128,-1,30
 526 168 526 168 551 203 c 128,-1,31
 576 238 576 238 589 284 c 128,-1,32
 602 330 602 330 608 379 c 128,-1,33
 614 428 614 428 614.5 476 c 128,-1,34
 615 524 615 524 615 564 c 0,35,36
 615 606 615 606 614.5 655 c 128,-1,37
 614 704 614 704 608 753 c 128,-1,38
 602 802 602 802 589 847.5 c 128,-1,39
 576 893 576 893 551 928 c 128,-1,40
 526 963 526 963 487.5 983.5 c 128,-1,41
 449 1004 449 1004 392 1003 c 0,42,43
 335 1003 335 1003 297.5 981.5 c 128,-1,44
 260 960 260 960 236.5 924 c 128,-1,45
 213 888 213 888 201 842 c 128,-1,46
 189 796 189 796 184 747.5 c 128,-1,47
 179 699 179 699 179 651 c 128,-1,48
 179 603 179 603 179 564 c 0,49,50
 179 524 179 524 179 477 c 128,-1,51
 179 430 179 430 184 381.5 c 128,-1,52
 189 333 189 333 201 287.5 c 128,-1,53
 213 242 213 242 236.5 207 c 128,-1,54
 260 172 260 172 298 150 c 128,-1,55
 336 128 336 128 392 127 c 0,28,29
EndSplineSet
EndChar

StartChar: one
Encoding: 49 49 18
Width: 547
GlyphClass: 2
Flags: W
LayerCount: 2
Fore
SplineSet
307 878 m 1,0,1
 255 840 255 840 200 808 c 128,-1,2
 145 776 145 776 84 756 c 1,3,4
 82 782 82 782 80 817 c 128,-1,5
 78 852 78 852 75 881 c 1,6,7
 118 900 118 900 159 928.5 c 128,-1,8
 200 957 200 957 237 989.5 c 128,-1,9
 274 1022 274 1022 305.5 1056.5 c 128,-1,10
 337 1091 337 1091 361 1122 c 1,11,12
 368 1121 368 1121 379.5 1121 c 128,-1,13
 391 1121 391 1121 403 1121 c 128,-1,14
 415 1121 415 1121 426 1121.5 c 128,-1,15
 437 1122 437 1122 444 1122 c 1,16,-1
 444 -1 l 1,17,-1
 307 -1 l 1,18,-1
 307 878 l 1,0,1
EndSplineSet
EndChar

StartChar: two
Encoding: 50 50 19
Width: 906
GlyphClass: 2
Flags: W
LayerCount: 2
Fore
SplineSet
104 128 m 2,0,1
 104 130 104 130 122.5 148.5 c 128,-1,2
 141 167 141 167 171 196.5 c 128,-1,3
 201 226 201 226 240.5 263 c 128,-1,4
 280 300 280 300 321.5 339.5 c 128,-1,5
 363 379 363 379 404 417.5 c 128,-1,6
 445 456 445 456 478.5 488.5 c 128,-1,7
 512 521 512 521 535.5 544 c 128,-1,8
 559 567 559 567 566 576 c 0,9,10
 597 614 597 614 616.5 654.5 c 128,-1,11
 636 695 636 695 644 734 c 128,-1,12
 652 773 652 773 649 810 c 128,-1,13
 646 847 646 847 632 877 c 0,14,15
 611 925 611 925 576.5 951 c 128,-1,16
 542 977 542 977 501 984.5 c 128,-1,17
 460 992 460 992 416.5 982 c 128,-1,18
 373 972 373 972 334 948.5 c 128,-1,19
 295 925 295 925 264.5 889 c 128,-1,20
 234 853 234 853 219 808 c 1,21,22
 195 820 195 820 170.5 833 c 128,-1,23
 146 846 146 846 122 857 c 1,24,25
 135 924 135 924 169.5 975 c 128,-1,26
 204 1026 204 1026 251.5 1060 c 128,-1,27
 299 1094 299 1094 356 1111 c 128,-1,28
 413 1128 413 1128 470.5 1127 c 128,-1,29
 528 1126 528 1126 582 1107 c 128,-1,30
 636 1088 636 1088 678.5 1051 c 128,-1,31
 721 1014 721 1014 748 958 c 128,-1,32
 775 902 775 902 778 827 c 0,33,34
 780 750 780 750 751 676.5 c 128,-1,35
 722 603 722 603 675.5 535.5 c 128,-1,36
 629 468 629 468 571.5 407.5 c 128,-1,37
 514 347 514 347 460 296.5 c 128,-1,38
 406 246 406 246 361.5 206 c 128,-1,39
 317 166 317 166 296 140 c 1,40,-1
 814 140 l 1,41,-1
 778 0 l 1,42,-1
 104 0 l 1,43,-1
 104 128 l 2,0,1
EndSplineSet
EndChar

StartChar: three
Encoding: 51 51 20
Width: 793
GlyphClass: 2
Flags: W
LayerCount: 2
Fore
SplineSet
703 899 m 0,0,1
 712 852 712 852 707.5 803.5 c 128,-1,2
 703 755 703 755 684 711 c 128,-1,3
 665 667 665 667 632.5 630.5 c 128,-1,4
 600 594 600 594 553 570 c 1,5,6
 601 545 601 545 634 508.5 c 128,-1,7
 667 472 667 472 685.5 428.5 c 128,-1,8
 704 385 704 385 709 337.5 c 128,-1,9
 714 290 714 290 707 244 c 0,10,11
 692 160 692 160 648.5 106.5 c 128,-1,12
 605 53 605 53 545 27 c 128,-1,13
 485 1 485 1 416 2 c 128,-1,14
 347 3 347 3 282 28.5 c 128,-1,15
 217 54 217 54 163.5 102.5 c 128,-1,16
 110 151 110 151 81 221 c 1,17,-1
 191 293 l 1,18,19
 212 237 212 237 252 203.5 c 128,-1,20
 292 170 292 170 339 156.5 c 128,-1,21
 386 143 386 143 433.5 149.5 c 128,-1,22
 481 156 481 156 516.5 180 c 128,-1,23
 552 204 552 204 569.5 245.5 c 128,-1,24
 587 287 587 287 574 343 c 0,25,26
 566 378 566 378 543 411.5 c 128,-1,27
 520 445 520 445 483 469 c 128,-1,28
 446 493 446 493 396.5 504.5 c 128,-1,29
 347 516 347 516 286 507 c 1,30,-1
 285 633 l 1,31,32
 349 622 349 622 400.5 633.5 c 128,-1,33
 452 645 452 645 488.5 670 c 128,-1,34
 525 695 525 695 547.5 729 c 128,-1,35
 570 763 570 763 577 797 c 0,36,37
 588 853 588 853 572 893.5 c 128,-1,38
 556 934 556 934 523.5 957.5 c 128,-1,39
 491 981 491 981 447.5 987.5 c 128,-1,40
 404 994 404 994 360.5 981 c 128,-1,41
 317 968 317 968 279 935.5 c 128,-1,42
 241 903 241 903 219 849 c 1,43,-1
 104 917 l 1,44,45
 133 985 133 985 183.5 1032.5 c 128,-1,46
 234 1080 234 1080 294.5 1104.5 c 128,-1,47
 355 1129 355 1129 419 1129.5 c 128,-1,48
 483 1130 483 1130 540 1105 c 128,-1,49
 597 1080 597 1080 640.5 1029 c 128,-1,50
 684 978 684 978 703 899 c 0,0,1
EndSplineSet
EndChar

StartChar: four
Encoding: 52 52 21
Width: 953
GlyphClass: 2
Flags: W
LayerCount: 2
Fore
SplineSet
831 277 m 1,0,-1
 703 277 l 1,1,-1
 703 0 l 1,2,-1
 571 0 l 1,3,-1
 571 277 l 1,4,-1
 81 277 l 1,5,-1
 113 403 l 1,6,-1
 589 1122 l 1,7,-1
 703 1122 l 1,8,-1
 703 412 l 1,9,-1
 864 412 l 1,10,-1
 831 277 l 1,0,-1
571 904 m 1,11,-1
 240 412 l 1,12,-1
 571 412 l 1,13,-1
 571 904 l 1,11,-1
EndSplineSet
EndChar

StartChar: five
Encoding: 53 53 22
Width: 876
GlyphClass: 2
Flags: W
LayerCount: 2
Fore
SplineSet
236 555 m 1,0,-1
 113 550 l 1,1,-1
 207 1121 l 1,2,-1
 760 1121 l 1,3,-1
 719 981 l 1,4,-1
 306 981 l 1,5,-1
 255 694 l 1,6,7
 315 735 315 735 379.5 746.5 c 128,-1,8
 444 758 444 758 505 745.5 c 128,-1,9
 566 733 566 733 620.5 699 c 128,-1,10
 675 665 675 665 715 615 c 128,-1,11
 755 565 755 565 776.5 502 c 128,-1,12
 798 439 798 439 794 369 c 0,13,14
 789 275 789 275 748 201.5 c 128,-1,15
 707 128 707 128 645 80 c 128,-1,16
 583 32 583 32 507 12 c 128,-1,17
 431 -8 431 -8 355.5 6.5 c 128,-1,18
 280 21 280 21 212.5 72.5 c 128,-1,19
 145 124 145 124 100 218 c 1,20,-1
 228 276 l 1,21,22
 253 228 253 228 293 198.5 c 128,-1,23
 333 169 333 169 379 158 c 128,-1,24
 425 147 425 147 471.5 155 c 128,-1,25
 518 163 518 163 557 189.5 c 128,-1,26
 596 216 596 216 622 261 c 128,-1,27
 648 306 648 306 652 369 c 0,28,29
 655 416 655 416 644.5 455 c 128,-1,30
 634 494 634 494 613.5 524 c 128,-1,31
 593 554 593 554 563.5 574 c 128,-1,32
 534 594 534 594 500 603 c 0,33,34
 465 610 465 610 426 607.5 c 128,-1,35
 387 605 387 605 351 597 c 128,-1,36
 315 589 315 589 284.5 577.5 c 128,-1,37
 254 566 254 566 236 555 c 1,0,-1
EndSplineSet
EndChar

StartChar: six
Encoding: 54 54 23
Width: 880
GlyphClass: 2
Flags: W
LayerCount: 2
Fore
SplineSet
428 588 m 0,0,1
 387 587 387 587 348 574.5 c 128,-1,2
 309 562 309 562 279 535.5 c 128,-1,3
 249 509 249 509 232 467 c 128,-1,4
 215 425 215 425 218 364 c 0,5,6
 219 319 219 319 236.5 280.5 c 128,-1,7
 254 242 254 242 282.5 214 c 128,-1,8
 311 186 311 186 349.5 170 c 128,-1,9
 388 154 388 154 431 154 c 0,10,11
 479 154 479 154 518 170 c 128,-1,12
 557 186 557 186 585.5 214 c 128,-1,13
 614 242 614 242 630 280.5 c 128,-1,14
 646 319 646 319 648 364 c 0,15,16
 651 426 651 426 632.5 469 c 128,-1,17
 614 512 614 512 582.5 538.5 c 128,-1,18
 551 565 551 565 510.5 576.5 c 128,-1,19
 470 588 470 588 428 588 c 0,0,1
224 634 m 1,20,21
 247 666 247 666 277.5 684.5 c 128,-1,22
 308 703 308 703 338 712.5 c 128,-1,23
 368 722 368 722 393.5 725.5 c 128,-1,24
 419 729 419 729 431 730 c 0,25,26
 522 732 522 732 589 701 c 128,-1,27
 656 670 656 670 699.5 617 c 128,-1,28
 743 564 743 564 763 495.5 c 128,-1,29
 783 427 783 427 780 354 c 0,30,31
 778 287 778 287 755 223.5 c 128,-1,32
 732 160 732 160 688.5 110.5 c 128,-1,33
 645 61 645 61 580.5 31 c 128,-1,34
 516 1 516 1 431 1 c 0,35,36
 352 1 352 1 295 26 c 128,-1,37
 238 51 238 51 199 94 c 128,-1,38
 160 137 160 137 137 194 c 128,-1,39
 114 251 114 251 102 315.5 c 128,-1,40
 90 380 90 380 87.5 447.5 c 128,-1,41
 85 515 85 515 87 580 c 0,42,43
 90 693 90 693 112.5 791.5 c 128,-1,44
 135 890 135 890 181 963 c 128,-1,45
 227 1036 227 1036 298 1078.5 c 128,-1,46
 369 1121 369 1121 470 1122 c 0,47,48
 530 1123 530 1123 576.5 1110 c 128,-1,49
 623 1097 623 1097 659 1070 c 128,-1,50
 695 1043 695 1043 723 1003.5 c 128,-1,51
 751 964 751 964 774 913 c 1,52,-1
 671 845 l 1,53,54
 657 881 657 881 635 907 c 128,-1,55
 613 933 613 933 587 950 c 128,-1,56
 561 967 561 967 532.5 975 c 128,-1,57
 504 983 504 983 478 983 c 0,58,59
 404 983 404 983 355 950 c 128,-1,60
 306 917 306 917 277 865.5 c 128,-1,61
 248 814 248 814 236 752.5 c 128,-1,62
 224 691 224 691 224 634 c 1,20,21
EndSplineSet
EndChar

StartChar: seven
Encoding: 55 55 24
Width: 884
GlyphClass: 2
Flags: W
LayerCount: 2
Fore
SplineSet
124 1119 m 1,0,-1
 777 1121 l 1,1,-1
 763 983 l 1,2,3
 725 896 725 896 681 812.5 c 128,-1,4
 637 729 637 729 593 646.5 c 128,-1,5
 549 564 549 564 508 483.5 c 128,-1,6
 467 403 467 403 434.5 322.5 c 128,-1,7
 402 242 402 242 381 161.5 c 128,-1,8
 360 81 360 81 357 0 c 1,9,-1
 209 0 l 1,10,11
 212 84 212 84 234 172 c 128,-1,12
 256 260 256 260 290.5 347 c 128,-1,13
 325 434 325 434 367.5 519.5 c 128,-1,14
 410 605 410 605 454 685 c 128,-1,15
 498 765 498 765 539 837.5 c 128,-1,16
 580 910 580 910 612 973 c 1,17,-1
 93 973 l 1,18,-1
 124 1119 l 1,0,-1
EndSplineSet
EndChar

StartChar: eight
Encoding: 56 56 25
Width: 818
GlyphClass: 2
Flags: W
LayerCount: 2
Fore
SplineSet
395 628 m 0,0,1
 432 628 432 628 463.5 644 c 128,-1,2
 495 660 495 660 519 686 c 128,-1,3
 543 712 543 712 557.5 745.5 c 128,-1,4
 572 779 572 779 575 814 c 0,5,6
 578 846 578 846 569.5 879 c 128,-1,7
 561 912 561 912 539.5 939.5 c 128,-1,8
 518 967 518 967 482.5 985.5 c 128,-1,9
 447 1004 447 1004 395 1007 c 1,10,11
 344 1004 344 1004 309 985.5 c 128,-1,12
 274 967 274 967 253.5 939.5 c 128,-1,13
 233 912 233 912 226 879 c 128,-1,14
 219 846 219 846 223 814 c 0,15,16
 225 779 225 779 239 745.5 c 128,-1,17
 253 712 253 712 276 686 c 128,-1,18
 299 660 299 660 329.5 644 c 128,-1,19
 360 628 360 628 395 628 c 0,0,1
395 1128 m 0,20,21
 462 1128 462 1128 517.5 1103 c 128,-1,22
 573 1078 573 1078 613 1034.5 c 128,-1,23
 653 991 653 991 675 933 c 128,-1,24
 697 875 697 875 696 809 c 0,25,26
 694 776 694 776 687.5 742 c 128,-1,27
 681 708 681 708 666 677 c 128,-1,28
 651 646 651 646 625.5 619.5 c 128,-1,29
 600 593 600 593 561 574 c 1,30,31
 607 550 607 550 640 516 c 128,-1,32
 673 482 673 482 692.5 442 c 128,-1,33
 712 402 712 402 719 359 c 128,-1,34
 726 316 726 316 722 274 c 0,35,36
 714 208 714 208 683 157 c 128,-1,37
 652 106 652 106 606.5 71 c 128,-1,38
 561 36 561 36 505 18.5 c 128,-1,39
 449 1 449 1 391 2 c 256,40,41
 333 3 333 3 277 22 c 128,-1,42
 221 41 221 41 176.5 77 c 128,-1,43
 132 113 132 113 103 165 c 128,-1,44
 74 217 74 217 70 284 c 0,45,46
 67 326 67 326 75.5 368 c 128,-1,47
 84 410 84 410 104 448 c 128,-1,48
 124 486 124 486 156 518.5 c 128,-1,49
 188 551 188 551 233 574 c 1,50,51
 192 596 192 596 165.5 624 c 128,-1,52
 139 652 139 652 124 683.5 c 128,-1,53
 109 715 109 715 103 749.5 c 128,-1,54
 97 784 97 784 97 819 c 0,55,56
 98 883 98 883 120.5 939.5 c 128,-1,57
 143 996 143 996 182.5 1038 c 128,-1,58
 222 1080 222 1080 276 1104 c 128,-1,59
 330 1128 330 1128 395 1128 c 0,20,21
395 127 m 0,60,61
 447 128 447 128 484 149 c 128,-1,62
 521 170 521 170 544.5 200.5 c 128,-1,63
 568 231 568 231 578 267 c 128,-1,64
 588 303 588 303 586 334 c 0,65,66
 583 370 583 370 566.5 403.5 c 128,-1,67
 550 437 550 437 524.5 463 c 128,-1,68
 499 489 499 489 465.5 504.5 c 128,-1,69
 432 520 432 520 395 520 c 0,70,71
 359 520 359 520 327 504.5 c 128,-1,72
 295 489 295 489 270.5 463 c 128,-1,73
 246 437 246 437 230.5 403.5 c 128,-1,74
 215 370 215 370 212 334 c 0,75,76
 209 303 209 303 218 267 c 128,-1,77
 227 231 227 231 249 200.5 c 128,-1,78
 271 170 271 170 307.5 149 c 128,-1,79
 344 128 344 128 395 127 c 0,60,61
EndSplineSet
EndChar

StartChar: nine
Encoding: 57 57 26
Width: 880
GlyphClass: 2
Flags: W
LayerCount: 2
Fore
SplineSet
446 539 m 0,0,1
 488 539 488 539 526.5 551.5 c 128,-1,2
 565 564 565 564 594.5 591 c 128,-1,3
 624 618 624 618 641 660.5 c 128,-1,4
 658 703 658 703 657 762 c 0,5,6
 654 807 654 807 636.5 846 c 128,-1,7
 619 885 619 885 590.5 913 c 128,-1,8
 562 941 562 941 524 957 c 128,-1,9
 486 973 486 973 443 973 c 0,10,11
 395 973 395 973 356 957 c 128,-1,12
 317 941 317 941 289 913 c 128,-1,13
 261 885 261 885 244.5 846 c 128,-1,14
 228 807 228 807 225 762 c 0,15,16
 222 700 222 700 240.5 657 c 128,-1,17
 259 614 259 614 291 587.5 c 128,-1,18
 323 561 323 561 363.5 549.5 c 128,-1,19
 404 538 404 538 446 539 c 0,0,1
650 492 m 1,20,21
 627 460 627 460 596.5 441.5 c 128,-1,22
 566 423 566 423 536 413 c 128,-1,23
 506 403 506 403 480.5 400 c 128,-1,24
 455 397 455 397 443 396 c 0,25,26
 353 394 353 394 286 425.5 c 128,-1,27
 219 457 219 457 175 509.5 c 128,-1,28
 131 562 131 562 110.5 630.5 c 128,-1,29
 90 699 90 699 94 772 c 0,30,31
 96 839 96 839 119 903 c 128,-1,32
 142 967 142 967 185.5 1016 c 128,-1,33
 229 1065 229 1065 293.5 1095 c 128,-1,34
 358 1125 358 1125 443 1125 c 0,35,36
 522 1125 522 1125 579 1100 c 128,-1,37
 636 1075 636 1075 674.5 1032.5 c 128,-1,38
 713 990 713 990 736.5 933 c 128,-1,39
 760 876 760 876 771.5 811.5 c 128,-1,40
 783 747 783 747 786 679 c 128,-1,41
 789 611 789 611 787 547 c 0,42,43
 782 434 782 434 759.5 335 c 128,-1,44
 737 236 737 236 692 162.5 c 128,-1,45
 647 89 647 89 576.5 46.5 c 128,-1,46
 506 4 506 4 404 4 c 0,47,48
 344 2 344 2 297 15.5 c 128,-1,49
 250 29 250 29 213.5 56 c 128,-1,50
 177 83 177 83 149.5 123 c 128,-1,51
 122 163 122 163 100 213 c 1,52,-1
 203 281 l 1,53,54
 218 245 218 245 239.5 219 c 128,-1,55
 261 193 261 193 286.5 176 c 128,-1,56
 312 159 312 159 340 151 c 128,-1,57
 368 143 368 143 396 143 c 0,58,59
 470 143 470 143 519 176.5 c 128,-1,60
 568 210 568 210 597 261 c 128,-1,61
 626 312 626 312 638 373.5 c 128,-1,62
 650 435 650 435 650 492 c 1,20,21
EndSplineSet
EndChar

StartChar: colon
Encoding: 58 58 27
Width: 438
GlyphClass: 2
Flags: W
LayerCount: 2
Fore
SplineSet
218 692 m 0,0,1
 255 692 255 692 280.5 666.5 c 128,-1,2
 306 641 306 641 306 605 c 0,3,4
 306 587 306 587 299 571.5 c 128,-1,5
 292 556 292 556 280 544 c 128,-1,6
 268 532 268 532 252 525 c 128,-1,7
 236 518 236 518 218 518 c 256,8,9
 200 518 200 518 184 525 c 128,-1,10
 168 532 168 532 156.5 544 c 128,-1,11
 145 556 145 556 138 571.5 c 128,-1,12
 131 587 131 587 131 605 c 0,13,14
 131 641 131 641 156.5 666.5 c 128,-1,15
 182 692 182 692 218 692 c 0,0,1
218 207 m 0,16,17
 255 207 255 207 280.5 182 c 128,-1,18
 306 157 306 157 306 121 c 256,19,20
 306 85 306 85 280.5 59.5 c 128,-1,21
 255 34 255 34 218 34 c 0,22,23
 182 34 182 34 156.5 59.5 c 128,-1,24
 131 85 131 85 131 121 c 256,25,26
 131 157 131 157 156.5 182 c 128,-1,27
 182 207 182 207 218 207 c 0,16,17
EndSplineSet
EndChar

StartChar: semicolon
Encoding: 59 59 28
Width: 452
GlyphClass: 2
Flags: W
LayerCount: 2
Fore
SplineSet
227 827 m 0,0,1
 267 827 267 827 294 800 c 128,-1,2
 321 773 321 773 321 734 c 256,3,4
 321 695 321 695 294 668 c 128,-1,5
 267 641 267 641 227 641 c 0,6,7
 188 641 188 641 160.5 668 c 128,-1,8
 133 695 133 695 133 734 c 256,9,10
 133 773 133 773 160.5 800 c 128,-1,11
 188 827 188 827 227 827 c 0,0,1
256 114 m 1,12,13
 269 81 269 81 265.5 47.5 c 128,-1,14
 262 14 262 14 247 -18 c 0,15,16
 233 -48 233 -48 210 -76 c 128,-1,17
 187 -104 187 -104 163 -124 c 0,18,19
 152 -135 152 -135 145.5 -144 c 128,-1,20
 139 -153 139 -153 144 -159 c 0,21,22
 150 -169 150 -169 167.5 -163.5 c 128,-1,23
 185 -158 185 -158 204 -146 c 0,24,25
 246 -119 246 -119 275 -80 c 128,-1,26
 304 -41 304 -41 321 5 c 0,27,28
 332 36 332 36 335.5 73 c 128,-1,29
 339 110 339 110 334 146 c 128,-1,30
 329 182 329 182 314 214 c 128,-1,31
 299 246 299 246 273 268 c 0,32,33
 245 292 245 292 208.5 293.5 c 128,-1,34
 172 295 172 295 141 275 c 0,35,36
 121 260 121 260 110.5 237 c 128,-1,37
 100 214 100 214 100 190 c 128,-1,38
 100 166 100 166 111 144.5 c 128,-1,39
 122 123 122 123 146 111 c 0,40,41
 170 96 170 96 200 96 c 128,-1,42
 230 96 230 96 256 114 c 1,12,13
EndSplineSet
EndChar

StartChar: less
Encoding: 60 60 29
Width: 1161
GlyphClass: 2
Flags: W
LayerCount: 2
Fore
SplineSet
120 731 m 1,0,-1
 1009 1116 l 1,1,-1
 1009 1004 l 1,2,-1
 212 657 l 1,3,-1
 1009 311 l 1,4,-1
 1009 199 l 1,5,-1
 120 582 l 1,6,-1
 120 731 l 1,0,-1
EndSplineSet
EndChar

StartChar: equal
Encoding: 61 61 30
Width: 804
GlyphClass: 2
Flags: W
LayerCount: 2
Fore
SplineSet
722 281 m 1,0,-1
 83 281 l 1,1,-1
 83 370 l 1,2,-1
 722 370 l 1,3,-1
 722 281 l 1,0,-1
722 458 m 1,4,-1
 83 458 l 1,5,-1
 83 545 l 1,6,-1
 722 545 l 1,7,-1
 722 458 l 1,4,-1
EndSplineSet
EndChar

StartChar: greater
Encoding: 62 62 31
Width: 1161
GlyphClass: 2
Flags: W
LayerCount: 2
Fore
SplineSet
1009 582 m 1,0,-1
 120 199 l 1,1,-1
 120 311 l 1,2,-1
 917 657 l 1,3,-1
 120 1004 l 1,4,-1
 120 1116 l 1,5,-1
 1009 731 l 1,6,-1
 1009 582 l 1,0,-1
EndSplineSet
EndChar

StartChar: guilsinglleft
Encoding: 257 8249 32
Width: 469
GlyphClass: 2
Flags: W
LayerCount: 2
Fore
SplineSet
381 197 m 1,0,-1
 72 578 l 1,1,-1
 381 958 l 1,2,-1
 410 946 l 1,3,-1
 215 578 l 1,4,-1
 410 209 l 1,5,-1
 381 197 l 1,0,-1
EndSplineSet
EndChar

StartChar: quoteleft
Encoding: 258 8216 33
Width: 514
GlyphClass: 2
Flags: W
LayerCount: 2
Fore
SplineSet
215 1169 m 1,0,1
 244 1190 244 1190 276.5 1190 c 128,-1,2
 309 1190 309 1190 336 1174 c 0,3,4
 360 1158 360 1158 372 1135 c 128,-1,5
 384 1112 384 1112 384 1086.5 c 128,-1,6
 384 1061 384 1061 373 1036.5 c 128,-1,7
 362 1012 362 1012 340 993 c 1,8,9
 307 973 307 973 267 975 c 128,-1,10
 227 977 227 977 197 1004 c 0,11,12
 167 1027 167 1027 151 1061.5 c 128,-1,13
 135 1096 135 1096 130 1135 c 128,-1,14
 125 1174 125 1174 129 1214 c 128,-1,15
 133 1254 133 1254 143 1288 c 0,16,17
 164 1339 164 1339 195.5 1381 c 128,-1,18
 227 1423 227 1423 272 1452 c 0,19,20
 293 1464 293 1464 311.5 1471.5 c 128,-1,21
 330 1479 330 1479 338 1466 c 0,22,23
 342 1460 342 1460 335 1450 c 128,-1,24
 328 1440 328 1440 315 1427 c 0,25,26
 291 1407 291 1407 266.5 1376.5 c 128,-1,27
 242 1346 242 1346 225 1313 c 0,28,29
 209 1280 209 1280 205 1243 c 128,-1,30
 201 1206 201 1206 215 1169 c 1,0,1
EndSplineSet
EndChar

StartChar: quoteright
Encoding: 259 8217 34
Width: 514
GlyphClass: 2
Flags: W
LayerCount: 2
Fore
SplineSet
297 1278 m 1,0,1
 266 1257 266 1257 234.5 1258.5 c 128,-1,2
 203 1260 203 1260 176 1276 c 0,3,4
 151 1288 151 1288 139 1311 c 128,-1,5
 127 1334 127 1334 127 1360 c 128,-1,6
 127 1386 127 1386 138 1411.5 c 128,-1,7
 149 1437 149 1437 170 1454 c 0,8,9
 205 1475 205 1475 244 1472.5 c 128,-1,10
 283 1470 283 1470 313 1446 c 0,11,12
 342 1421 342 1421 358.5 1386 c 128,-1,13
 375 1351 375 1351 381 1312 c 128,-1,14
 387 1273 387 1273 383 1233 c 128,-1,15
 379 1193 379 1193 367 1159 c 0,16,17
 348 1110 348 1110 316.5 1067 c 128,-1,18
 285 1024 285 1024 240 995 c 0,19,20
 219 983 219 983 200.5 977 c 128,-1,21
 182 971 182 971 174 981 c 0,22,23
 168 987 168 987 175 997.5 c 128,-1,24
 182 1008 182 1008 195 1020 c 0,25,26
 221 1042 221 1042 245.5 1072 c 128,-1,27
 270 1102 270 1102 287 1135 c 0,28,29
 301 1169 301 1169 305 1205 c 128,-1,30
 309 1241 309 1241 297 1278 c 1,0,1
EndSplineSet
EndChar

StartChar: quotedblleft
Encoding: 260 8220 35
Width: 981
GlyphClass: 2
Flags: W
LayerCount: 2
Fore
SplineSet
684 1169 m 1,0,1
 715 1190 715 1190 746.5 1190 c 128,-1,2
 778 1190 778 1190 805 1174 c 0,3,4
 830 1158 830 1158 842 1135 c 128,-1,5
 854 1112 854 1112 854 1087 c 128,-1,6
 854 1062 854 1062 843 1037 c 128,-1,7
 832 1012 832 1012 811 993 c 1,8,9
 776 973 776 973 737 975 c 128,-1,10
 698 977 698 977 668 1004 c 0,11,12
 638 1026 638 1026 621.5 1060.5 c 128,-1,13
 605 1095 605 1095 599.5 1134.5 c 128,-1,14
 594 1174 594 1174 598 1214.5 c 128,-1,15
 602 1255 602 1255 614 1288 c 0,16,17
 633 1339 633 1339 664.5 1381 c 128,-1,18
 696 1423 696 1423 741 1452 c 0,19,20
 762 1464 762 1464 780.5 1471.5 c 128,-1,21
 799 1479 799 1479 807 1466 c 0,22,23
 813 1460 813 1460 806 1450 c 128,-1,24
 799 1440 799 1440 786 1427 c 0,25,26
 760 1407 760 1407 735.5 1376.5 c 128,-1,27
 711 1346 711 1346 694 1313 c 0,28,29
 680 1280 680 1280 676 1243 c 128,-1,30
 672 1206 672 1206 684 1169 c 1,0,1
215 1169 m 1,31,32
 244 1190 244 1190 276.5 1190 c 128,-1,33
 309 1190 309 1190 336 1174 c 0,34,35
 360 1158 360 1158 372 1135 c 128,-1,36
 384 1112 384 1112 384 1086.5 c 128,-1,37
 384 1061 384 1061 373 1036.5 c 128,-1,38
 362 1012 362 1012 340 993 c 1,39,40
 307 973 307 973 267 975 c 128,-1,41
 227 977 227 977 197 1004 c 0,42,43
 167 1027 167 1027 151 1061.5 c 128,-1,44
 135 1096 135 1096 130 1135 c 128,-1,45
 125 1174 125 1174 129 1214 c 128,-1,46
 133 1254 133 1254 143 1288 c 0,47,48
 164 1339 164 1339 195.5 1381 c 128,-1,49
 227 1423 227 1423 272 1452 c 0,50,51
 293 1464 293 1464 311.5 1471.5 c 128,-1,52
 330 1479 330 1479 338 1466 c 0,53,54
 342 1460 342 1460 335 1450 c 128,-1,55
 328 1440 328 1440 315 1427 c 0,56,57
 291 1407 291 1407 266.5 1376.5 c 128,-1,58
 242 1346 242 1346 225 1313 c 0,59,60
 209 1280 209 1280 205 1243 c 128,-1,61
 201 1206 201 1206 215 1169 c 1,31,32
EndSplineSet
EndChar

StartChar: quotedblright
Encoding: 261 8221 36
Width: 981
GlyphClass: 2
Flags: W
LayerCount: 2
Fore
SplineSet
297 1278 m 1,0,1
 266 1257 266 1257 234.5 1258.5 c 128,-1,2
 203 1260 203 1260 176 1276 c 0,3,4
 151 1288 151 1288 139 1311 c 128,-1,5
 127 1334 127 1334 127 1360 c 128,-1,6
 127 1386 127 1386 138 1411.5 c 128,-1,7
 149 1437 149 1437 170 1454 c 0,8,9
 205 1475 205 1475 244 1472.5 c 128,-1,10
 283 1470 283 1470 313 1446 c 0,11,12
 342 1421 342 1421 358.5 1386 c 128,-1,13
 375 1351 375 1351 381 1312 c 128,-1,14
 387 1273 387 1273 383 1233 c 128,-1,15
 379 1193 379 1193 367 1159 c 0,16,17
 348 1110 348 1110 316.5 1067 c 128,-1,18
 285 1024 285 1024 240 995 c 0,19,20
 219 983 219 983 200.5 977 c 128,-1,21
 182 971 182 971 174 981 c 0,22,23
 168 987 168 987 175 997.5 c 128,-1,24
 182 1008 182 1008 195 1020 c 0,25,26
 221 1042 221 1042 245.5 1072 c 128,-1,27
 270 1102 270 1102 287 1135 c 0,28,29
 301 1169 301 1169 305 1205 c 128,-1,30
 309 1241 309 1241 297 1278 c 1,0,1
766 1278 m 1,31,32
 737 1257 737 1257 704.5 1258.5 c 128,-1,33
 672 1260 672 1260 645 1276 c 0,34,35
 621 1288 621 1288 608.5 1311.5 c 128,-1,36
 596 1335 596 1335 595.5 1361 c 128,-1,37
 595 1387 595 1387 606.5 1412.5 c 128,-1,38
 618 1438 618 1438 641 1454 c 0,39,40
 674 1475 674 1475 714 1472.5 c 128,-1,41
 754 1470 754 1470 784 1446 c 0,42,43
 813 1420 813 1420 829 1385 c 128,-1,44
 845 1350 845 1350 850.5 1312 c 128,-1,45
 856 1274 856 1274 852 1234.5 c 128,-1,46
 848 1195 848 1195 838 1159 c 1,47,48
 817 1110 817 1110 785.5 1067 c 128,-1,49
 754 1024 754 1024 709 995 c 0,50,51
 688 983 688 983 669.5 977 c 128,-1,52
 651 971 651 971 643 981 c 0,53,54
 639 987 639 987 646 997.5 c 128,-1,55
 653 1008 653 1008 666 1020 c 0,56,57
 690 1042 690 1042 714.5 1072 c 128,-1,58
 739 1102 739 1102 756 1135 c 0,59,60
 772 1169 772 1169 776 1205 c 128,-1,61
 780 1241 780 1241 766 1278 c 1,31,32
EndSplineSet
EndChar

StartChar: guilsinglright
Encoding: 262 8250 37
Width: 469
GlyphClass: 2
Flags: W
LayerCount: 2
Fore
SplineSet
72 209 m 1,0,-1
 264 578 l 1,1,-1
 72 946 l 1,2,-1
 100 958 l 1,3,-1
 410 578 l 1,4,-1
 100 197 l 1,5,-1
 72 209 l 1,0,-1
EndSplineSet
EndChar

StartChar: guillemotleft
Encoding: 263 171 38
Width: 625
GlyphClass: 2
Flags: W
LayerCount: 2
Fore
SplineSet
268 156 m 1,0,1
 201 250 201 250 165 360.5 c 128,-1,2
 129 471 129 471 129 586 c 256,3,4
 129 701 129 701 165 810 c 128,-1,5
 201 919 201 919 268 1016 c 1,6,-1
 315 999 l 1,7,8
 272 899 272 899 251.5 797 c 128,-1,9
 231 695 231 695 231 586 c 256,10,11
 231 477 231 477 251.5 373.5 c 128,-1,12
 272 270 272 270 315 170 c 1,13,-1
 268 156 l 1,0,1
475 154 m 1,14,15
 408 248 408 248 372 358.5 c 128,-1,16
 336 469 336 469 336 584 c 256,17,18
 336 699 336 699 372 808 c 128,-1,19
 408 917 408 917 475 1014 c 1,20,-1
 522 997 l 1,21,22
 479 897 479 897 458.5 795 c 128,-1,23
 438 693 438 693 438 584 c 256,24,25
 438 475 438 475 458.5 371 c 128,-1,26
 479 267 479 267 522 170 c 1,27,-1
 475 154 l 1,14,15
EndSplineSet
EndChar

StartChar: paragraph
Encoding: 264 182 39
Width: 1038
GlyphClass: 2
Flags: W
LayerCount: 2
Fore
SplineSet
492 762 m 1,0,1
 373 761 373 761 283.5 795 c 128,-1,2
 194 829 194 829 134.5 885.5 c 128,-1,3
 75 942 75 942 46 1014.5 c 128,-1,4
 17 1087 17 1087 17 1162.5 c 128,-1,5
 17 1238 17 1238 47 1311 c 128,-1,6
 77 1384 77 1384 136.5 1440.5 c 128,-1,7
 196 1497 196 1497 285 1532 c 128,-1,8
 374 1567 374 1567 492 1567 c 2,9,-1
 872 1567 l 1,10,-1
 1016 1567 l 1,11,-1
 1016 1468 l 1,12,-1
 872 1468 l 1,13,-1
 872 -209 l 1,14,-1
 774 -209 l 1,15,-1
 774 1468 l 1,16,-1
 588 1468 l 1,17,-1
 588 -209 l 1,18,-1
 492 -209 l 1,19,-1
 492 762 l 1,0,1
EndSplineSet
EndChar

StartChar: periodcentered
Encoding: 265 183 40
Width: 532
GlyphClass: 2
Flags: W
LayerCount: 2
Fore
SplineSet
362 791 m 0,0,1
 362 739 362 739 335.5 716.5 c 128,-1,2
 309 694 309 694 264 694 c 0,3,4
 222 694 222 694 196 716.5 c 128,-1,5
 170 739 170 739 170 791 c 0,6,7
 170 842 170 842 196 863.5 c 128,-1,8
 222 885 222 885 264 885 c 0,9,10
 309 885 309 885 335.5 863.5 c 128,-1,11
 362 842 362 842 362 791 c 0,0,1
EndSplineSet
EndChar

StartChar: guillemotright
Encoding: 266 187 41
Width: 625
GlyphClass: 2
Flags: W
LayerCount: 2
Fore
SplineSet
383 156 m 1,0,-1
 336 170 l 1,1,2
 379 270 379 270 399.5 373.5 c 128,-1,3
 420 477 420 477 420 586 c 256,4,5
 420 695 420 695 399.5 797 c 128,-1,6
 379 899 379 899 336 999 c 1,7,-1
 383 1016 l 1,8,9
 452 919 452 919 487 810 c 128,-1,10
 522 701 522 701 522 586 c 256,11,12
 522 471 522 471 487 360.5 c 128,-1,13
 452 250 452 250 383 156 c 1,0,-1
174 154 m 1,14,-1
 129 170 l 1,15,16
 171 267 171 267 192 371 c 128,-1,17
 213 475 213 475 213 584 c 0,18,19
 213 799 213 799 129 997 c 1,20,-1
 174 1014 l 1,21,22
 244 917 244 917 279.5 808 c 128,-1,23
 315 699 315 699 315 584 c 256,24,25
 315 469 315 469 279.5 358.5 c 128,-1,26
 244 248 244 248 174 154 c 1,14,-1
EndSplineSet
EndChar

StartChar: arabiccomma
Encoding: 172 1548 42
Width: 461
GlyphClass: 2
Flags: W
LayerCount: 2
Fore
SplineSet
167 326 m 1,0,1
 202 350 202 350 242 350 c 128,-1,2
 282 350 282 350 314 330 c 0,3,4
 344 313 344 313 359 284 c 128,-1,5
 374 255 374 255 374.5 223.5 c 128,-1,6
 375 192 375 192 361 161.5 c 128,-1,7
 347 131 347 131 320 110 c 0,8,9
 278 84 278 84 230.5 86.5 c 128,-1,10
 183 89 183 89 145 121 c 0,11,12
 109 151 109 151 89 193.5 c 128,-1,13
 69 236 69 236 62 283.5 c 128,-1,14
 55 331 55 331 60.5 380 c 128,-1,15
 66 429 66 429 80 471 c 0,16,17
 103 532 103 532 143 584 c 128,-1,18
 183 636 183 636 237 672 c 0,19,20
 261 688 261 688 284 696 c 128,-1,21
 307 704 307 704 317 689 c 0,22,23
 324 681 324 681 314.5 669 c 128,-1,24
 305 657 305 657 291 643 c 0,25,26
 259 616 259 616 229 580 c 128,-1,27
 199 544 199 544 179 502 c 256,28,29
 159 460 159 460 154.5 415.5 c 128,-1,30
 150 371 150 371 167 326 c 1,0,1
EndSplineSet
EndChar

StartChar: arabicsemicolon
Encoding: 187 1563 43
Width: 466
GlyphClass: 2
Flags: W
LayerCount: 2
Fore
SplineSet
221 -5 m 256,0,1
 198 -5 198 -5 178 3.5 c 128,-1,2
 158 12 158 12 143 27 c 128,-1,3
 128 42 128 42 119 61.5 c 128,-1,4
 110 81 110 81 110 104 c 0,5,6
 110 126 110 126 119 146 c 128,-1,7
 128 166 128 166 143 181 c 128,-1,8
 158 196 158 196 178 205 c 128,-1,9
 198 214 198 214 221 214 c 256,10,11
 244 214 244 214 264 205 c 128,-1,12
 284 196 284 196 299 181 c 128,-1,13
 314 166 314 166 322.5 146 c 128,-1,14
 331 126 331 126 331 104 c 0,15,16
 331 81 331 81 322.5 61.5 c 128,-1,17
 314 42 314 42 299 27 c 128,-1,18
 284 12 284 12 264 3.5 c 128,-1,19
 244 -5 244 -5 221 -5 c 256,0,1
172 560 m 1,20,21
 207 583 207 583 246 583 c 128,-1,22
 285 583 285 583 317 564 c 0,23,24
 347 547 347 547 362.5 518 c 128,-1,25
 378 489 378 489 378.5 457.5 c 128,-1,26
 379 426 379 426 365.5 396 c 128,-1,27
 352 366 352 366 325 346 c 0,28,29
 283 320 283 320 235.5 322 c 128,-1,30
 188 324 188 324 150 356 c 0,31,32
 115 386 115 386 95 428.5 c 128,-1,33
 75 471 75 471 68.5 518 c 128,-1,34
 62 565 62 565 66.5 613.5 c 128,-1,35
 71 662 71 662 85 704 c 0,36,37
 108 764 108 764 147.5 816 c 128,-1,38
 187 868 187 868 241 904 c 0,39,40
 265 919 265 919 288 927 c 128,-1,41
 311 935 311 935 320 921 c 0,42,43
 327 913 327 913 318 901 c 128,-1,44
 309 889 309 889 295 875 c 0,45,46
 263 848 263 848 233 812 c 128,-1,47
 203 776 203 776 183 734 c 0,48,49
 164 692 164 692 159 648.5 c 128,-1,50
 154 605 154 605 172 560 c 1,20,21
EndSplineSet
EndChar

StartChar: arabicquestionmark
Encoding: 191 1567 44
Width: 614
GlyphClass: 2
Flags: W
LayerCount: 2
Fore
SplineSet
314 11 m 0,0,1
 271 11 271 11 247 35 c 128,-1,2
 223 59 223 59 223 102 c 256,3,4
 223 145 223 145 246 169.5 c 128,-1,5
 269 194 269 194 314 194 c 0,6,7
 356 194 356 194 381 170.5 c 128,-1,8
 406 147 406 147 406 102 c 0,9,10
 406 59 406 59 381 35 c 128,-1,11
 356 11 356 11 314 11 c 0,0,1
451 700 m 0,12,13
 405 698 405 698 376.5 721.5 c 128,-1,14
 348 745 348 745 345 784 c 0,15,16
 342 814 342 814 347.5 835 c 128,-1,17
 353 856 353 856 364 872.5 c 128,-1,18
 375 889 375 889 389 905 c 128,-1,19
 403 921 403 921 417 942 c 0,20,21
 430 963 430 963 424.5 980 c 128,-1,22
 419 997 419 997 402.5 1008.5 c 128,-1,23
 386 1020 386 1020 361.5 1025.5 c 128,-1,24
 337 1031 337 1031 312 1030 c 0,25,26
 275 1028 275 1028 249.5 1015.5 c 128,-1,27
 224 1003 224 1003 209 983.5 c 128,-1,28
 194 964 194 964 188.5 940.5 c 128,-1,29
 183 917 183 917 186 893 c 0,30,31
 191 851 191 851 209 815 c 128,-1,32
 227 779 227 779 249 744.5 c 128,-1,33
 271 710 271 710 292.5 675 c 128,-1,34
 314 640 314 640 327 600 c 0,35,36
 340 559 340 559 348.5 521 c 128,-1,37
 357 483 357 483 360 443 c 128,-1,38
 363 403 363 403 359.5 359 c 128,-1,39
 356 315 356 315 345 264 c 1,40,-1
 292 264 l 1,41,42
 294 297 294 297 297.5 325 c 128,-1,43
 301 353 301 353 300 377 c 128,-1,44
 299 401 299 401 292 421.5 c 128,-1,45
 285 442 285 442 266 460 c 0,46,47
 232 489 232 489 193.5 524 c 128,-1,48
 155 559 155 559 122.5 602 c 128,-1,49
 90 645 90 645 68 697 c 128,-1,50
 46 749 46 749 45 812 c 0,51,52
 45 860 45 860 61.5 916 c 128,-1,53
 78 972 78 972 110.5 1019 c 128,-1,54
 143 1066 143 1066 191 1097.5 c 128,-1,55
 239 1129 239 1129 301 1129 c 0,56,57
 348 1129 348 1129 389.5 1117 c 128,-1,58
 431 1105 431 1105 464 1080 c 128,-1,59
 497 1055 497 1055 520.5 1016.5 c 128,-1,60
 544 978 544 978 556 926 c 0,61,62
 563 895 563 895 562.5 856.5 c 128,-1,63
 562 818 562 818 551 784 c 128,-1,64
 540 750 540 750 515.5 726 c 128,-1,65
 491 702 491 702 451 700 c 0,12,13
EndSplineSet
EndChar

StartChar: hamza
Encoding: 193 1569 45
Width: 756
GlyphClass: 2
Flags: W
AnchorPoint: "Cursive-96" 600 0 entry 0
AnchorPoint: "Cursive-95" 600 0 entry 0
AnchorPoint: "Anchor-16" 325 -175 basechar 0
AnchorPoint: "Anchor-15" 0 0 basechar 0
AnchorPoint: "Anchor-14" 100 1400 basechar 0
AnchorPoint: "Anchor-13" 75 1650 basechar 0
AnchorPoint: "Anchor-12" 350 -75 basechar 0
AnchorPoint: "Anchor-11" 300 800 basechar 0
AnchorPoint: "Anchor-10" 300 795 basechar 0
AnchorPoint: "Anchor-9" 300 700 basechar 0
AnchorPoint: "Anchor-8" 275 800 basechar 0
LayerCount: 2
Fore
SplineSet
147 99 m 0,0,1
 162 114 162 114 198 131 c 0,2,3
 215 139 215 139 229.5 146.5 c 128,-1,4
 244 154 244 154 255 160 c 1,5,6
 223 189 223 189 199 217 c 128,-1,7
 175 245 175 245 161 285 c 0,8,9
 148 325 148 325 167 359 c 0,10,11
 186 392 186 392 214 426 c 128,-1,12
 242 460 242 460 276.5 488.5 c 128,-1,13
 311 517 311 517 350 535 c 128,-1,14
 389 553 389 553 429 553 c 0,15,16
 447 553 447 553 460.5 543 c 128,-1,17
 474 533 474 533 484.5 518 c 128,-1,18
 495 503 495 503 502.5 486.5 c 128,-1,19
 510 470 510 470 515 457 c 0,20,21
 526 425 526 425 513 406 c 0,22,23
 511 400 511 400 505 387 c 128,-1,24
 499 374 499 374 491 361.5 c 128,-1,25
 483 349 483 349 474 339.5 c 128,-1,26
 465 330 465 330 456 330 c 0,27,28
 448 330 448 330 444 335.5 c 128,-1,29
 440 341 440 341 437 349.5 c 128,-1,30
 434 358 434 358 432 367.5 c 128,-1,31
 430 377 430 377 427 385 c 0,32,33
 419 404 419 404 402.5 415 c 128,-1,34
 386 426 386 426 366 424 c 0,35,36
 302 423 302 423 251 379 c 1,37,38
 267 331 267 331 310 288 c 0,39,40
 352 246 352 246 405 240 c 0,41,42
 470 230 470 230 536.5 242 c 128,-1,43
 603 254 603 254 669 269 c 0,44,45
 671 267 671 267 665 247.5 c 128,-1,46
 659 228 659 228 650 205.5 c 128,-1,47
 641 183 641 183 632 164 c 128,-1,48
 623 145 623 145 620 144 c 0,49,50
 560 137 560 137 501 124 c 128,-1,51
 442 111 442 111 382 94 c 0,52,53
 353 84 353 84 318.5 71.5 c 128,-1,54
 284 59 284 59 246 43 c 0,55,56
 209 28 209 28 176 13 c 128,-1,57
 143 -2 143 -2 114 -16 c 1,58,59
 104 -16 104 -16 100 -6 c 1,60,61
 104 21 104 21 117 48.5 c 128,-1,62
 130 76 130 76 147 99 c 0,0,1
EndSplineSet
EndChar

StartChar: arabicalef
Encoding: 199 1575 51
Width: 351
GlyphClass: 2
Flags: W
AnchorPoint: "Cursive-95" 300 0 entry 0
AnchorPoint: "Anchor-16" 225 -100 basechar 0
AnchorPoint: "Anchor-15" 150 1400 basechar 0
AnchorPoint: "Anchor-14" 150 1455 basechar 0
AnchorPoint: "Anchor-13" 150 1750 basechar 0
AnchorPoint: "Anchor-12" 225 -300 basechar 0
AnchorPoint: "Anchor-11" 150 1350 basechar 0
AnchorPoint: "Anchor-10" 150 1470 basechar 0
AnchorPoint: "Anchor-9" 180 1380 basechar 0
AnchorPoint: "Anchor-8" 150 1350 basechar 0
LayerCount: 2
Fore
SplineSet
147 1298 m 1,0,1
 154 1298 154 1298 157 1293.5 c 128,-1,2
 160 1289 160 1289 161.5 1283 c 128,-1,3
 163 1277 163 1277 163 1271 c 128,-1,4
 163 1265 163 1265 163 1261 c 0,5,6
 161 1223 161 1223 164.5 1187 c 128,-1,7
 168 1151 168 1151 172 1114 c 0,8,9
 183 1025 183 1025 196 930.5 c 128,-1,10
 209 836 209 836 222 740 c 128,-1,11
 235 644 235 644 248 549 c 128,-1,12
 261 454 261 454 272 364 c 0,13,14
 276 329 276 329 277 282 c 128,-1,15
 278 235 278 235 275 186.5 c 128,-1,16
 272 138 272 138 264.5 93 c 128,-1,17
 257 48 257 48 243 18 c 0,18,19
 237 -2 237 -2 225 -3 c 0,20,21
 218 -3 218 -3 216 5 c 0,22,23
 210 93 210 93 201 181 c 128,-1,24
 192 269 192 269 179 360 c 0,25,26
 153 551 153 551 127.5 735 c 128,-1,27
 102 919 102 919 79 1108 c 1,28,29
 82 1159 82 1159 104 1206 c 0,30,31
 116 1235 116 1235 126 1257.5 c 128,-1,32
 136 1280 136 1280 147 1298 c 1,0,1
EndSplineSet
Substitution2: "Single Substitution lookup 43 subtable" arabicalef.calt
Substitution2: "'fina' Terminal Forms in Arabic lookup 2 subtable" uniFE8E
EndChar

StartChar: hah
Encoding: 205 1581 57
Width: 1279
GlyphClass: 2
Flags: W
AnchorPoint: "Anchor-16" 0 0 basechar 0
AnchorPoint: "Anchor-15" 0 0 basechar 0
AnchorPoint: "Anchor-14" 350 1400 basechar 0
AnchorPoint: "Anchor-13" 150 1550 basechar 0
AnchorPoint: "Anchor-12" 775 50 basechar 0
AnchorPoint: "Anchor-11" 600 950 basechar 0
AnchorPoint: "Anchor-10" 525 1035 basechar 0
AnchorPoint: "Anchor-9" 495 930 basechar 0
AnchorPoint: "Anchor-8" 550 1000 basechar 0
LayerCount: 2
Fore
SplineSet
281 704 m 0,0,1
 321 705 321 705 365.5 698.5 c 128,-1,2
 410 692 410 692 457.5 683 c 128,-1,3
 505 674 505 674 555 666 c 128,-1,4
 605 658 605 658 658 656 c 0,5,6
 749 650 749 650 837.5 654 c 128,-1,7
 926 658 926 658 1017 667 c 0,8,9
 1026 668 1026 668 1025 662 c 0,10,11
 1019 644 1019 644 1011 622 c 128,-1,12
 1003 600 1003 600 994.5 578.5 c 128,-1,13
 986 557 986 557 977.5 538 c 128,-1,14
 969 519 969 519 962 506 c 1,15,16
 888 500 888 500 810.5 484.5 c 128,-1,17
 733 469 733 469 657 443 c 128,-1,18
 581 417 581 417 510.5 380 c 128,-1,19
 440 343 440 343 380 294 c 0,20,21
 262 194 262 194 201 67.5 c 128,-1,22
 140 -59 140 -59 140 -221 c 0,23,24
 140 -308 140 -308 172 -385.5 c 128,-1,25
 204 -463 204 -463 257 -526 c 128,-1,26
 310 -589 310 -589 378.5 -634 c 128,-1,27
 447 -679 447 -679 521 -701 c 0,28,29
 618 -730 618 -730 718 -739.5 c 128,-1,30
 818 -749 818 -749 909 -746 c 0,31,32
 955 -745 955 -745 1006.5 -740.5 c 128,-1,33
 1058 -736 1058 -736 1110.5 -730.5 c 128,-1,34
 1163 -725 1163 -725 1214 -721 c 128,-1,35
 1265 -717 1265 -717 1312 -717 c 0,36,37
 1324 -717 1324 -717 1324.5 -724 c 128,-1,38
 1325 -731 1325 -731 1319 -739 c 128,-1,39
 1313 -747 1313 -747 1303.5 -754.5 c 128,-1,40
 1294 -762 1294 -762 1285 -763 c 0,41,42
 1226 -774 1226 -774 1170.5 -794.5 c 128,-1,43
 1115 -815 1115 -815 1059.5 -836.5 c 128,-1,44
 1004 -858 1004 -858 947.5 -875.5 c 128,-1,45
 891 -893 891 -893 830 -897 c 0,46,47
 734 -904 734 -904 641 -893.5 c 128,-1,48
 548 -883 548 -883 463.5 -853.5 c 128,-1,49
 379 -824 379 -824 307 -774.5 c 128,-1,50
 235 -725 235 -725 182.5 -652.5 c 128,-1,51
 130 -580 130 -580 100.5 -484.5 c 128,-1,52
 71 -389 71 -389 71 -268 c 0,53,54
 71 -150 71 -150 99 -32.5 c 128,-1,55
 127 85 127 85 180 189 c 128,-1,56
 233 293 233 293 309 378 c 128,-1,57
 385 463 385 463 481 516 c 1,58,59
 481 521 481 521 466 523 c 0,60,61
 421 529 421 529 371.5 534.5 c 128,-1,62
 322 540 322 540 273 536.5 c 128,-1,63
 224 533 224 533 178.5 516.5 c 128,-1,64
 133 500 133 500 96 462 c 0,65,66
 92 458 92 458 83.5 457.5 c 128,-1,67
 75 457 75 457 77 471 c 0,68,69
 84 518 84 518 99.5 559.5 c 128,-1,70
 115 601 115 601 139.5 632.5 c 128,-1,71
 164 664 164 664 199 683 c 128,-1,72
 234 702 234 702 281 704 c 0,0,1
EndSplineSet
Substitution2: "'fina' Terminal Forms in Arabic lookup 2 subtable" uniFEA2
Substitution2: "'medi' Medial Forms in Arabic lookup 1 subtable" uniFEA4
Substitution2: "'init' Initial Forms in Arabic lookup 0 subtable" uniFEA3
EndChar

StartChar: dal
Encoding: 207 1583 59
Width: 755
GlyphClass: 2
Flags: W
AnchorPoint: "Cursive-96" 675 0 entry 0
AnchorPoint: "Cursive-95" 675 0 entry 0
AnchorPoint: "Anchor-16" 325 -250 basechar 0
AnchorPoint: "Anchor-15" 0 0 basechar 0
AnchorPoint: "Anchor-14" 150 1400 basechar 0
AnchorPoint: "Anchor-13" 150 1600 basechar 0
AnchorPoint: "Anchor-12" 350 -150 basechar 0
AnchorPoint: "Anchor-11" 400 1050 basechar 0
AnchorPoint: "Anchor-10" 300 930 basechar 0
AnchorPoint: "Anchor-9" 285 900 basechar 0
AnchorPoint: "Anchor-8" 325 1050 basechar 0
LayerCount: 2
Fore
SplineSet
272 597 m 1,0,1
 272 629 272 629 271.5 660.5 c 128,-1,2
 271 692 271 692 277 732 c 0,3,4
 280 748 280 748 291.5 750 c 128,-1,5
 303 752 303 752 317 747 c 0,6,7
 384 727 384 727 444.5 678 c 128,-1,8
 505 629 505 629 551.5 566 c 128,-1,9
 598 503 598 503 627.5 432.5 c 128,-1,10
 657 362 657 362 663 299 c 0,11,12
 665 275 665 275 662.5 244 c 128,-1,13
 660 213 660 213 654 183 c 128,-1,14
 648 153 648 153 638.5 128.5 c 128,-1,15
 629 104 629 104 616 94 c 0,16,17
 582 67 582 67 531 48 c 128,-1,18
 480 29 480 29 422.5 17 c 128,-1,19
 365 5 365 5 306 -0.5 c 128,-1,20
 247 -6 247 -6 196 -6 c 0,21,22
 184 -6 184 -6 166 -4 c 128,-1,23
 148 -2 148 -2 130.5 3 c 128,-1,24
 113 8 113 8 101 18 c 128,-1,25
 89 28 89 28 89 44 c 0,26,27
 89 50 89 50 90 73 c 128,-1,28
 91 96 91 96 92.5 121.5 c 128,-1,29
 94 147 94 147 97 167 c 128,-1,30
 100 187 100 187 105 187 c 0,31,32
 108 187 108 187 110 183 c 128,-1,33
 112 179 112 179 116 176 c 0,34,35
 132 164 132 164 156.5 158.5 c 128,-1,36
 181 153 181 153 208 151.5 c 128,-1,37
 235 150 235 150 261 151 c 128,-1,38
 287 152 287 152 307 153 c 0,39,40
 342 155 342 155 379.5 160.5 c 128,-1,41
 417 166 417 166 453 174 c 128,-1,42
 489 182 489 182 521 192.5 c 128,-1,43
 553 203 553 203 576 215 c 0,44,45
 586 220 586 220 595 227.5 c 128,-1,46
 604 235 604 235 606 241 c 0,47,48
 597 294 597 294 564.5 352 c 128,-1,49
 532 410 532 410 485.5 460.5 c 128,-1,50
 439 511 439 511 383 548.5 c 128,-1,51
 327 586 327 586 272 597 c 1,0,1
EndSplineSet
Substitution2: "Single Substitution lookup 52 subtable" dal.zz26
Substitution2: "Single Substitution lookup 40 subtable" dal.zz03
Substitution2: "Single Substitution lookup 39 subtable" meem_afii57456_uni06E2
Substitution2: "'fina' Terminal Forms in Arabic lookup 2 subtable" uniFEAA
EndChar

StartChar: reh
Encoding: 209 1585 61
Width: 790
GlyphClass: 2
Flags: W
AnchorPoint: "Cursive-95" 0 0 exit 0
AnchorPoint: "Cursive-95" 800 0 entry 0
AnchorPoint: "Anchor-16" 350 -825 basechar 0
AnchorPoint: "Anchor-15" 0 0 basechar 0
AnchorPoint: "Anchor-14" 200 1350 basechar 0
AnchorPoint: "Anchor-13" 75 1575 basechar 0
AnchorPoint: "Anchor-12" 325 -625 basechar 0
AnchorPoint: "Anchor-11" 375 875 basechar 0
AnchorPoint: "Anchor-10" 405 810 basechar 0
AnchorPoint: "Anchor-9" 345 675 basechar 0
AnchorPoint: "Anchor-8" 325 875 basechar 0
LayerCount: 2
Fore
SplineSet
474 431 m 2,0,1
 479 446 479 446 494 431 c 0,2,3
 534 393 534 393 567.5 341 c 128,-1,4
 601 289 601 289 625 232 c 0,5,6
 648 174 648 174 658.5 113.5 c 128,-1,7
 669 53 669 53 663 -2 c 0,8,9
 655 -71 655 -71 625.5 -149.5 c 128,-1,10
 596 -228 596 -228 550 -300 c 0,11,12
 505 -372 505 -372 446 -426 c 128,-1,13
 387 -480 387 -480 321 -502 c 0,14,15
 267 -520 267 -520 208.5 -526 c 128,-1,16
 150 -532 150 -532 92 -529 c 128,-1,17
 34 -526 34 -526 -21 -515 c 128,-1,18
 -76 -504 -76 -504 -122 -488 c 0,19,20
 -134 -484 -134 -484 -137.5 -476.5 c 128,-1,21
 -141 -469 -141 -469 -138.5 -462 c 128,-1,22
 -136 -455 -136 -455 -128.5 -450 c 128,-1,23
 -121 -445 -121 -445 -111 -446 c 0,24,25
 -26 -451 -26 -451 32 -446 c 128,-1,26
 90 -441 90 -441 136.5 -427 c 128,-1,27
 183 -413 183 -413 224.5 -390 c 128,-1,28
 266 -367 266 -367 317 -337 c 0,29,30
 365 -309 365 -309 408 -272 c 128,-1,31
 451 -235 451 -235 489 -190 c 0,32,33
 567 -99 567 -99 608 5 c 1,34,35
 604 35 604 35 584.5 74 c 128,-1,36
 565 113 565 113 539 155 c 0,37,38
 514 195 514 195 487 230.5 c 128,-1,39
 460 266 460 266 441 287 c 1,40,-1
 474 431 l 2,0,1
EndSplineSet
Substitution2: "Single Substitution lookup 40 subtable" reh.zz03
Substitution2: "Single Substitution lookup 39 subtable" reh.calt
Substitution2: "'fina' Terminal Forms in Arabic lookup 2 subtable" uniFEAE
EndChar

StartChar: seen
Encoding: 211 1587 63
Width: 1788
GlyphClass: 2
Flags: W
AnchorPoint: "Cursive-95" 1650 0 entry 0
AnchorPoint: "Anchor-16" 0 0 basechar 0
AnchorPoint: "Anchor-15" 0 0 basechar 0
AnchorPoint: "Anchor-14" 400 1400 basechar 0
AnchorPoint: "Anchor-13" 400 1200 basechar 0
AnchorPoint: "Anchor-12" 1350 -125 basechar 0
AnchorPoint: "Anchor-11" 1200 1000 basechar 0
AnchorPoint: "Anchor-10" 1170 870 basechar 0
AnchorPoint: "Anchor-9" 1080 750 basechar 0
AnchorPoint: "Anchor-8" 1175 1000 basechar 0
LayerCount: 2
Fore
SplineSet
971 251 m 1,0,1
 996 233 996 233 1032 226.5 c 128,-1,2
 1068 220 1068 220 1105.5 222 c 128,-1,3
 1143 224 1143 224 1178.5 233.5 c 128,-1,4
 1214 243 1214 243 1239 257 c 0,5,6
 1263 272 1263 272 1280.5 289.5 c 128,-1,7
 1298 307 1298 307 1312.5 328.5 c 128,-1,8
 1327 350 1327 350 1340 376.5 c 128,-1,9
 1353 403 1353 403 1367 436 c 0,10,11
 1371 446 1371 446 1379 452.5 c 128,-1,12
 1387 459 1387 459 1394.5 460 c 128,-1,13
 1402 461 1402 461 1406.5 456 c 128,-1,14
 1411 451 1411 451 1408 438 c 0,15,16
 1402 412 1402 412 1395.5 390 c 128,-1,17
 1389 368 1389 368 1378 337 c 1,18,19
 1383 318 1383 318 1409.5 296 c 128,-1,20
 1436 274 1436 274 1473 258.5 c 128,-1,21
 1510 243 1510 243 1553 238 c 128,-1,22
 1596 233 1596 233 1634 248 c 1,23,24
 1634 286 1634 286 1629.5 318.5 c 128,-1,25
 1625 351 1625 351 1612 391 c 1,26,27
 1624 421 1624 421 1639 450.5 c 128,-1,28
 1654 480 1654 480 1671 509 c 0,29,30
 1678 522 1678 522 1683 511 c 0,31,32
 1695 472 1695 472 1701 438 c 128,-1,33
 1707 404 1707 404 1708 372.5 c 128,-1,34
 1709 341 1709 341 1704.5 310 c 128,-1,35
 1700 279 1700 279 1691 245 c 0,36,37
 1685 221 1685 221 1676 196.5 c 128,-1,38
 1667 172 1667 172 1653.5 151 c 128,-1,39
 1640 130 1640 130 1622.5 115 c 128,-1,40
 1605 100 1605 100 1583 94 c 0,41,42
 1547 85 1547 85 1509.5 89 c 128,-1,43
 1472 93 1472 93 1437.5 108.5 c 128,-1,44
 1403 124 1403 124 1372.5 150.5 c 128,-1,45
 1342 177 1342 177 1319 212 c 1,46,47
 1258 133 1258 133 1185.5 98.5 c 128,-1,48
 1113 64 1113 64 1019 70 c 1,49,50
 1026 22 1026 22 1027 -28 c 128,-1,51
 1028 -78 1028 -78 1020.5 -126.5 c 128,-1,52
 1013 -175 1013 -175 996 -220.5 c 128,-1,53
 979 -266 979 -266 951 -305 c 0,54,55
 909 -362 909 -362 852 -404.5 c 128,-1,56
 795 -447 795 -447 730 -474.5 c 128,-1,57
 665 -502 665 -502 594.5 -516 c 128,-1,58
 524 -530 524 -530 455 -530 c 0,59,60
 375 -530 375 -530 305.5 -505 c 128,-1,61
 236 -480 236 -480 184 -433 c 128,-1,62
 132 -386 132 -386 102.5 -318.5 c 128,-1,63
 73 -251 73 -251 73 -165 c 0,64,65
 72 -71 72 -71 103.5 16.5 c 128,-1,66
 135 104 135 104 187 182 c 0,67,68
 193 191 193 191 197.5 190.5 c 128,-1,69
 202 190 202 190 205 185 c 128,-1,70
 208 180 208 180 209 174 c 128,-1,71
 210 168 210 168 209 165 c 0,72,73
 161 72 161 72 149 -23 c 128,-1,74
 137 -118 137 -118 167 -196 c 0,75,76
 182 -235 182 -235 207 -267.5 c 128,-1,77
 232 -300 232 -300 269 -323 c 128,-1,78
 306 -346 306 -346 355 -359 c 128,-1,79
 404 -372 404 -372 466 -372 c 0,80,81
 535 -371 535 -371 607.5 -358 c 128,-1,82
 680 -345 680 -345 746.5 -317 c 128,-1,83
 813 -289 813 -289 869.5 -245.5 c 128,-1,84
 926 -202 926 -202 964 -140 c 1,85,86
 964 -86 964 -86 953.5 -37.5 c 128,-1,87
 943 11 943 11 925 56.5 c 128,-1,88
 907 102 907 102 883 146.5 c 128,-1,89
 859 191 859 191 832 236 c 1,90,91
 843 272 843 272 849 305.5 c 128,-1,92
 855 339 855 339 867 374 c 0,93,94
 870 382 870 382 875.5 381.5 c 128,-1,95
 881 381 881 381 886 374 c 0,96,97
 910 340 910 340 930.5 310 c 128,-1,98
 951 280 951 280 971 251 c 1,0,1
EndSplineSet
Substitution2: "'fina' Terminal Forms in Arabic lookup 2 subtable" uniFEB2
Substitution2: "'medi' Medial Forms in Arabic lookup 1 subtable" uniFEB4
Substitution2: "'init' Initial Forms in Arabic lookup 0 subtable" uniFEB3
EndChar

StartChar: sad
Encoding: 213 1589 65
Width: 2010
GlyphClass: 2
Flags: W
AnchorPoint: "Cursive-95" 1875 0 entry 0
AnchorPoint: "Anchor-16" 0 0 basechar 0
AnchorPoint: "Anchor-15" 0 0 basechar 0
AnchorPoint: "Anchor-14" 400 1400 basechar 0
AnchorPoint: "Anchor-13" 400 1200 basechar 0
AnchorPoint: "Anchor-12" 1400 -125 basechar 0
AnchorPoint: "Anchor-11" 1350 1000 basechar 0
AnchorPoint: "Anchor-10" 1215 960 basechar 0
AnchorPoint: "Anchor-9" 1200 885 basechar 0
AnchorPoint: "Anchor-8" 1300 1000 basechar 0
LayerCount: 2
Fore
SplineSet
1842 384 m 1,0,1
 1821 426 1821 426 1782 455.5 c 128,-1,2
 1743 485 1743 485 1697 500.5 c 128,-1,3
 1651 516 1651 516 1603.5 517 c 128,-1,4
 1556 518 1556 518 1518 504 c 0,5,6
 1466 484 1466 484 1418 453 c 128,-1,7
 1370 422 1370 422 1326 384.5 c 128,-1,8
 1282 347 1282 347 1242 305 c 128,-1,9
 1202 263 1202 263 1166 220 c 1,10,11
 1212 212 1212 212 1271 211.5 c 128,-1,12
 1330 211 1330 211 1394.5 218 c 128,-1,13
 1459 225 1459 225 1524.5 239 c 128,-1,14
 1590 253 1590 253 1649.5 274 c 128,-1,15
 1709 295 1709 295 1759 322.5 c 128,-1,16
 1809 350 1809 350 1842 384 c 1,0,1
1080 228 m 1,17,18
 1128 289 1128 289 1179 346.5 c 128,-1,19
 1230 404 1230 404 1285.5 456 c 128,-1,20
 1341 508 1341 508 1402 554 c 128,-1,21
 1463 600 1463 600 1532 638 c 0,22,23
 1565 656 1565 656 1607 661 c 128,-1,24
 1649 666 1649 666 1693 660 c 128,-1,25
 1737 654 1737 654 1779 638 c 128,-1,26
 1821 622 1821 622 1854.5 597.5 c 128,-1,27
 1888 573 1888 573 1909.5 541.5 c 128,-1,28
 1931 510 1931 510 1933 473 c 0,29,30
 1928 366 1928 366 1879.5 291.5 c 128,-1,31
 1831 217 1831 217 1754.5 168.5 c 128,-1,32
 1678 120 1678 120 1581 94.5 c 128,-1,33
 1484 69 1484 69 1382 60 c 0,34,35
 1291 52 1291 52 1200 54.5 c 128,-1,36
 1109 57 1109 57 1021 80 c 1,37,38
 1029 28 1029 28 1029 -25.5 c 128,-1,39
 1029 -79 1029 -79 1020.5 -129 c 128,-1,40
 1012 -179 1012 -179 996 -223 c 128,-1,41
 980 -267 980 -267 956 -300 c 0,42,43
 914 -357 914 -357 857 -399.5 c 128,-1,44
 800 -442 800 -442 734 -471 c 128,-1,45
 668 -500 668 -500 597 -514.5 c 128,-1,46
 526 -529 526 -529 457 -529 c 0,47,48
 372 -529 372 -529 301.5 -503.5 c 128,-1,49
 231 -478 231 -478 180.5 -430 c 128,-1,50
 130 -382 130 -382 102 -314 c 128,-1,51
 74 -246 74 -246 74 -160 c 0,52,53
 74 -66 74 -66 104.5 24 c 128,-1,54
 135 114 135 114 189 192 c 0,55,56
 195 201 195 201 199.5 200.5 c 128,-1,57
 204 200 204 200 207 195.5 c 128,-1,58
 210 191 210 191 211 184.5 c 128,-1,59
 212 178 212 178 211 175 c 0,60,61
 188 129 188 129 173 80 c 128,-1,62
 158 31 158 31 152 -17 c 128,-1,63
 146 -65 146 -65 150 -110 c 128,-1,64
 154 -155 154 -155 169 -194 c 256,65,66
 184 -233 184 -233 209 -265.5 c 128,-1,67
 234 -298 234 -298 271 -321.5 c 128,-1,68
 308 -345 308 -345 357 -358 c 128,-1,69
 406 -371 406 -371 468 -370 c 0,70,71
 538 -369 538 -369 610 -355 c 128,-1,72
 682 -341 682 -341 748 -312.5 c 128,-1,73
 814 -284 814 -284 870 -240.5 c 128,-1,74
 926 -197 926 -197 963 -138 c 1,75,76
 963 -85 963 -85 953 -34 c 128,-1,77
 943 17 943 17 926.5 65.5 c 128,-1,78
 910 114 910 114 888 160 c 128,-1,79
 866 206 866 206 842 250 c 1,80,81
 851 287 851 287 861.5 320 c 128,-1,82
 872 353 872 353 886 392 c 0,83,84
 889 400 889 400 895 399.5 c 128,-1,85
 901 399 901 399 906 392 c 0,86,87
 930 359 930 359 948 330.5 c 128,-1,88
 966 302 966 302 986 270 c 1,89,90
 1004 260 1004 260 1032 247 c 128,-1,91
 1060 234 1060 234 1080 228 c 1,17,18
EndSplineSet
Substitution2: "'fina' Terminal Forms in Arabic lookup 2 subtable" uniFEBA
Substitution2: "'medi' Medial Forms in Arabic lookup 1 subtable" uniFEBC
Substitution2: "'init' Initial Forms in Arabic lookup 0 subtable" uniFEBB
EndChar

StartChar: tah
Encoding: 215 1591 67
Width: 1427
GlyphClass: 2
Flags: W
AnchorPoint: "Cursive-95" 1325 0 entry 0
AnchorPoint: "Anchor-16" 0 0 basechar 0
AnchorPoint: "Anchor-15" 0 0 basechar 0
AnchorPoint: "Anchor-14" 400 1500 basechar 0
AnchorPoint: "Anchor-13" 200 1450 basechar 0
AnchorPoint: "Anchor-12" 750 -150 basechar 0
AnchorPoint: "Anchor-11" 1125 950 basechar 0
AnchorPoint: "Anchor-10" 900 1260 basechar 0
AnchorPoint: "Anchor-9" 810 1080 basechar 0
AnchorPoint: "Anchor-8" 1025 900 basechar 0
LayerCount: 2
Fore
SplineSet
111 171 m 0,0,1
 160 163 160 163 202.5 158 c 128,-1,2
 245 153 245 153 286 150 c 128,-1,3
 327 147 327 147 368.5 146.5 c 128,-1,4
 410 146 410 146 458 147 c 1,5,-1
 624 309 l 1,6,7
 639 333 639 333 643.5 383.5 c 128,-1,8
 648 434 648 434 645 499 c 128,-1,9
 642 564 642 564 633.5 639.5 c 128,-1,10
 625 715 625 715 614 790.5 c 128,-1,11
 603 866 603 866 592 935.5 c 128,-1,12
 581 1005 581 1005 573 1059 c 0,13,14
 567 1096 567 1096 557 1135 c 128,-1,15
 547 1174 547 1174 528 1205 c 0,16,17
 520 1216 520 1216 519 1219.5 c 128,-1,18
 518 1223 518 1223 524 1236 c 0,19,20
 541 1264 541 1264 555.5 1295 c 128,-1,21
 570 1326 570 1326 584 1352 c 0,22,23
 588 1360 588 1360 593 1362 c 128,-1,24
 598 1364 598 1364 600 1352 c 0,25,26
 616 1304 616 1304 641 1258 c 128,-1,27
 666 1212 666 1212 712 1184 c 1,28,29
 698 1160 698 1160 687 1142.5 c 128,-1,30
 676 1125 676 1125 669 1111 c 128,-1,31
 662 1097 662 1097 659 1083.5 c 128,-1,32
 656 1070 656 1070 658 1054 c 0,33,34
 670 988 670 988 683 910.5 c 128,-1,35
 696 833 696 833 703 745 c 128,-1,36
 710 657 710 657 707.5 559 c 128,-1,37
 705 461 705 461 686 355 c 1,38,39
 715 380 715 380 747.5 408 c 128,-1,40
 780 436 780 436 814 463 c 128,-1,41
 848 490 848 490 883.5 513.5 c 128,-1,42
 919 537 919 537 955 554 c 0,43,44
 990 571 990 571 1031.5 576.5 c 128,-1,45
 1073 582 1073 582 1115 578 c 128,-1,46
 1157 574 1157 574 1197 561 c 128,-1,47
 1237 548 1237 548 1269 528 c 128,-1,48
 1301 508 1301 508 1323.5 481.5 c 128,-1,49
 1346 455 1346 455 1353 424 c 1,50,51
 1347 343 1347 343 1310 278 c 128,-1,52
 1273 213 1273 213 1213 171 c 0,53,54
 1135 117 1135 117 1031 81.5 c 128,-1,55
 927 46 927 46 815 26 c 128,-1,56
 703 6 703 6 592 0.5 c 128,-1,57
 481 -5 481 -5 389 1 c 0,58,59
 354 3 354 3 313 18 c 128,-1,60
 272 33 272 33 231.5 54 c 128,-1,61
 191 75 191 75 154 99 c 128,-1,62
 117 123 117 123 89 144 c 0,63,64
 72 156 72 156 86 164 c 0,65,66
 99 173 99 173 111 171 c 0,0,1
1255 330 m 1,67,68
 1227 362 1227 362 1188.5 385 c 128,-1,69
 1150 408 1150 408 1107.5 421 c 128,-1,70
 1065 434 1065 434 1021 436 c 128,-1,71
 977 438 977 438 938 428 c 0,72,73
 888 415 888 415 840.5 387 c 128,-1,74
 793 359 793 359 745.5 321 c 128,-1,75
 698 283 698 283 649.5 237.5 c 128,-1,76
 601 192 601 192 549 144 c 1,77,78
 630 148 630 148 726 158.5 c 128,-1,79
 822 169 822 169 918 190 c 128,-1,80
 1014 211 1014 211 1102 245 c 128,-1,81
 1190 279 1190 279 1255 330 c 1,67,68
EndSplineSet
Substitution2: "'fina' Terminal Forms in Arabic lookup 2 subtable" uniFEC2
Substitution2: "'medi' Medial Forms in Arabic lookup 1 subtable" uniFEC4
Substitution2: "'init' Initial Forms in Arabic lookup 0 subtable" uniFEC3
EndChar

StartChar: ain
Encoding: 217 1593 69
Width: 1226
GlyphClass: 2
Flags: W
AnchorPoint: "Cursive-95" 1175 0 entry 0
AnchorPoint: "Anchor-16" 555 -1035 basechar 0
AnchorPoint: "Anchor-15" 390 1815 basechar 0
AnchorPoint: "Anchor-14" 400 1450 basechar 0
AnchorPoint: "Anchor-13" 225 1700 basechar 0
AnchorPoint: "Anchor-12" 725 50 basechar 0
AnchorPoint: "Anchor-11" 425 1200 basechar 0
AnchorPoint: "Anchor-10" 375 1275 basechar 0
AnchorPoint: "Anchor-9" 345 1200 basechar 0
AnchorPoint: "Anchor-8" 400 1225 basechar 0
LayerCount: 2
Fore
SplineSet
336 373 m 1,0,1
 280 398 280 398 230.5 426.5 c 128,-1,2
 181 455 181 455 145 492.5 c 128,-1,3
 109 530 109 530 89.5 578 c 128,-1,4
 70 626 70 626 75 689 c 0,5,6
 79 750 79 750 99 799.5 c 128,-1,7
 119 849 119 849 150.5 888 c 128,-1,8
 182 927 182 927 222 954.5 c 128,-1,9
 262 982 262 982 306 999 c 0,10,11
 348 1015 348 1015 394.5 1016.5 c 128,-1,12
 441 1018 441 1018 486.5 1008 c 128,-1,13
 532 998 532 998 575 978 c 128,-1,14
 618 958 618 958 654 931 c 0,15,16
 659 926 659 926 660.5 920 c 128,-1,17
 662 914 662 914 659.5 909 c 128,-1,18
 657 904 657 904 651.5 901 c 128,-1,19
 646 898 646 898 637 900 c 0,20,21
 614 906 614 906 584 912.5 c 128,-1,22
 554 919 554 919 526 921 c 0,23,24
 504 923 504 923 468.5 915 c 128,-1,25
 433 907 433 907 392 892.5 c 128,-1,26
 351 878 351 878 309 858 c 128,-1,27
 267 838 267 838 231.5 815.5 c 128,-1,28
 196 793 196 793 171 769.5 c 128,-1,29
 146 746 146 746 140 725 c 1,30,31
 149 692 149 692 182.5 656 c 128,-1,32
 216 620 216 620 261.5 589 c 128,-1,33
 307 558 307 558 357.5 538 c 128,-1,34
 408 518 408 518 452 518 c 0,35,36
 490 518 490 518 539 539.5 c 128,-1,37
 588 561 588 561 641.5 592 c 128,-1,38
 695 623 695 623 749 656.5 c 128,-1,39
 803 690 803 690 851 714 c 0,40,41
 861 718 861 718 868.5 717.5 c 128,-1,42
 876 717 876 717 880 707 c 1,43,44
 874 677 874 677 867 647 c 128,-1,45
 860 617 860 617 851 585 c 1,46,47
 775 542 775 542 692 493.5 c 128,-1,48
 609 445 609 445 528.5 388.5 c 128,-1,49
 448 332 448 332 375.5 266 c 128,-1,50
 303 200 303 200 249.5 122 c 128,-1,51
 196 44 196 44 166.5 -46.5 c 128,-1,52
 137 -137 137 -137 142 -243 c 0,53,54
 146 -327 146 -327 177 -401 c 128,-1,55
 208 -475 208 -475 258.5 -535 c 128,-1,56
 309 -595 309 -595 375.5 -638 c 128,-1,57
 442 -681 442 -681 517 -702 c 0,58,59
 614 -730 614 -730 715 -739 c 128,-1,60
 816 -748 816 -748 907 -746 c 0,61,62
 954 -745 954 -745 1004.5 -740 c 128,-1,63
 1055 -735 1055 -735 1105.5 -730 c 128,-1,64
 1156 -725 1156 -725 1206.5 -720.5 c 128,-1,65
 1257 -716 1257 -716 1304 -716 c 0,66,67
 1316 -716 1316 -716 1316.5 -723 c 128,-1,68
 1317 -730 1317 -730 1311 -738 c 128,-1,69
 1305 -746 1305 -746 1295.5 -753.5 c 128,-1,70
 1286 -761 1286 -761 1277 -762 c 0,71,72
 1218 -773 1218 -773 1163.5 -793 c 128,-1,73
 1109 -813 1109 -813 1054.5 -834 c 128,-1,74
 1000 -855 1000 -855 944.5 -872 c 128,-1,75
 889 -889 889 -889 829 -893 c 0,76,77
 665 -904 665 -904 527 -873 c 128,-1,78
 389 -842 389 -842 289 -767.5 c 128,-1,79
 189 -693 189 -693 132.5 -573 c 128,-1,80
 76 -453 76 -453 76 -286 c 0,81,82
 76 -197 76 -197 92.5 -106 c 128,-1,83
 109 -15 109 -15 142 71 c 128,-1,84
 175 157 175 157 223.5 234 c 128,-1,85
 272 311 272 311 336 373 c 1,0,1
EndSplineSet
Substitution2: "'fina' Terminal Forms in Arabic lookup 2 subtable" uniFECA
Substitution2: "'medi' Medial Forms in Arabic lookup 1 subtable" uniFECC
Substitution2: "'init' Initial Forms in Arabic lookup 0 subtable" uniFECB
EndChar

StartChar: tatweel
Encoding: 224 1600 71
Width: 650
GlyphClass: 2
Flags: W
AnchorPoint: "Anchor-16" 300 -350 basechar 0
AnchorPoint: "Anchor-15" 0 0 basechar 0
AnchorPoint: "Anchor-14" 0 0 basechar 0
AnchorPoint: "Anchor-13" 0 0 basechar 0
AnchorPoint: "Anchor-12" 325 -300 basechar 0
AnchorPoint: "Anchor-11" 325 900 basechar 0
AnchorPoint: "Anchor-10" 300 700 basechar 0
AnchorPoint: "Anchor-9" 210 540 basechar 0
AnchorPoint: "Anchor-8" 300 800 basechar 0
LayerCount: 2
Fore
SplineSet
2 157 m 2,0,-1
 650 157 l 2,1,2
 677 157 677 157 692.5 152.5 c 128,-1,3
 708 148 708 148 709 124 c 2,4,-1
 709 35 l 2,5,6
 709 18 709 18 696.5 9 c 128,-1,7
 684 0 684 0 650 0 c 2,8,-1
 -2 0 l 2,9,10
 -27 0 -27 0 -43 5.5 c 128,-1,11
 -59 11 -59 11 -59 37 c 2,12,-1
 -59 132 l 2,13,14
 -59 141 -59 141 -57 146 c 128,-1,15
 -55 151 -55 151 -48.5 153.5 c 128,-1,16
 -42 156 -42 156 -30 156.5 c 128,-1,17
 -18 157 -18 157 2 157 c 2,0,-1
EndSplineSet
EndChar

StartChar: feh
Encoding: 225 1601 72
Width: 1708
GlyphClass: 2
Flags: W
AnchorPoint: "Cursive-95" 1575 0 entry 0
AnchorPoint: "Anchor-16" 0 0 basechar 0
AnchorPoint: "Anchor-15" 0 0 basechar 0
AnchorPoint: "Anchor-14" 400 1400 basechar 0
AnchorPoint: "Anchor-13" 200 1500 basechar 0
AnchorPoint: "Anchor-12" 1200 -175 basechar 0
AnchorPoint: "Anchor-11" 1250 1100 basechar 0
AnchorPoint: "Anchor-10" 1185 1395 basechar 0
AnchorPoint: "Anchor-9" 1170 1320 basechar 0
AnchorPoint: "Anchor-8" 1250 1100 basechar 0
LayerCount: 2
Fore
SplineSet
1512 504 m 1,0,1
 1486 474 1486 474 1450.5 448.5 c 128,-1,2
 1415 423 1415 423 1373 418 c 0,3,4
 1343 415 1343 415 1312 423.5 c 128,-1,5
 1281 432 1281 432 1256 450 c 128,-1,6
 1231 468 1231 468 1215.5 494.5 c 128,-1,7
 1200 521 1200 521 1200 553 c 0,8,9
 1200 596 1200 596 1213 648 c 128,-1,10
 1226 700 1226 700 1248.5 745 c 128,-1,11
 1271 790 1271 790 1301 821 c 128,-1,12
 1331 852 1331 852 1366 854 c 0,13,14
 1409 857 1409 857 1452.5 826.5 c 128,-1,15
 1496 796 1496 796 1531.5 748.5 c 128,-1,16
 1567 701 1567 701 1590.5 644.5 c 128,-1,17
 1614 588 1614 588 1617 540 c 0,18,19
 1620 497 1620 497 1613 447.5 c 128,-1,20
 1606 398 1606 398 1593 353.5 c 128,-1,21
 1580 309 1580 309 1562 275.5 c 128,-1,22
 1544 242 1544 242 1526 231 c 0,23,24
 1435 177 1435 177 1327.5 134 c 128,-1,25
 1220 91 1220 91 1109.5 61 c 128,-1,26
 999 31 999 31 894 14.5 c 128,-1,27
 789 -2 789 -2 702 -3 c 0,28,29
 632 -5 632 -5 560 -2 c 128,-1,30
 488 1 488 1 420 13 c 128,-1,31
 352 25 352 25 291.5 49 c 128,-1,32
 231 73 231 73 184.5 113 c 128,-1,33
 138 153 138 153 108.5 211.5 c 128,-1,34
 79 270 79 270 73 351 c 0,35,36
 67 439 67 439 96 521.5 c 128,-1,37
 125 604 125 604 185 668 c 0,38,39
 196 676 196 676 204 666.5 c 128,-1,40
 212 657 212 657 208 645 c 0,41,42
 189 616 189 616 173.5 583 c 128,-1,43
 158 550 158 550 149.5 515 c 128,-1,44
 141 480 141 480 140.5 444.5 c 128,-1,45
 140 409 140 409 151 374 c 0,46,47
 169 316 169 316 207 277 c 128,-1,48
 245 238 245 238 296 212.5 c 128,-1,49
 347 187 347 187 407 174 c 128,-1,50
 467 161 467 161 528.5 156 c 128,-1,51
 590 151 590 151 648.5 152 c 128,-1,52
 707 153 707 153 756 156 c 0,53,54
 856 162 856 162 961 178.5 c 128,-1,55
 1066 195 1066 195 1168.5 222.5 c 128,-1,56
 1271 250 1271 250 1366.5 289.5 c 128,-1,57
 1462 329 1462 329 1543 381 c 1,58,59
 1545 390 1545 390 1543.5 408 c 128,-1,60
 1542 426 1542 426 1537.5 445.5 c 128,-1,61
 1533 465 1533 465 1526.5 481.5 c 128,-1,62
 1520 498 1520 498 1512 504 c 1,0,1
1453 632 m 0,63,64
 1444 641 1444 641 1432.5 651.5 c 128,-1,65
 1421 662 1421 662 1408.5 671.5 c 128,-1,66
 1396 681 1396 681 1382 687.5 c 128,-1,67
 1368 694 1368 694 1355 695 c 0,68,69
 1340 696 1340 696 1326.5 689 c 128,-1,70
 1313 682 1313 682 1303.5 670.5 c 128,-1,71
 1294 659 1294 659 1289 644.5 c 128,-1,72
 1284 630 1284 630 1285 617 c 0,73,74
 1291 598 1291 598 1312 587.5 c 128,-1,75
 1333 577 1333 577 1359 574.5 c 128,-1,76
 1385 572 1385 572 1411.5 577.5 c 128,-1,77
 1438 583 1438 583 1455 597 c 0,78,79
 1464 604 1464 604 1463 614 c 128,-1,80
 1462 624 1462 624 1453 632 c 0,63,64
EndSplineSet
Substitution2: "'fina' Terminal Forms in Arabic lookup 2 subtable" uniFED2
Substitution2: "'medi' Medial Forms in Arabic lookup 1 subtable" uniFED4
Substitution2: "'init' Initial Forms in Arabic lookup 0 subtable" uniFED3
EndChar

StartChar: qaf
Encoding: 226 1602 73
Width: 1124
GlyphClass: 2
Flags: W
AnchorPoint: "Anchor-43" 700 1175 basechar 0
AnchorPoint: "Anchor-44" 630 1230 basechar 0
AnchorPoint: "Anchor-45" 690 1200 basechar 0
AnchorPoint: "Anchor-46" 675 1150 basechar 0
AnchorPoint: "Anchor-47" 600 -400 basechar 0
AnchorPoint: "Anchor-48" 200 1600 basechar 0
AnchorPoint: "Anchor-49" 400 1200 basechar 0
AnchorPoint: "Anchor-14" 300 1400 basechar 0
AnchorPoint: "Anchor-13" 200 1600 basechar 0
AnchorPoint: "Anchor-12" 600 -400 basechar 0
AnchorPoint: "Anchor-11" 675 950 basechar 0
AnchorPoint: "Anchor-10" 690 1200 basechar 0
AnchorPoint: "Anchor-9" 630 1230 basechar 0
AnchorPoint: "Anchor-8" 675 850 basechar 0
LayerCount: 2
Fore
SplineSet
878 846 m 5,0,1
 867 839 867 839 858 844 c 6,2,-1
 738 934 l 5,3,-1
 665 828 l 6,4,5
 662 823 662 823 657 822.5 c 132,-1,6
 652 822 652 822 649 824 c 6,7,-1
 522 916 l 6,8,9
 513 922 513 922 518 928 c 6,10,-1
 595 1034 l 6,11,12
 602 1043 602 1043 610 1038 c 6,13,-1
 730 950 l 5,14,-1
 807 1054 l 6,15,16
 811 1059 811 1059 812.5 1059.5 c 132,-1,17
 814 1060 814 1060 819 1056 c 6,18,-1
 946 966 l 6,19,20
 953 961 953 961 946 951 c 6,21,-1
 878 846 l 5,0,1
794 497 m 4,22,23
 780 497 780 497 765.5 489 c 132,-1,24
 751 481 751 481 738.5 468.5 c 132,-1,25
 726 456 726 456 718 441.5 c 132,-1,26
 710 427 710 427 710 414 c 5,27,28
 725 391 725 391 749 380 c 132,-1,29
 773 369 773 369 798 370 c 132,-1,30
 823 371 823 371 846 384 c 132,-1,31
 869 397 869 397 882 421 c 5,32,33
 880 433 880 433 870.5 446.5 c 132,-1,34
 861 460 861 460 848 471 c 132,-1,35
 835 482 835 482 820.5 489.5 c 132,-1,36
 806 497 806 497 794 497 c 4,22,23
937 325 m 5,37,38
 913 279 913 279 872.5 247 c 132,-1,39
 832 215 832 215 781 215 c 4,40,41
 727 215 727 215 686.5 249 c 132,-1,42
 646 283 646 283 637 337 c 4,43,44
 631 375 631 375 642 429.5 c 132,-1,45
 653 484 653 484 677 538 c 260,46,47
 701 592 701 592 739 624.5 c 132,-1,48
 777 657 777 657 822 657 c 4,49,50
 852 657 852 657 880 635 c 132,-1,51
 908 613 908 613 931.5 582 c 132,-1,52
 955 551 955 551 972 516.5 c 132,-1,53
 989 482 989 482 999 457 c 4,54,55
 1028 378 1028 378 1036.5 300 c 132,-1,56
 1045 222 1045 222 1030 137 c 4,57,58
 1012 31 1012 31 956 -48.5 c 132,-1,59
 900 -128 900 -128 821 -181 c 260,60,61
 742 -234 742 -234 646.5 -260.5 c 132,-1,62
 551 -287 551 -287 453 -287 c 4,63,64
 370 -287 370 -287 299.5 -261.5 c 132,-1,65
 229 -236 229 -236 178 -188 c 132,-1,66
 127 -140 127 -140 98.5 -71.5 c 132,-1,67
 70 -3 70 -3 70 83 c 4,68,69
 70 177 70 177 100.5 261.5 c 132,-1,70
 131 346 131 346 185 425 c 4,71,72
 191 434 191 434 196 433.5 c 132,-1,73
 201 433 201 433 203.5 428.5 c 132,-1,74
 206 424 206 424 207 417.5 c 132,-1,75
 208 411 208 411 207 408 c 4,76,77
 165 312 165 312 148.5 223 c 132,-1,78
 132 134 132 134 164 48 c 4,79,80
 194 -29 194 -29 267 -78.5 c 132,-1,81
 340 -128 340 -128 463 -128 c 4,82,83
 542 -128 542 -128 616 -113 c 132,-1,84
 690 -98 690 -98 755 -67 c 260,85,86
 820 -36 820 -36 875 11 c 132,-1,87
 930 58 930 58 970 122 c 5,88,89
 976 141 976 141 976.5 169.5 c 132,-1,90
 977 198 977 198 973 227.5 c 132,-1,91
 969 257 969 257 960 283.5 c 132,-1,92
 951 310 951 310 937 325 c 5,37,38
EndSplineSet
Substitution2: "'fina' Terminal Forms in Arabic lookup 2 subtable" uniFED6
Substitution2: "'medi' Medial Forms in Arabic lookup 1 subtable" uniFED8
Substitution2: "'init' Initial Forms in Arabic lookup 0 subtable" uniFED7
EndChar

StartChar: arabickaf
Encoding: 227 1603 74
Width: 1940
GlyphClass: 2
Flags: W
AnchorPoint: "Cursive-96" 1675 0 entry 0
AnchorPoint: "Cursive-95" 1675 0 entry 0
AnchorPoint: "Anchor-16" 0 0 basechar 0
AnchorPoint: "Anchor-15" 0 0 basechar 0
AnchorPoint: "Anchor-14" 400 1400 basechar 0
AnchorPoint: "Anchor-13" 500 1600 basechar 0
AnchorPoint: "Anchor-12" 900 -200 basechar 0
AnchorPoint: "Anchor-11" 750 1050 basechar 0
AnchorPoint: "Anchor-10" 630 1140 basechar 0
AnchorPoint: "Anchor-9" 540 1095 basechar 0
AnchorPoint: "Anchor-8" 750 1050 basechar 0
LayerCount: 2
Fore
SplineSet
454 562 m 1,0,1
 459 547 459 547 478.5 536 c 128,-1,2
 498 525 498 525 526 517 c 128,-1,3
 554 509 554 509 587.5 504.5 c 128,-1,4
 621 500 621 500 654.5 497 c 128,-1,5
 688 494 688 494 718.5 493 c 128,-1,6
 749 492 749 492 771 492 c 0,7,8
 842 490 842 490 928.5 494 c 128,-1,9
 1015 498 1015 498 1108 503 c 128,-1,10
 1201 508 1201 508 1296.5 513.5 c 128,-1,11
 1392 519 1392 519 1482 520 c 0,12,13
 1547 520 1547 520 1611 512.5 c 128,-1,14
 1675 505 1675 505 1727 484.5 c 128,-1,15
 1779 464 1779 464 1814.5 428.5 c 128,-1,16
 1850 393 1850 393 1858 337 c 0,17,18
 1861 309 1861 309 1853 267.5 c 128,-1,19
 1845 226 1845 226 1829.5 187 c 128,-1,20
 1814 148 1814 148 1793 119 c 128,-1,21
 1772 90 1772 90 1750 87 c 0,22,23
 1638 70 1638 70 1527.5 57 c 128,-1,24
 1417 44 1417 44 1302 34 c 0,25,26
 1113 17 1113 17 930 11 c 128,-1,27
 747 5 747 5 557 5 c 0,28,29
 491 5 491 5 425.5 11 c 128,-1,30
 360 17 360 17 297.5 35 c 128,-1,31
 235 53 235 53 176.5 85.5 c 128,-1,32
 118 118 118 118 65 171 c 0,33,34
 60 176 60 176 56 185 c 128,-1,35
 52 194 52 194 53 201.5 c 128,-1,36
 54 209 54 209 60.5 213.5 c 128,-1,37
 67 218 67 218 83 215 c 0,38,39
 122 207 122 207 167.5 197.5 c 128,-1,40
 213 188 213 188 268.5 179 c 128,-1,41
 324 170 324 170 391 163.5 c 128,-1,42
 458 157 458 157 541 155 c 0,43,44
 616 153 616 153 701.5 153.5 c 128,-1,45
 787 154 787 154 874.5 156 c 128,-1,46
 962 158 962 158 1047 162 c 128,-1,47
 1132 166 1132 166 1207 171 c 0,48,49
 1347 180 1347 180 1482.5 196 c 128,-1,50
 1618 212 1618 212 1760 237 c 1,51,52
 1758 272 1758 272 1744.5 297 c 128,-1,53
 1731 322 1731 322 1708.5 339 c 128,-1,54
 1686 356 1686 356 1656 366.5 c 128,-1,55
 1626 377 1626 377 1591 383 c 0,56,57
 1557 387 1557 387 1507 387 c 128,-1,58
 1457 387 1457 387 1395.5 384.5 c 128,-1,59
 1334 382 1334 382 1264 377.5 c 128,-1,60
 1194 373 1194 373 1120 369.5 c 128,-1,61
 1046 366 1046 366 971 363 c 128,-1,62
 896 360 896 360 825 360 c 0,63,64
 787 359 787 359 737 360.5 c 128,-1,65
 687 362 687 362 634.5 366.5 c 128,-1,66
 582 371 582 371 531.5 379 c 128,-1,67
 481 387 481 387 441 399.5 c 128,-1,68
 401 412 401 412 376.5 429.5 c 128,-1,69
 352 447 352 447 352 470 c 0,70,71
 352 506 352 506 366 545.5 c 128,-1,72
 380 585 380 585 402.5 622.5 c 128,-1,73
 425 660 425 660 451.5 691.5 c 128,-1,74
 478 723 478 723 504 743 c 0,75,76
 607 828 607 828 723.5 886 c 128,-1,77
 840 944 840 944 979 973 c 0,78,79
 990 976 990 976 997 973.5 c 128,-1,80
 1004 971 1004 971 1007 966 c 128,-1,81
 1010 961 1010 961 1010.5 954.5 c 128,-1,82
 1011 948 1011 948 1009 943 c 0,83,84
 998 917 998 917 984 883.5 c 128,-1,85
 970 850 970 850 956 824 c 1,86,87
 937 822 937 822 893.5 811 c 128,-1,88
 850 800 850 800 796 781.5 c 128,-1,89
 742 763 742 763 683.5 738.5 c 128,-1,90
 625 714 625 714 576 685.5 c 128,-1,91
 527 657 527 657 493 625.5 c 128,-1,92
 459 594 459 594 454 562 c 1,0,1
EndSplineSet
Substitution2: "'fina' Terminal Forms in Arabic lookup 2 subtable" uniFEDA
Substitution2: "'medi' Medial Forms in Arabic lookup 1 subtable" uniFEDC
Substitution2: "'init' Initial Forms in Arabic lookup 0 subtable" uniFEDB
EndChar

StartChar: lam
Encoding: 228 1604 75
Width: 1001
GlyphClass: 2
Flags: W
AnchorPoint: "Anchor-16" 0 0 basechar 0
AnchorPoint: "Anchor-15" 0 0 basechar 0
AnchorPoint: "Anchor-14" 150 1400 basechar 0
AnchorPoint: "Anchor-13" 0 1650 basechar 0
AnchorPoint: "Anchor-12" 550 -400 basechar 0
AnchorPoint: "Anchor-11" 700 1425 basechar 0
AnchorPoint: "Anchor-10" 480 1230 basechar 0
AnchorPoint: "Anchor-9" 450 1230 basechar 0
AnchorPoint: "Anchor-8" 700 1450 basechar 0
LayerCount: 2
Fore
SplineSet
846 76 m 1,0,1
 838 140 838 140 820.5 259.5 c 128,-1,2
 803 379 803 379 776 565 c 0,3,4
 749 749 749 749 733 869.5 c 128,-1,5
 717 990 717 990 708 1056 c 0,6,7
 702 1098 702 1098 695.5 1138 c 128,-1,8
 689 1178 689 1178 666 1216 c 0,9,10
 658 1228 658 1228 656.5 1231 c 128,-1,11
 655 1234 655 1234 663 1246 c 0,12,13
 679 1275 679 1275 693.5 1305.5 c 128,-1,14
 708 1336 708 1336 722 1362 c 0,15,16
 727 1370 727 1370 731.5 1372 c 128,-1,17
 736 1374 736 1374 738 1362 c 0,18,19
 746 1338 746 1338 756.5 1312.5 c 128,-1,20
 767 1287 767 1287 781 1263 c 128,-1,21
 795 1239 795 1239 812.5 1218.5 c 128,-1,22
 830 1198 830 1198 853 1184 c 1,23,24
 839 1160 839 1160 828.5 1143 c 128,-1,25
 818 1126 818 1126 811 1111.5 c 128,-1,26
 804 1097 804 1097 801 1083.5 c 128,-1,27
 798 1070 798 1070 800 1054 c 2,28,-1
 897 312 l 2,29,30
 918 126 918 126 917 124 c 0,31,32
 912 34 912 34 872 -40 c 128,-1,33
 832 -114 832 -114 767.5 -166.5 c 128,-1,34
 703 -219 703 -219 620.5 -247.5 c 128,-1,35
 538 -276 538 -276 448 -276 c 0,36,37
 363 -276 363 -276 293 -250 c 128,-1,38
 223 -224 223 -224 172.5 -176 c 128,-1,39
 122 -128 122 -128 94.5 -59.5 c 128,-1,40
 67 9 67 9 67 95 c 0,41,42
 66 186 66 186 97.5 272.5 c 128,-1,43
 129 359 129 359 180 437 c 0,44,45
 186 446 186 446 191 445.5 c 128,-1,46
 196 445 196 445 199 440.5 c 128,-1,47
 202 436 202 436 203 429.5 c 128,-1,48
 204 423 204 423 203 420 c 0,49,50
 155 326 155 326 143 232 c 128,-1,51
 131 138 131 138 160 60 c 0,52,53
 175 21 175 21 200.5 -11.5 c 128,-1,54
 226 -44 226 -44 263 -67.5 c 128,-1,55
 300 -91 300 -91 349 -104 c 128,-1,56
 398 -117 398 -117 460 -116 c 0,57,58
 516 -116 516 -116 571.5 -104 c 128,-1,59
 627 -92 627 -92 677.5 -68 c 128,-1,60
 728 -44 728 -44 771 -8 c 128,-1,61
 814 28 814 28 846 76 c 1,0,1
EndSplineSet
Substitution2: "'fina' Terminal Forms in Arabic lookup 2 subtable" uniFEDE
Substitution2: "'medi' Medial Forms in Arabic lookup 1 subtable" uniFEE0
Substitution2: "'init' Initial Forms in Arabic lookup 0 subtable" uniFEDF
EndChar

StartChar: meem
Encoding: 229 1605 76
Width: 762
GlyphClass: 2
Flags: W
AnchorPoint: "Cursive-95" 675 0 entry 0
AnchorPoint: "Anchor-16" 0 0 basechar 0
AnchorPoint: "Anchor-15" 0 0 basechar 0
AnchorPoint: "Anchor-14" 200 1400 basechar 0
AnchorPoint: "Anchor-13" 150 1600 basechar 0
AnchorPoint: "Anchor-12" 550 40 basechar 0
AnchorPoint: "Anchor-11" 350 900 basechar 0
AnchorPoint: "Anchor-10" 330 960 basechar 0
AnchorPoint: "Anchor-9" 240 810 basechar 0
AnchorPoint: "Anchor-8" 325 925 basechar 0
LayerCount: 2
Fore
SplineSet
402 649 m 0,0,1
 422 647 422 647 447.5 633.5 c 128,-1,2
 473 620 473 620 500 599.5 c 128,-1,3
 527 579 527 579 553.5 553.5 c 128,-1,4
 580 528 580 528 603.5 502.5 c 128,-1,5
 627 477 627 477 645.5 454 c 128,-1,6
 664 431 664 431 673 414 c 1,7,8
 665 372 665 372 655 336.5 c 128,-1,9
 645 301 645 301 633 259 c 1,10,11
 606 258 606 258 559 256 c 128,-1,12
 512 254 512 254 457 248.5 c 128,-1,13
 402 243 402 243 345.5 232.5 c 128,-1,14
 289 222 289 222 243 203.5 c 128,-1,15
 197 185 197 185 168.5 156.5 c 128,-1,16
 140 128 140 128 141 88 c 1,17,18
 173 -163 173 -163 191 -300.5 c 128,-1,19
 209 -438 209 -438 212 -465 c 0,20,21
 217 -507 217 -507 220.5 -558 c 128,-1,22
 224 -609 224 -609 224 -660.5 c 128,-1,23
 224 -712 224 -712 220 -760.5 c 128,-1,24
 216 -809 216 -809 206 -846 c 0,25,26
 202 -859 202 -859 193 -858.5 c 128,-1,27
 184 -858 184 -858 183 -846 c 0,28,29
 172 -764 172 -764 163 -683 c 128,-1,30
 154 -602 154 -602 142 -520 c 0,31,32
 134 -450 134 -450 122 -380 c 128,-1,33
 110 -310 110 -310 99 -239.5 c 128,-1,34
 88 -169 88 -169 79.5 -98 c 128,-1,35
 71 -27 71 -27 70 44 c 0,36,37
 72 132 72 132 107.5 200.5 c 128,-1,38
 143 269 143 269 200.5 315.5 c 128,-1,39
 258 362 258 362 332 384.5 c 128,-1,40
 406 407 406 407 486 402 c 1,41,42
 480 412 480 412 464.5 426 c 128,-1,43
 449 440 449 440 431 452.5 c 128,-1,44
 413 465 413 465 395 475 c 128,-1,45
 377 485 377 485 367 487 c 0,46,47
 343 490 343 490 320 480.5 c 128,-1,48
 297 471 297 471 277 454.5 c 128,-1,49
 257 438 257 438 241.5 417.5 c 128,-1,50
 226 397 226 397 217 378 c 0,51,52
 215 366 215 366 204.5 368 c 128,-1,53
 194 370 194 370 195 382 c 0,54,55
 199 433 199 433 211.5 476.5 c 128,-1,56
 224 520 224 520 251 562 c 0,57,58
 277 604 277 604 315 628 c 128,-1,59
 353 652 353 652 402 649 c 0,0,1
EndSplineSet
Substitution2: "'fina' Terminal Forms in Arabic lookup 2 subtable" uniFEE2
Substitution2: "'medi' Medial Forms in Arabic lookup 1 subtable" uniFEE4
Substitution2: "'init' Initial Forms in Arabic lookup 0 subtable" uniFEE3
EndChar

StartChar: noon
Encoding: 230 1606 77
Width: 1089
GlyphClass: 2
Flags: W
AnchorPoint: "Anchor-16" 0 0 basechar 0
AnchorPoint: "Anchor-15" 0 0 basechar 0
AnchorPoint: "Anchor-14" 250 1400 basechar 0
AnchorPoint: "Anchor-13" 300 1600 basechar 0
AnchorPoint: "Anchor-12" 585 -400 basechar 0
AnchorPoint: "Anchor-11" 525 1000 basechar 0
AnchorPoint: "Anchor-10" 495 1215 basechar 0
AnchorPoint: "Anchor-9" 405 1065 basechar 0
AnchorPoint: "Anchor-8" 525 900 basechar 0
LayerCount: 2
Fore
SplineSet
833 712 m 0,0,1
 880 646 880 646 916.5 573 c 128,-1,2
 953 500 953 500 975 423 c 128,-1,3
 997 346 997 346 1003.5 266 c 128,-1,4
 1010 186 1010 186 998 107 c 0,5,6
 988 44 988 44 960 -9 c 128,-1,7
 932 -62 932 -62 891 -104 c 128,-1,8
 850 -146 850 -146 798 -178 c 128,-1,9
 746 -210 746 -210 689 -231 c 128,-1,10
 632 -252 632 -252 572 -262.5 c 128,-1,11
 512 -273 512 -273 454 -273 c 0,12,13
 375 -273 375 -273 305.5 -248 c 128,-1,14
 236 -223 236 -223 184 -176 c 128,-1,15
 132 -129 132 -129 102 -61 c 128,-1,16
 72 7 72 7 72 93 c 0,17,18
 72 187 72 187 103 274 c 128,-1,19
 134 361 134 361 186 439 c 0,20,21
 192 448 192 448 197 447.5 c 128,-1,22
 202 447 202 447 205 442.5 c 128,-1,23
 208 438 208 438 209 431.5 c 128,-1,24
 210 425 210 425 209 422 c 0,25,26
 161 328 161 328 149 234 c 128,-1,27
 137 140 137 140 166 62 c 0,28,29
 181 23 181 23 206.5 -9.5 c 128,-1,30
 232 -42 232 -42 269 -65.5 c 128,-1,31
 306 -89 306 -89 355 -102 c 128,-1,32
 404 -115 404 -115 466 -114 c 0,33,34
 530 -114 530 -114 596.5 -101 c 128,-1,35
 663 -88 663 -88 725.5 -62.5 c 128,-1,36
 788 -37 788 -37 843.5 1 c 128,-1,37
 899 39 899 39 941 89 c 1,38,39
 943 147 943 147 928 212.5 c 128,-1,40
 913 278 913 278 888.5 342.5 c 128,-1,41
 864 407 864 407 832.5 467 c 128,-1,42
 801 527 801 527 770 575 c 1,43,44
 779 610 779 610 789.5 644 c 128,-1,45
 800 678 800 678 814 714 c 0,46,47
 819 725 819 725 824 721 c 128,-1,48
 829 717 829 717 833 712 c 0,0,1
EndSplineSet
Substitution2: "'fina' Terminal Forms in Arabic lookup 2 subtable" uniFEE6
Substitution2: "'medi' Medial Forms in Arabic lookup 1 subtable" uniFEE8
Substitution2: "'init' Initial Forms in Arabic lookup 0 subtable" uniFEE7
EndChar

StartChar: heh
Encoding: 231 1607 78
Width: 537
GlyphClass: 2
Flags: W
AnchorPoint: "Cursive-95" 450 0 entry 0
AnchorPoint: "Anchor-16" 0 0 basechar 0
AnchorPoint: "Anchor-15" 0 0 basechar 0
AnchorPoint: "Anchor-14" 50 1300 basechar 0
AnchorPoint: "Anchor-13" 300 1550 basechar 0
AnchorPoint: "Anchor-12" 225 -150 basechar 0
AnchorPoint: "Anchor-11" 225 875 basechar 0
AnchorPoint: "Anchor-10" 195 855 basechar 0
AnchorPoint: "Anchor-9" 195 705 basechar 0
AnchorPoint: "Anchor-8" 250 875 basechar 0
LayerCount: 2
Fore
SplineSet
181 371 m 1,0,1
 163 339 163 339 155 309 c 128,-1,2
 147 279 147 279 148 252.5 c 128,-1,3
 149 226 149 226 159.5 206 c 128,-1,4
 170 186 170 186 190 175 c 0,5,6
 208 165 208 165 233.5 162 c 128,-1,7
 259 159 259 159 286.5 164 c 128,-1,8
 314 169 314 169 341 183 c 128,-1,9
 368 197 368 197 390 221 c 1,10,11
 390 246 390 246 366 272.5 c 128,-1,12
 342 299 342 299 308.5 321 c 128,-1,13
 275 343 275 343 239.5 357 c 128,-1,14
 204 371 204 371 181 371 c 1,0,1
137 405 m 1,15,16
 133 405 133 405 132 406 c 0,17,18
 130 413 130 413 134.5 434 c 128,-1,19
 139 455 139 455 146.5 477 c 128,-1,20
 154 499 154 499 161.5 516.5 c 128,-1,21
 169 534 169 534 173 534 c 0,22,23
 458 490 458 490 454 282 c 0,24,25
 453 250 453 250 444.5 212.5 c 128,-1,26
 436 175 436 175 419 130 c 0,27,28
 408 103 408 103 388.5 80 c 128,-1,29
 369 57 369 57 343.5 40.5 c 128,-1,30
 318 24 318 24 289 14.5 c 128,-1,31
 260 5 260 5 231 5 c 0,32,33
 182 5 182 5 149 23.5 c 128,-1,34
 116 42 116 42 98 72.5 c 128,-1,35
 80 103 80 103 75.5 143 c 128,-1,36
 71 183 71 183 79 226 c 0,37,38
 88 275 88 275 102.5 317 c 128,-1,39
 117 359 117 359 137 405 c 1,15,16
EndSplineSet
Substitution2: "Single Substitution lookup 52 subtable" heh.zz26
Substitution2: "'fina' Terminal Forms in Arabic lookup 2 subtable" uniFEEA
Substitution2: "'medi' Medial Forms in Arabic lookup 1 subtable" uniFEEC
Substitution2: "'init' Initial Forms in Arabic lookup 0 subtable" uniFEEB
EndChar

StartChar: waw
Encoding: 232 1608 79
Width: 790
GlyphClass: 2
Flags: W
AnchorPoint: "Cursive-95" 0 0 exit 0
AnchorPoint: "Cursive-95" 800 0 entry 0
AnchorPoint: "Anchor-16" 400 -800 basechar 0
AnchorPoint: "Anchor-15" 0 0 basechar 0
AnchorPoint: "Anchor-14" 150 1300 basechar 0
AnchorPoint: "Anchor-13" -100 1675 basechar 0
AnchorPoint: "Anchor-12" 325 -625 basechar 0
AnchorPoint: "Anchor-11" 400 850 basechar 0
AnchorPoint: "Anchor-10" 450 850 basechar 0
AnchorPoint: "Anchor-9" 345 750 basechar 0
AnchorPoint: "Anchor-8" 425 850 basechar 0
LayerCount: 2
Fore
SplineSet
479 358 m 0,0,1
 464 357 464 357 452 346.5 c 128,-1,2
 440 336 440 336 431.5 322.5 c 128,-1,3
 423 309 423 309 418.5 295 c 128,-1,4
 414 281 414 281 414 274 c 0,5,6
 427 253 427 253 450 245.5 c 128,-1,7
 473 238 473 238 496 238 c 0,8,9
 522 240 522 240 543.5 250.5 c 128,-1,10
 565 261 565 261 573 271 c 1,11,12
 573 284 573 284 563.5 299.5 c 128,-1,13
 554 315 554 315 539.5 328 c 128,-1,14
 525 341 525 341 508.5 349.5 c 128,-1,15
 492 358 492 358 479 358 c 0,0,1
609 182 m 1,16,17
 595 140 595 140 558 111 c 128,-1,18
 521 82 521 82 467 82 c 0,19,20
 440 82 440 82 415.5 96 c 128,-1,21
 391 110 391 110 373 132.5 c 128,-1,22
 355 155 355 155 345.5 184 c 128,-1,23
 336 213 336 213 339 243 c 0,24,25
 341 264 341 264 348 292 c 128,-1,26
 355 320 355 320 366 349 c 128,-1,27
 377 378 377 378 391.5 407 c 128,-1,28
 406 436 406 436 424 458 c 128,-1,29
 442 480 442 480 462 494 c 128,-1,30
 482 508 482 508 504 508 c 0,31,32
 543 508 543 508 577 477 c 128,-1,33
 611 446 611 446 636 398.5 c 128,-1,34
 661 351 661 351 675 293.5 c 128,-1,35
 689 236 689 236 688 182 c 0,36,37
 687 110 687 110 669.5 32.5 c 128,-1,38
 652 -45 652 -45 623 -120 c 256,39,40
 594 -195 594 -195 556.5 -261.5 c 128,-1,41
 519 -328 519 -328 477 -374 c 0,42,43
 415 -442 415 -442 345.5 -478.5 c 128,-1,44
 276 -515 276 -515 200 -526 c 128,-1,45
 124 -537 124 -537 41.5 -526 c 128,-1,46
 -41 -515 -41 -515 -129 -488 c 0,47,48
 -137 -485 -137 -485 -139 -477.5 c 128,-1,49
 -141 -470 -141 -470 -138 -462.5 c 128,-1,50
 -135 -455 -135 -455 -126.5 -450 c 128,-1,51
 -118 -445 -118 -445 -104 -446 c 0,52,53
 -20 -453 -20 -453 48.5 -443.5 c 128,-1,54
 117 -434 117 -434 177 -409.5 c 128,-1,55
 237 -385 237 -385 292 -346.5 c 128,-1,56
 347 -308 347 -308 404 -257 c 0,57,58
 443 -223 443 -223 479.5 -178 c 128,-1,59
 516 -133 516 -133 545 -85 c 0,60,61
 575 -36 575 -36 595 13 c 128,-1,62
 615 62 615 62 623 104 c 0,63,64
 624 113 624 113 623 124.5 c 128,-1,65
 622 136 622 136 620 147 c 128,-1,66
 618 158 618 158 615 167.5 c 128,-1,67
 612 177 612 177 609 182 c 1,16,17
EndSplineSet
Substitution2: "Single Substitution lookup 40 subtable" waw.isol
Substitution2: "Single Substitution lookup 39 subtable" waw.calt
Substitution2: "'fina' Terminal Forms in Arabic lookup 2 subtable" uniFEEE
EndChar

StartChar: alefmaksura
Encoding: 233 1609 80
Width: 1363
GlyphClass: 2
Flags: W
AnchorPoint: "Anchor-16" 0 0 basechar 0
AnchorPoint: "Anchor-15" 0 0 basechar 0
AnchorPoint: "Anchor-14" 400 1350 basechar 0
AnchorPoint: "Anchor-13" 300 1500 basechar 0
AnchorPoint: "Anchor-12" 850 -400 basechar 0
AnchorPoint: "Anchor-11" 800 1000 basechar 0
AnchorPoint: "Anchor-10" 500 600 basechar 0
AnchorPoint: "Anchor-9" 500 600 basechar 0
AnchorPoint: "Anchor-8" 650 950 basechar 0
LayerCount: 2
Fore
SplineSet
1170 -27 m 0,0,1
 1102 -84 1102 -84 1026 -132 c 128,-1,2
 950 -180 950 -180 868 -215 c 128,-1,3
 786 -250 786 -250 698 -269.5 c 128,-1,4
 610 -289 610 -289 519 -289 c 0,5,6
 427 -289 427 -289 345.5 -263.5 c 128,-1,7
 264 -238 264 -238 203 -188.5 c 128,-1,8
 142 -139 142 -139 106 -65.5 c 128,-1,9
 70 8 70 8 69 104 c 0,10,11
 65 210 65 210 100.5 309.5 c 128,-1,12
 136 409 136 409 196 497 c 0,13,14
 207 511 207 511 214 501 c 0,15,16
 221 484 221 484 218 481 c 0,17,18
 200 437 200 437 181 392 c 128,-1,19
 162 347 162 347 149.5 300.5 c 128,-1,20
 137 254 137 254 135.5 206 c 128,-1,21
 134 158 134 158 151 109 c 0,22,23
 168 50 168 50 200 7.5 c 128,-1,24
 232 -35 232 -35 275.5 -64 c 128,-1,25
 319 -93 319 -93 371 -109 c 128,-1,26
 423 -125 423 -125 480 -131 c 0,27,28
 562 -137 562 -137 650.5 -125.5 c 128,-1,29
 739 -114 739 -114 825.5 -87.5 c 128,-1,30
 912 -61 912 -61 992.5 -22.5 c 128,-1,31
 1073 16 1073 16 1140 64 c 0,32,33
 1157 76 1157 76 1158 84.5 c 128,-1,34
 1159 93 1159 93 1151.5 99.5 c 128,-1,35
 1144 106 1144 106 1132 110 c 128,-1,36
 1120 114 1120 114 1110 117 c 0,37,38
 1056 131 1056 131 994 139.5 c 128,-1,39
 932 148 932 148 875 157 c 0,40,41
 838 163 838 163 803.5 178.5 c 128,-1,42
 769 194 769 194 742 217.5 c 128,-1,43
 715 241 715 241 698 272 c 128,-1,44
 681 303 681 303 680 340 c 0,45,46
 678 387 678 387 690 433.5 c 128,-1,47
 702 480 702 480 723.5 524.5 c 128,-1,48
 745 569 745 569 774.5 610.5 c 128,-1,49
 804 652 804 652 838 690 c 0,50,51
 874 729 874 729 914 762.5 c 128,-1,52
 954 796 954 796 995.5 819 c 128,-1,53
 1037 842 1037 842 1078.5 852 c 128,-1,54
 1120 862 1120 862 1159 853 c 0,55,56
 1202 842 1202 842 1226 813 c 128,-1,57
 1250 784 1250 784 1259 747 c 128,-1,58
 1268 710 1268 710 1263 670.5 c 128,-1,59
 1258 631 1258 631 1243 598 c 0,60,61
 1241 594 1241 594 1235 595 c 128,-1,62
 1229 596 1229 596 1227 602 c 0,63,64
 1221 617 1221 617 1208 636 c 128,-1,65
 1195 655 1195 655 1177.5 672 c 128,-1,66
 1160 689 1160 689 1138 700.5 c 128,-1,67
 1116 712 1116 712 1092 712 c 0,68,69
 1044 711 1044 711 992.5 686 c 128,-1,70
 941 661 941 661 894.5 622.5 c 128,-1,71
 848 584 848 584 811 537 c 128,-1,72
 774 490 774 490 756 446 c 0,73,74
 739 411 739 411 748.5 387 c 128,-1,75
 758 363 758 363 784 345 c 0,76,77
 817 321 817 321 854 307.5 c 128,-1,78
 891 294 891 294 928.5 286 c 128,-1,79
 966 278 966 278 1003 274 c 128,-1,80
 1040 270 1040 270 1073 265 c 0,81,82
 1097 261 1097 261 1124.5 255 c 128,-1,83
 1152 249 1152 249 1176 238.5 c 128,-1,84
 1200 228 1200 228 1217 211.5 c 128,-1,85
 1234 195 1234 195 1237 170 c 0,86,87
 1240 148 1240 148 1236 119.5 c 128,-1,88
 1232 91 1232 91 1222.5 63 c 128,-1,89
 1213 35 1213 35 1199.5 10.5 c 128,-1,90
 1186 -14 1186 -14 1170 -27 c 0,0,1
EndSplineSet
Substitution2: "'fina' Terminal Forms in Arabic lookup 2 subtable" uniFEF2
Substitution2: "'medi' Medial Forms in Arabic lookup 1 subtable" uniFBE9
Substitution2: "'init' Initial Forms in Arabic lookup 0 subtable" uniFBE8
EndChar

StartChar: yeh
Encoding: 234 1610 81
Width: 1363
GlyphClass: 2
Flags: W
AnchorPoint: "Anchor-16" 0 0 basechar 0
AnchorPoint: "Anchor-15" 0 0 basechar 0
AnchorPoint: "Anchor-14" 400 1350 basechar 0
AnchorPoint: "Anchor-13" 300 1500 basechar 0
AnchorPoint: "Anchor-12" 800 -400 basechar 0
AnchorPoint: "Anchor-11" 800 1000 basechar 0
AnchorPoint: "Anchor-10" 500 600 basechar 0
AnchorPoint: "Anchor-9" 500 600 basechar 0
AnchorPoint: "Anchor-8" 800 1000 basechar 0
LayerCount: 2
Fore
SplineSet
1170 -27 m 0,0,1
 1102 -84 1102 -84 1026 -132 c 128,-1,2
 950 -180 950 -180 868 -215 c 128,-1,3
 786 -250 786 -250 698 -269.5 c 128,-1,4
 610 -289 610 -289 519 -289 c 0,5,6
 427 -289 427 -289 345.5 -263.5 c 128,-1,7
 264 -238 264 -238 203 -188.5 c 128,-1,8
 142 -139 142 -139 106 -65.5 c 128,-1,9
 70 8 70 8 69 104 c 0,10,11
 65 210 65 210 100.5 309.5 c 128,-1,12
 136 409 136 409 196 497 c 0,13,14
 207 511 207 511 214 501 c 0,15,16
 221 484 221 484 218 481 c 0,17,18
 200 437 200 437 181 392 c 128,-1,19
 162 347 162 347 149.5 300.5 c 128,-1,20
 137 254 137 254 135.5 206 c 128,-1,21
 134 158 134 158 151 109 c 0,22,23
 168 50 168 50 200 7.5 c 128,-1,24
 232 -35 232 -35 275.5 -64 c 128,-1,25
 319 -93 319 -93 371 -109 c 128,-1,26
 423 -125 423 -125 480 -131 c 0,27,28
 562 -137 562 -137 650.5 -125.5 c 128,-1,29
 739 -114 739 -114 825.5 -87.5 c 128,-1,30
 912 -61 912 -61 992.5 -22.5 c 128,-1,31
 1073 16 1073 16 1140 64 c 0,32,33
 1157 76 1157 76 1158 84.5 c 128,-1,34
 1159 93 1159 93 1151.5 99.5 c 128,-1,35
 1144 106 1144 106 1132 110 c 128,-1,36
 1120 114 1120 114 1110 117 c 0,37,38
 1056 131 1056 131 994 139.5 c 128,-1,39
 932 148 932 148 875 157 c 0,40,41
 838 163 838 163 803.5 178.5 c 128,-1,42
 769 194 769 194 742 217.5 c 128,-1,43
 715 241 715 241 698 272 c 128,-1,44
 681 303 681 303 680 340 c 0,45,46
 678 387 678 387 690 433.5 c 128,-1,47
 702 480 702 480 723.5 524.5 c 128,-1,48
 745 569 745 569 774.5 610.5 c 128,-1,49
 804 652 804 652 838 690 c 0,50,51
 874 729 874 729 914 762.5 c 128,-1,52
 954 796 954 796 995.5 819 c 128,-1,53
 1037 842 1037 842 1078.5 852 c 128,-1,54
 1120 862 1120 862 1159 853 c 0,55,56
 1202 842 1202 842 1226 813 c 128,-1,57
 1250 784 1250 784 1259 747 c 128,-1,58
 1268 710 1268 710 1263 670.5 c 128,-1,59
 1258 631 1258 631 1243 598 c 0,60,61
 1241 594 1241 594 1235 595 c 128,-1,62
 1229 596 1229 596 1227 602 c 0,63,64
 1221 617 1221 617 1208 636 c 128,-1,65
 1195 655 1195 655 1177.5 672 c 128,-1,66
 1160 689 1160 689 1138 700.5 c 128,-1,67
 1116 712 1116 712 1092 712 c 0,68,69
 1044 711 1044 711 992.5 686 c 128,-1,70
 941 661 941 661 894.5 622.5 c 128,-1,71
 848 584 848 584 811 537 c 128,-1,72
 774 490 774 490 756 446 c 0,73,74
 739 411 739 411 748.5 387 c 128,-1,75
 758 363 758 363 784 345 c 0,76,77
 817 321 817 321 854 307.5 c 128,-1,78
 891 294 891 294 928.5 286 c 128,-1,79
 966 278 966 278 1003 274 c 128,-1,80
 1040 270 1040 270 1073 265 c 0,81,82
 1097 261 1097 261 1124.5 255 c 128,-1,83
 1152 249 1152 249 1176 238.5 c 128,-1,84
 1200 228 1200 228 1217 211.5 c 128,-1,85
 1234 195 1234 195 1237 170 c 0,86,87
 1240 148 1240 148 1236 119.5 c 128,-1,88
 1232 91 1232 91 1222.5 63 c 128,-1,89
 1213 35 1213 35 1199.5 10.5 c 128,-1,90
 1186 -14 1186 -14 1170 -27 c 0,0,1
EndSplineSet
Substitution2: "'fina' Terminal Forms in Arabic lookup 2 subtable" uniFEF2
Substitution2: "'medi' Medial Forms in Arabic lookup 1 subtable" uniFEF4
Substitution2: "'init' Initial Forms in Arabic lookup 0 subtable" uniFEF3
EndChar

StartChar: afii57451
Encoding: 235 1611 82
Width: 0
GlyphClass: 4
Flags: W
AnchorPoint: "Anchor-97" 225 0 mark 0
AnchorPoint: "Anchor-90" 225 0 mark 0
AnchorPoint: "Anchor-86" 225 0 mark 0
AnchorPoint: "Anchor-78" 225 0 mark 0
AnchorPoint: "Anchor-73" 225 0 mark 0
AnchorPoint: "Anchor-68" 225 0 mark 0
AnchorPoint: "Anchor-60" 225 0 mark 0
AnchorPoint: "Anchor-52" 225 0 mark 0
AnchorPoint: "Anchor-45" 225 0 mark 0
AnchorPoint: "Anchor-37" 225 0 mark 0
AnchorPoint: "Anchor-29" 225 0 mark 0
AnchorPoint: "Anchor-22" 225 0 mark 0
AnchorPoint: "Anchor-17" 225 0 mark 0
AnchorPoint: "Anchor-8" 225 0 mark 0
AnchorPoint: "Anchor-4" 225 0 mark 0
LayerCount: 2
Fore
SplineSet
396 138 m 2,0,-1
 13 -4 l 2,1,2
 1 -8 1 -8 2 6 c 1,3,-1
 43 83 l 2,4,5
 50 97 50 97 63 102 c 2,6,-1
 433 234 l 2,7,8
 439 237 439 237 443.5 235 c 128,-1,9
 448 233 448 233 446 227 c 2,10,-1
 411 152 l 2,11,12
 409 144 409 144 396 138 c 2,0,-1
397 325 m 2,13,-1
 14 182 l 2,14,15
 2 179 2 179 3 192 c 1,16,-1
 45 270 l 2,17,18
 52 284 52 284 64 289 c 2,19,-1
 434 422 l 2,20,21
 440 424 440 424 444.5 422.5 c 128,-1,22
 449 421 449 421 447 414 c 2,23,-1
 412 338 l 2,24,25
 411 330 411 330 397 325 c 2,13,-1
EndSplineSet
EndChar

StartChar: afii57452
Encoding: 236 1612 83
Width: 0
GlyphClass: 4
Flags: W
AnchorPoint: "Anchor-97" 225 -40 mark 0
AnchorPoint: "Anchor-90" 225 -40 mark 0
AnchorPoint: "Anchor-86" 225 -40 mark 0
AnchorPoint: "Anchor-78" 225 -40 mark 0
AnchorPoint: "Anchor-73" 225 -40 mark 0
AnchorPoint: "Anchor-68" 225 -40 mark 0
AnchorPoint: "Anchor-60" 225 -40 mark 0
AnchorPoint: "Anchor-52" 225 -40 mark 0
AnchorPoint: "Anchor-45" 225 -40 mark 0
AnchorPoint: "Anchor-37" 225 -40 mark 0
AnchorPoint: "Anchor-29" 225 -40 mark 0
AnchorPoint: "Anchor-22" 225 -40 mark 0
AnchorPoint: "Anchor-17" 225 -40 mark 0
AnchorPoint: "Anchor-8" 225 -40 mark 0
AnchorPoint: "Anchor-4" 225 0 mark 0
LayerCount: 2
Fore
SplineSet
339 338 m 2,0,1
 343 347 343 347 349 346 c 128,-1,2
 355 345 355 345 359 337 c 0,3,4
 384 288 384 288 392 242 c 128,-1,5
 400 196 400 196 398 153 c 0,6,7
 395 111 395 111 379.5 79 c 128,-1,8
 364 47 364 47 342 38 c 0,9,10
 296 19 296 19 234 10.5 c 128,-1,11
 172 2 172 2 79 3 c 1,12,-1
 109 93 l 1,13,14
 178 95 178 95 228 100 c 128,-1,15
 278 105 278 105 323 121 c 1,16,17
 323 157 323 157 315.5 190 c 128,-1,18
 308 223 308 223 291 254 c 1,19,-1
 339 338 l 2,0,1
254 642 m 2,20,21
 258 651 258 651 264 650 c 128,-1,22
 270 649 270 649 274 641 c 0,23,24
 299 592 299 592 307 546 c 128,-1,25
 315 500 315 500 313 457 c 0,26,27
 310 415 310 415 294.5 383 c 128,-1,28
 279 351 279 351 257 342 c 0,29,30
 211 323 211 323 149 314.5 c 128,-1,31
 87 306 87 306 -6 307 c 1,32,-1
 24 397 l 1,33,34
 93 399 93 399 143 404 c 128,-1,35
 193 409 193 409 238 425 c 1,36,37
 238 461 238 461 230.5 494 c 128,-1,38
 223 527 223 527 206 558 c 1,39,-1
 254 642 l 2,20,21
EndSplineSet
EndChar

StartChar: afii57453
Encoding: 237 1613 84
Width: 0
GlyphClass: 4
Flags: W
AnchorPoint: "Anchor-91" 225 0 mark 0
AnchorPoint: "Anchor-88" 225 0 mark 0
AnchorPoint: "Anchor-81" 225 0 mark 0
AnchorPoint: "Anchor-76" 225 0 mark 0
AnchorPoint: "Anchor-71" 225 0 mark 0
AnchorPoint: "Anchor-64" 225 0 mark 0
AnchorPoint: "Anchor-56" 225 0 mark 0
AnchorPoint: "Anchor-48" 225 0 mark 0
AnchorPoint: "Anchor-41" 225 0 mark 0
AnchorPoint: "Anchor-33" 225 0 mark 0
AnchorPoint: "Anchor-25" 225 0 mark 0
AnchorPoint: "Anchor-20" 225 0 mark 0
AnchorPoint: "Anchor-12" 225 0 mark 0
AnchorPoint: "Anchor-6" 225 0 mark 0
LayerCount: 2
Fore
SplineSet
373 -288 m 2,0,-1
 12 -399 l 2,1,2
 1 -402 1 -402 2 -389 c 1,3,-1
 41 -316 l 2,4,5
 49 -303 49 -303 59 -299 c 2,6,-1
 408 -197 l 2,7,8
 414 -195 414 -195 418 -197 c 128,-1,9
 422 -199 422 -199 420 -205 c 2,10,-1
 387 -276 l 2,11,12
 385 -284 385 -284 373 -288 c 2,0,-1
374 -107 m 2,13,-1
 13 -218 l 2,14,15
 2 -221 2 -221 3 -208 c 1,16,-1
 42 -135 l 2,17,18
 50 -122 50 -122 60 -118 c 2,19,-1
 409 -16 l 2,20,21
 415 -14 415 -14 419 -16 c 128,-1,22
 423 -18 423 -18 421 -24 c 2,23,-1
 388 -95 l 2,24,25
 386 -103 386 -103 374 -107 c 2,13,-1
EndSplineSet
EndChar

StartChar: afii57454
Encoding: 238 1614 85
Width: 0
GlyphClass: 4
Flags: W
AnchorPoint: "Anchor-101" 200 350 basemark 0
AnchorPoint: "Anchor-100" 0 0 basemark 0
AnchorPoint: "Anchor-99" 0 0 basemark 0
AnchorPoint: "Anchor-98" 0 0 basemark 0
AnchorPoint: "Anchor-97" 0 150 basemark 0
AnchorPoint: "Anchor-97" 225 0 mark 0
AnchorPoint: "Anchor-90" 225 0 mark 0
AnchorPoint: "Anchor-86" 225 0 mark 0
AnchorPoint: "Anchor-78" 225 0 mark 0
AnchorPoint: "Anchor-73" 225 0 mark 0
AnchorPoint: "Anchor-68" 225 0 mark 0
AnchorPoint: "Anchor-60" 225 0 mark 0
AnchorPoint: "Anchor-52" 225 0 mark 0
AnchorPoint: "Anchor-45" 225 0 mark 0
AnchorPoint: "Anchor-37" 225 0 mark 0
AnchorPoint: "Anchor-29" 225 0 mark 0
AnchorPoint: "Anchor-22" 225 0 mark 0
AnchorPoint: "Anchor-17" 225 0 mark 0
AnchorPoint: "Anchor-8" 225 0 mark 0
AnchorPoint: "Anchor-4" 225 0 mark 0
AnchorPoint: "Anchor-0" 225 0 mark 0
LayerCount: 2
Fore
SplineSet
398 155 m 2,0,-1
 17 4 l 2,1,2
 6 1 6 1 7 14 c 1,3,-1
 48 103 l 2,4,5
 55 115 55 115 66 120 c 2,6,-1
 435 262 l 2,7,8
 441 264 441 264 445 262 c 128,-1,9
 449 260 449 260 447 254 c 2,10,-1
 412 167 l 2,11,12
 411 160 411 160 398 155 c 2,0,-1
EndSplineSet
EndChar

StartChar: afii57455
Encoding: 239 1615 86
Width: 0
GlyphClass: 4
Flags: W
AnchorPoint: "Anchor-101" 0 0 basemark 0
AnchorPoint: "Anchor-100" 0 0 basemark 0
AnchorPoint: "Anchor-99" 0 0 basemark 0
AnchorPoint: "Anchor-98" 0 0 basemark 0
AnchorPoint: "Anchor-97" -25 250 basemark 0
AnchorPoint: "Anchor-97" 175 -100 mark 0
AnchorPoint: "Anchor-90" 175 -100 mark 0
AnchorPoint: "Anchor-86" 175 -100 mark 0
AnchorPoint: "Anchor-78" 175 -100 mark 0
AnchorPoint: "Anchor-73" 175 -100 mark 0
AnchorPoint: "Anchor-68" 175 -100 mark 0
AnchorPoint: "Anchor-60" 175 -100 mark 0
AnchorPoint: "Anchor-52" 175 -100 mark 0
AnchorPoint: "Anchor-45" 175 -100 mark 0
AnchorPoint: "Anchor-37" 175 -100 mark 0
AnchorPoint: "Anchor-29" 175 -100 mark 0
AnchorPoint: "Anchor-22" 175 -100 mark 0
AnchorPoint: "Anchor-17" 175 -100 mark 0
AnchorPoint: "Anchor-8" 175 -100 mark 0
AnchorPoint: "Anchor-4" 225 0 mark 0
LayerCount: 2
Fore
SplineSet
240 361 m 2,0,1
 244 369 244 369 250 368 c 128,-1,2
 256 367 256 367 260 360 c 0,3,4
 315 257 315 257 314 164 c 0,5,6
 313 118 313 118 298 84 c 128,-1,7
 283 50 283 50 262 41 c 0,8,9
 220 26 220 26 155.5 14 c 128,-1,10
 91 2 91 2 6 3 c 1,11,-1
 33 92 l 1,12,13
 96 94 96 94 146.5 101.5 c 128,-1,14
 197 109 197 109 242 128 c 1,15,16
 239 206 239 206 200 271 c 1,17,-1
 240 361 l 2,0,1
EndSplineSet
EndChar

StartChar: afii57456
Encoding: 240 1616 87
Width: 0
GlyphClass: 4
Flags: W
AnchorPoint: "Anchor-101" 100 1300 basemark 0
AnchorPoint: "Anchor-100" 0 0 basemark 0
AnchorPoint: "Anchor-99" 0 0 basemark 0
AnchorPoint: "Anchor-98" 0 0 basemark 0
AnchorPoint: "Anchor-97" 0 0 basemark 0
AnchorPoint: "Anchor-91" 275 -200 mark 0
AnchorPoint: "Anchor-88" 275 -200 mark 0
AnchorPoint: "Anchor-81" 275 -200 mark 0
AnchorPoint: "Anchor-76" 275 -200 mark 0
AnchorPoint: "Anchor-71" 275 -200 mark 0
AnchorPoint: "Anchor-64" 275 -200 mark 0
AnchorPoint: "Anchor-56" 275 -200 mark 0
AnchorPoint: "Anchor-48" 275 -200 mark 0
AnchorPoint: "Anchor-41" 275 -200 mark 0
AnchorPoint: "Anchor-33" 275 -200 mark 0
AnchorPoint: "Anchor-25" 275 -200 mark 0
AnchorPoint: "Anchor-20" 275 -200 mark 0
AnchorPoint: "Anchor-12" 275 -200 mark 0
AnchorPoint: "Anchor-6" 275 -200 mark 0
LayerCount: 2
Fore
SplineSet
443 -319 m 2,0,-1
 64 -440 l 2,1,2
 53 -443 53 -443 54 -430 c 1,3,-1
 95 -345 l 2,4,5
 99 -336 99 -336 113 -331 c 2,6,-1
 480 -216 l 2,7,8
 486 -215 486 -215 490 -217 c 128,-1,9
 494 -219 494 -219 492 -225 c 2,10,-1
 457 -308 l 2,11,12
 456 -315 456 -315 443 -319 c 2,0,-1
EndSplineSet
Substitution2: "Single Substitution lookup 36 subtable" uni06DC_afii57454
EndChar

StartChar: afii57457
Encoding: 241 1617 88
Width: 0
GlyphClass: 4
Flags: W
AnchorPoint: "Anchor-101" 195 390 basemark 0
AnchorPoint: "Anchor-100" 0 0 basemark 0
AnchorPoint: "Anchor-99" 0 275 basemark 0
AnchorPoint: "Anchor-98" 250 350 basemark 0
AnchorPoint: "Anchor-97" 200 300 basemark 0
AnchorPoint: "Anchor-90" 215 -25 mark 0
AnchorPoint: "Anchor-86" 215 -25 mark 0
AnchorPoint: "Anchor-78" 215 -25 mark 0
AnchorPoint: "Anchor-73" 215 -25 mark 0
AnchorPoint: "Anchor-68" 215 -25 mark 0
AnchorPoint: "Anchor-60" 215 -25 mark 0
AnchorPoint: "Anchor-52" 215 -25 mark 0
AnchorPoint: "Anchor-45" 215 -25 mark 0
AnchorPoint: "Anchor-37" 215 -25 mark 0
AnchorPoint: "Anchor-29" 215 -25 mark 0
AnchorPoint: "Anchor-22" 215 -25 mark 0
AnchorPoint: "Anchor-17" 215 -25 mark 0
AnchorPoint: "Anchor-8" 215 -25 mark 0
AnchorPoint: "Anchor-4" 210 -50 mark 0
AnchorPoint: "Anchor-0" 210 -50 mark 0
LayerCount: 2
Fore
SplineSet
211 92 m 1,0,1
 190 49 190 49 162.5 27.5 c 128,-1,2
 135 6 135 6 90 2 c 0,3,4
 53 0 53 0 31.5 18.5 c 128,-1,5
 10 37 10 37 4 82 c 0,6,7
 2 102 2 102 6 123.5 c 128,-1,8
 10 145 10 145 18 163.5 c 128,-1,9
 26 182 26 182 37 195.5 c 128,-1,10
 48 209 48 209 59 213 c 0,11,12
 72 215 72 215 61 195 c 0,13,14
 56 184 56 184 52.5 169.5 c 128,-1,15
 49 155 49 155 48.5 140.5 c 128,-1,16
 48 126 48 126 51.5 114 c 128,-1,17
 55 102 55 102 63 96 c 0,18,19
 78 86 78 86 95 86.5 c 128,-1,20
 112 87 112 87 128.5 93.5 c 128,-1,21
 145 100 145 100 160 111.5 c 128,-1,22
 175 123 175 123 186 135 c 0,23,24
 199 150 199 150 204 169 c 128,-1,25
 209 188 209 188 213 205 c 0,26,27
 213 210 213 210 214.5 217.5 c 128,-1,28
 216 225 216 225 219 232.5 c 128,-1,29
 222 240 222 240 227 245 c 128,-1,30
 232 250 232 250 240 250 c 0,31,32
 244 250 244 250 246 244.5 c 128,-1,33
 248 239 248 239 248.5 232 c 128,-1,34
 249 225 249 225 248.5 218.5 c 128,-1,35
 248 212 248 212 248 209 c 0,36,37
 248 180 248 180 256 163.5 c 128,-1,38
 264 147 264 147 293 141 c 0,39,40
 309 137 309 137 330.5 143.5 c 128,-1,41
 352 150 352 150 369 164 c 0,42,43
 371 166 371 166 370 175 c 128,-1,44
 369 184 369 184 367 194 c 128,-1,45
 365 204 365 204 362 212.5 c 128,-1,46
 359 221 359 221 358 223 c 0,47,48
 356 227 356 227 360.5 239.5 c 128,-1,49
 365 252 365 252 371 265 c 128,-1,50
 377 278 377 278 383 288.5 c 128,-1,51
 389 299 389 299 391 299 c 0,52,53
 402 300 402 300 407.5 283.5 c 128,-1,54
 413 267 413 267 414.5 244 c 128,-1,55
 416 221 416 221 414 197 c 128,-1,56
 412 173 412 173 408 158 c 0,57,58
 397 121 397 121 375.5 91 c 128,-1,59
 354 61 354 61 313 53 c 0,60,61
 276 47 276 47 251.5 58.5 c 128,-1,62
 227 70 227 70 211 92 c 1,0,1
EndSplineSet
EndChar

StartChar: afii57458
Encoding: 242 1618 89
Width: 0
GlyphClass: 4
Flags: W
AnchorPoint: "Anchor-101" -175 -100 basemark 0
AnchorPoint: "Anchor-100" 0 0 basemark 0
AnchorPoint: "Anchor-99" 0 0 basemark 0
AnchorPoint: "Anchor-98" 0 0 basemark 0
AnchorPoint: "Anchor-97" 0 0 basemark 0
AnchorPoint: "Anchor-97" 250 -50 mark 0
AnchorPoint: "Anchor-90" 250 -50 mark 0
AnchorPoint: "Anchor-86" 250 -50 mark 0
AnchorPoint: "Anchor-78" 250 -50 mark 0
AnchorPoint: "Anchor-73" 250 -50 mark 0
AnchorPoint: "Anchor-68" 250 -50 mark 0
AnchorPoint: "Anchor-60" 250 -50 mark 0
AnchorPoint: "Anchor-52" 250 -50 mark 0
AnchorPoint: "Anchor-45" 250 -50 mark 0
AnchorPoint: "Anchor-37" 250 -50 mark 0
AnchorPoint: "Anchor-29" 250 -50 mark 0
AnchorPoint: "Anchor-22" 250 -50 mark 0
AnchorPoint: "Anchor-17" 250 -50 mark 0
AnchorPoint: "Anchor-8" 250 -50 mark 0
AnchorPoint: "Anchor-4" 225 0 mark 0
LayerCount: 2
Fore
SplineSet
225 244 m 0,0,1
 208 241 208 241 192.5 232.5 c 128,-1,2
 177 224 177 224 165 211.5 c 128,-1,3
 153 199 153 199 146 184 c 128,-1,4
 139 169 139 169 139 154 c 0,5,6
 139 133 139 133 160 120 c 128,-1,7
 181 107 181 107 227 107 c 0,8,9
 285 108 285 108 324 147 c 1,10,11
 321 165 321 165 312 182.5 c 128,-1,12
 303 200 303 200 289.5 214 c 128,-1,13
 276 228 276 228 259.5 236.5 c 128,-1,14
 243 245 243 245 225 244 c 0,0,1
373 178 m 0,15,16
 373 144 373 144 364 112 c 128,-1,17
 355 80 355 80 336 55 c 128,-1,18
 317 30 317 30 287.5 15 c 128,-1,19
 258 0 258 0 217 0 c 0,20,21
 166 0 166 0 131 33 c 128,-1,22
 96 66 96 66 94 121 c 0,23,24
 94 149 94 149 102.5 187.5 c 128,-1,25
 111 226 111 226 129 261 c 128,-1,26
 147 296 147 296 175.5 323 c 128,-1,27
 204 350 204 350 244 356 c 0,28,29
 282 359 282 359 307 340.5 c 128,-1,30
 332 322 332 322 346.5 294 c 128,-1,31
 361 266 361 266 367 234 c 128,-1,32
 373 202 373 202 373 178 c 0,15,16
EndSplineSet
EndChar

StartChar: uni0653
Encoding: 267 1619 90
Width: 0
GlyphClass: 4
Flags: W
AnchorPoint: "Anchor-101" 250 0 mark 0
AnchorPoint: "Anchor-90" 250 -35 mark 0
AnchorPoint: "Anchor-86" 250 -35 mark 0
AnchorPoint: "Anchor-78" 250 -35 mark 0
AnchorPoint: "Anchor-73" 250 -35 mark 0
AnchorPoint: "Anchor-68" 250 -35 mark 0
AnchorPoint: "Anchor-60" 250 -35 mark 0
AnchorPoint: "Anchor-52" 250 -35 mark 0
AnchorPoint: "Anchor-45" 250 -35 mark 0
AnchorPoint: "Anchor-37" 250 -35 mark 0
AnchorPoint: "Anchor-29" 250 -35 mark 0
AnchorPoint: "Anchor-22" 250 -35 mark 0
AnchorPoint: "Anchor-17" 250 -35 mark 0
AnchorPoint: "Anchor-8" 250 -35 mark 0
AnchorPoint: "Anchor-4" 225 0 mark 0
LayerCount: 2
Fore
SplineSet
540 200 m 256,0,1
 543 198 543 198 544 191 c 128,-1,2
 545 184 545 184 541 176 c 0,3,4
 509 113 509 113 451.5 76 c 128,-1,5
 394 39 394 39 326.5 26 c 128,-1,6
 259 13 259 13 191 22.5 c 128,-1,7
 123 32 123 32 70 62 c 0,8,9
 58 72 58 72 57 63 c 0,10,11
 55 55 55 55 47.5 43.5 c 128,-1,12
 40 32 40 32 31 21 c 128,-1,13
 22 10 22 10 13 2.5 c 128,-1,14
 4 -5 4 -5 0 -5 c 0,15,16
 -8 -5 -8 -5 -7 7.5 c 128,-1,17
 -6 20 -6 20 -4 30 c 0,18,19
 -2 43 -2 43 3.5 62.5 c 128,-1,20
 9 82 9 82 16.5 102 c 128,-1,21
 24 122 24 122 33.5 140 c 128,-1,22
 43 158 43 158 53 169 c 0,23,24
 61 177 61 177 76 170 c 0,25,26
 124 143 124 143 181.5 128.5 c 128,-1,27
 239 114 239 114 299 115.5 c 128,-1,28
 359 117 359 117 418 136 c 128,-1,29
 477 155 477 155 528 194 c 0,30,31
 533 198 533 198 535 200 c 128,-1,32
 537 202 537 202 540 200 c 256,0,1
EndSplineSet
EndChar

StartChar: _.011
Encoding: 268 1620 91
Width: 0
GlyphClass: 4
Flags: W
AnchorPoint: "Anchor-101" 0 0 basemark 0
AnchorPoint: "Anchor-100" 0 0 basemark 0
AnchorPoint: "Anchor-99" 100 1000 basemark 0
AnchorPoint: "Anchor-98" 375 1025 basemark 0
AnchorPoint: "Anchor-97" 300 1000 basemark 0
AnchorPoint: "Anchor-90" 350 700 mark 0
AnchorPoint: "Anchor-86" 350 700 mark 0
AnchorPoint: "Anchor-78" 350 700 mark 0
AnchorPoint: "Anchor-73" 350 700 mark 0
AnchorPoint: "Anchor-68" 350 700 mark 0
AnchorPoint: "Anchor-60" 350 700 mark 0
AnchorPoint: "Anchor-52" 350 700 mark 0
AnchorPoint: "Anchor-45" 350 700 mark 0
AnchorPoint: "Anchor-37" 350 700 mark 0
AnchorPoint: "Anchor-29" 350 700 mark 0
AnchorPoint: "Anchor-22" 350 700 mark 0
AnchorPoint: "Anchor-17" 350 700 mark 0
AnchorPoint: "Anchor-8" 350 700 mark 0
AnchorPoint: "Anchor-4" 930 795 mark 0
AnchorPoint: "Anchor-3" 350 450 mark 0
LayerCount: 2
Fore
SplineSet
174 555 m 1,0,1
 181 559 181 559 192.5 564.5 c 128,-1,2
 204 570 204 570 216 576.5 c 128,-1,3
 228 583 228 583 239 589.5 c 128,-1,4
 250 596 250 596 258 602 c 1,5,6
 236 621 236 621 219 642.5 c 128,-1,7
 202 664 202 664 188 692 c 0,8,9
 182 705 182 705 184.5 725.5 c 128,-1,10
 187 746 187 746 197 762 c 0,11,12
 203 772 203 772 221 793.5 c 128,-1,13
 239 815 239 815 265 836.5 c 128,-1,14
 291 858 291 858 322.5 874.5 c 128,-1,15
 354 891 354 891 387 891 c 0,16,17
 398 891 398 891 409 883.5 c 128,-1,18
 420 876 420 876 428.5 865.5 c 128,-1,19
 437 855 437 855 443 843 c 128,-1,20
 449 831 449 831 451 821 c 0,21,22
 457 798 457 798 451 782 c 0,23,24
 434 746 434 746 424 737 c 128,-1,25
 414 728 414 728 406 727 c 0,26,27
 401 727 401 727 398 732 c 128,-1,28
 395 737 395 737 393 744 c 128,-1,29
 391 751 391 751 389.5 758 c 128,-1,30
 388 765 388 765 387 768 c 0,31,32
 382 779 382 779 369 787 c 128,-1,33
 356 795 356 795 342 795 c 0,34,35
 295 795 295 795 254 760 c 1,36,37
 268 723 268 723 298.5 693 c 128,-1,38
 329 663 329 663 369 657 c 0,39,40
 420 651 420 651 467 660.5 c 128,-1,41
 514 670 514 670 565 682 c 1,42,43
 565 680 565 680 561 664.5 c 128,-1,44
 557 649 557 649 551 631.5 c 128,-1,45
 545 614 545 614 538.5 600 c 128,-1,46
 532 586 532 586 528 586 c 0,47,48
 486 582 486 582 443 573.5 c 128,-1,49
 400 565 400 565 352 551 c 0,50,51
 301 537 301 537 251 513 c 128,-1,52
 201 489 201 489 156 467 c 0,53,54
 143 463 143 463 141 475 c 1,55,56
 147 496 147 496 156.5 517.5 c 128,-1,57
 166 539 166 539 174 555 c 1,0,1
EndSplineSet
EndChar

StartChar: uni0655
Encoding: 269 1621 92
Width: 0
GlyphClass: 4
Flags: W
AnchorPoint: "Anchor-91" 250 0 mark 0
AnchorPoint: "Anchor-88" 250 0 mark 0
AnchorPoint: "Anchor-81" 250 0 mark 0
AnchorPoint: "Anchor-76" 250 0 mark 0
AnchorPoint: "Anchor-71" 250 0 mark 0
AnchorPoint: "Anchor-64" 250 0 mark 0
AnchorPoint: "Anchor-56" 250 0 mark 0
AnchorPoint: "Anchor-48" 250 0 mark 0
AnchorPoint: "Anchor-41" 250 0 mark 0
AnchorPoint: "Anchor-33" 250 0 mark 0
AnchorPoint: "Anchor-25" 250 0 mark 0
AnchorPoint: "Anchor-20" 250 0 mark 0
AnchorPoint: "Anchor-12" 250 0 mark 0
AnchorPoint: "Anchor-6" 250 0 mark 0
LayerCount: 2
Fore
SplineSet
75 -352 m 1,0,1
 84 -348 84 -348 95 -342.5 c 128,-1,2
 106 -337 106 -337 117.5 -330.5 c 128,-1,3
 129 -324 129 -324 140 -317.5 c 128,-1,4
 151 -311 151 -311 159 -305 c 1,5,6
 136 -286 136 -286 118 -264.5 c 128,-1,7
 100 -243 100 -243 87 -211 c 0,8,9
 81 -198 81 -198 84 -183 c 128,-1,10
 87 -168 87 -168 96 -155 c 0,11,12
 112 -132 112 -132 132.5 -107.5 c 128,-1,13
 153 -83 153 -83 177 -62.5 c 128,-1,14
 201 -42 201 -42 229 -29 c 128,-1,15
 257 -16 257 -16 288 -16 c 0,16,17
 300 -16 300 -16 310.5 -23.5 c 128,-1,18
 321 -31 321 -31 329 -41.5 c 128,-1,19
 337 -52 337 -52 343 -64 c 128,-1,20
 349 -76 349 -76 352 -86 c 0,21,22
 358 -109 358 -109 352 -125 c 2,23,-1
 333 -157 l 1,24,25
 325 -180 325 -180 306 -180 c 0,26,27
 296 -180 296 -180 294 -166.5 c 128,-1,28
 292 -153 292 -153 288 -141 c 0,29,30
 280 -125 280 -125 268.5 -118.5 c 128,-1,31
 257 -112 257 -112 243 -112 c 0,32,33
 193 -112 193 -112 155 -147 c 1,34,35
 169 -184 169 -184 199.5 -214 c 128,-1,36
 230 -244 230 -244 270 -250 c 0,37,38
 321 -256 321 -256 368 -246.5 c 128,-1,39
 415 -237 415 -237 466 -227 c 1,40,41
 466 -229 466 -229 462 -243.5 c 128,-1,42
 458 -258 458 -258 452 -275.5 c 128,-1,43
 446 -293 446 -293 439.5 -307 c 128,-1,44
 433 -321 433 -321 429 -321 c 0,45,46
 387 -325 387 -325 344 -334.5 c 128,-1,47
 301 -344 301 -344 253 -356 c 0,48,49
 204 -372 204 -372 153 -394.5 c 128,-1,50
 102 -417 102 -417 57 -440 c 1,51,52
 47 -440 47 -440 42 -432 c 1,53,54
 48 -411 48 -411 57.5 -389.5 c 128,-1,55
 67 -368 67 -368 75 -352 c 1,0,1
EndSplineSet
EndChar

StartChar: uni0656
Encoding: 270 1622 93
Width: 0
GlyphClass: 4
Flags: W
AnchorPoint: "Anchor-91" 350 0 mark 0
AnchorPoint: "Anchor-88" 350 0 mark 0
AnchorPoint: "Anchor-81" 350 0 mark 0
AnchorPoint: "Anchor-76" 350 0 mark 0
AnchorPoint: "Anchor-71" 350 0 mark 0
AnchorPoint: "Anchor-64" 350 0 mark 0
AnchorPoint: "Anchor-56" 350 0 mark 0
AnchorPoint: "Anchor-48" 350 0 mark 0
AnchorPoint: "Anchor-41" 350 0 mark 0
AnchorPoint: "Anchor-33" 350 0 mark 0
AnchorPoint: "Anchor-25" 350 0 mark 0
AnchorPoint: "Anchor-20" 350 0 mark 0
AnchorPoint: "Anchor-12" 350 0 mark 0
AnchorPoint: "Anchor-6" 350 0 mark 0
LayerCount: 2
Fore
SplineSet
535 -96 m 2,0,-1
 156 -201 l 2,1,2
 139 -207 139 -207 150 -190 c 2,3,-1
 186 -131 l 2,4,5
 193 -124 193 -124 205 -119 c 2,6,-1
 584 -14 l 2,7,8
 592 -12 592 -12 593 -14 c 128,-1,9
 594 -16 594 -16 590 -25 c 2,10,-1
 549 -86 l 2,11,12
 545 -92 545 -92 535 -96 c 2,0,-1
369 -315 m 0,13,14
 202 -369 202 -369 110.5 -398.5 c 128,-1,15
 19 -428 19 -428 -6 -436 c 0,16,17
 -22 -442 -22 -442 -12 -426 c 2,18,-1
 23 -364 l 2,19,20
 27 -357 27 -357 39 -352 c 2,21,-1
 414 -231 l 2,22,23
 422 -229 422 -229 423 -230 c 128,-1,24
 424 -231 424 -231 420 -239 c 2,25,-1
 383 -303 l 2,26,27
 381 -305 381 -305 377 -309 c 128,-1,28
 373 -313 373 -313 369 -315 c 0,13,14
EndSplineSet
EndChar

StartChar: uni0657
Encoding: 271 1623 94
Width: 0
GlyphClass: 4
Flags: W
AnchorPoint: "Anchor-99" 25 -40 mark 0
AnchorPoint: "Anchor-80" 200 0 mark 0
AnchorPoint: "Anchor-75" 200 0 mark 0
AnchorPoint: "Anchor-70" 200 0 mark 0
AnchorPoint: "Anchor-63" 200 0 mark 0
AnchorPoint: "Anchor-55" 200 0 mark 0
AnchorPoint: "Anchor-47" 200 0 mark 0
AnchorPoint: "Anchor-40" 200 0 mark 0
AnchorPoint: "Anchor-32" 200 0 mark 0
AnchorPoint: "Anchor-11" 200 0 mark 0
LayerCount: 2
Fore
SplineSet
373 122 m 2,0,-1
 12 1 l 2,1,2
 1 -2 1 -2 2 11 c 1,3,-1
 41 89 l 2,4,5
 49 102 49 102 59 106 c 2,6,-1
 408 218 l 2,7,8
 414 220 414 220 418 218 c 128,-1,9
 422 216 422 216 420 210 c 2,10,-1
 387 134 l 2,11,12
 385 126 385 126 373 122 c 2,0,-1
128 255 m 2,13,-1
 -233 134 l 2,14,15
 -244 131 -244 131 -243 144 c 1,16,-1
 -204 222 l 2,17,18
 -196 235 -196 235 -186 239 c 2,19,-1
 163 351 l 2,20,21
 169 353 169 353 173 351 c 128,-1,22
 177 349 177 349 175 343 c 2,23,-1
 142 267 l 2,24,25
 140 259 140 259 128 255 c 2,13,-1
EndSplineSet
EndChar

StartChar: uni065E
Encoding: 272 1630 95
Width: 0
GlyphClass: 4
Flags: W
AnchorPoint: "Anchor-98" 415 -40 mark 0
AnchorPoint: "Anchor-80" 375 -50 mark 0
AnchorPoint: "Anchor-75" 375 -50 mark 0
AnchorPoint: "Anchor-70" 375 -50 mark 0
AnchorPoint: "Anchor-63" 375 -50 mark 0
AnchorPoint: "Anchor-55" 375 -50 mark 0
AnchorPoint: "Anchor-47" 375 -50 mark 0
AnchorPoint: "Anchor-40" 375 -50 mark 0
AnchorPoint: "Anchor-32" 375 -50 mark 0
AnchorPoint: "Anchor-11" 375 -50 mark 0
LayerCount: 2
Fore
SplineSet
568 368 m 2,0,1
 572 377 572 377 578 376.5 c 128,-1,2
 584 376 584 376 588 368 c 0,3,4
 613 317 613 317 621 270 c 128,-1,5
 629 223 629 223 627 178 c 0,6,7
 624 135 624 135 608.5 102 c 128,-1,8
 593 69 593 69 571 57 c 0,9,10
 514 30 514 30 456 23 c 128,-1,11
 398 16 398 16 341 15 c 1,12,-1
 358 108 l 1,13,14
 422 110 422 110 471.5 119 c 128,-1,15
 521 128 521 128 552 143 c 1,16,17
 552 180 552 180 544.5 214 c 128,-1,18
 537 248 537 248 520 280 c 1,19,-1
 568 368 l 2,0,1
242 359 m 2,20,21
 246 368 246 368 252 367.5 c 128,-1,22
 258 367 258 367 262 359 c 0,23,24
 287 308 287 308 295 261 c 128,-1,25
 303 214 303 214 301 169 c 0,26,27
 298 126 298 126 282.5 93 c 128,-1,28
 267 60 267 60 245 48 c 0,29,30
 188 21 188 21 130 14.5 c 128,-1,31
 72 8 72 8 15 7 c 1,32,-1
 32 100 l 1,33,34
 96 101 96 101 145.5 110 c 128,-1,35
 195 119 195 119 226 134 c 1,36,37
 226 171 226 171 218.5 205.5 c 128,-1,38
 211 240 211 240 194 271 c 1,39,-1
 242 359 l 2,20,21
EndSplineSet
EndChar

StartChar: _.031
Encoding: 273 1632 96
Width: 277
GlyphClass: 2
Flags: W
LayerCount: 2
Fore
SplineSet
113 399 m 0,0,1
 139 382 139 382 158.5 366 c 128,-1,2
 178 350 178 350 197 334 c 0,3,4
 202 329 202 329 202.5 324.5 c 128,-1,5
 203 320 203 320 201 315 c 0,6,7
 195 300 195 300 190 288 c 128,-1,8
 185 276 185 276 180 265 c 128,-1,9
 175 254 175 254 169 242.5 c 128,-1,10
 163 231 163 231 155 217 c 0,11,12
 152 210 152 210 149.5 210 c 128,-1,13
 147 210 147 210 141 214 c 0,14,15
 121 229 121 229 100.5 245 c 128,-1,16
 80 261 80 261 58 277 c 0,17,18
 48 287 48 287 53 302 c 0,19,20
 62 325 62 325 71 347.5 c 128,-1,21
 80 370 80 370 95 396 c 0,22,23
 101 406 101 406 113 399 c 0,0,1
EndSplineSet
EndChar

StartChar: _.003
Encoding: 274 1633 97
Width: 311
GlyphClass: 2
Flags: W
LayerCount: 2
Fore
SplineSet
82 553 m 0,0,1
 86 554 86 554 91 548 c 0,2,3
 131 494 131 494 164 435.5 c 128,-1,4
 197 377 197 377 215 308 c 0,5,6
 233 244 233 244 241 171.5 c 128,-1,7
 249 99 249 99 238 36 c 0,8,9
 237 33 237 33 235.5 27 c 128,-1,10
 234 21 234 21 232 15 c 128,-1,11
 230 9 230 9 226.5 5 c 128,-1,12
 223 1 223 1 219 1 c 0,13,14
 212 1 212 1 210.5 14.5 c 128,-1,15
 209 28 209 28 208 36 c 0,16,17
 200 145 200 145 163.5 243.5 c 128,-1,18
 127 342 127 342 75 420 c 1,19,20
 63 430 63 430 59 445 c 0,21,22
 57 448 57 448 59.5 464.5 c 128,-1,23
 62 481 62 481 66 499.5 c 128,-1,24
 70 518 70 518 74.5 534 c 128,-1,25
 79 550 79 550 82 553 c 0,0,1
EndSplineSet
EndChar

StartChar: _.012
Encoding: 275 1634 98
Width: 370
GlyphClass: 2
Flags: W
LayerCount: 2
Fore
SplineSet
270 419 m 0,0,1
 256 419 256 419 235 421.5 c 128,-1,2
 214 424 214 424 193 424 c 0,3,4
 183 424 183 424 168 421.5 c 128,-1,5
 153 419 153 419 138.5 414.5 c 128,-1,6
 124 410 124 410 114 403.5 c 128,-1,7
 104 397 104 397 104 390 c 0,8,9
 104 377 104 377 111 366 c 128,-1,10
 118 355 118 355 123 348 c 0,11,12
 173 276 173 276 194.5 198 c 128,-1,13
 216 120 216 120 221 20 c 0,14,15
 222 9 222 9 216 4.5 c 128,-1,16
 210 0 210 0 205 0 c 0,17,18
 199 0 199 0 196.5 6.5 c 128,-1,19
 194 13 194 13 191 23 c 0,20,21
 183 60 183 60 172 92 c 128,-1,22
 161 124 161 124 147 154 c 128,-1,23
 133 184 133 184 117 214.5 c 128,-1,24
 101 245 101 245 83 279 c 0,25,26
 64 313 64 313 57.5 352 c 128,-1,27
 51 391 51 391 58.5 427 c 128,-1,28
 66 463 66 463 88 491.5 c 128,-1,29
 110 520 110 520 148 534 c 0,30,31
 180 545 180 545 217 542.5 c 128,-1,32
 254 540 254 540 294 528 c 1,33,-1
 272 420 l 2,34,35
 272 419 272 419 270 419 c 0,0,1
EndSplineSet
EndChar

StartChar: _.013
Encoding: 276 1635 99
Width: 505
GlyphClass: 2
Flags: W
LayerCount: 2
Fore
SplineSet
78 516 m 2,0,1
 80 524 80 524 83.5 522.5 c 128,-1,2
 87 521 87 521 90 516 c 0,3,4
 96 502 96 502 106.5 483.5 c 128,-1,5
 117 465 117 465 128 456 c 0,6,7
 141 444 141 444 158 437 c 128,-1,8
 175 430 175 430 192.5 430 c 128,-1,9
 210 430 210 430 226.5 438 c 128,-1,10
 243 446 243 446 256 464 c 0,11,12
 263 473 263 473 266.5 486.5 c 128,-1,13
 270 500 270 500 275 516 c 0,14,15
 277 521 277 521 279 526 c 128,-1,16
 281 531 281 531 286 531 c 0,17,18
 293 531 293 531 293 519 c 0,19,20
 293 511 293 511 291.5 500 c 128,-1,21
 290 489 290 489 293 479 c 0,22,23
 297 467 297 467 309.5 460 c 128,-1,24
 322 453 322 453 337.5 452 c 128,-1,25
 353 451 353 451 368.5 456 c 128,-1,26
 384 461 384 461 394 473 c 0,27,28
 398 478 398 478 404.5 496.5 c 128,-1,29
 411 515 411 515 411 536 c 0,30,31
 411 543 411 543 420 543 c 0,32,33
 422 543 422 543 426 536 c 0,34,35
 431 522 431 522 432 500.5 c 128,-1,36
 433 479 433 479 430 455.5 c 128,-1,37
 427 432 427 432 419.5 409.5 c 128,-1,38
 412 387 412 387 400 373 c 0,39,40
 373 341 373 341 336 342.5 c 128,-1,41
 299 344 299 344 272 374 c 1,42,43
 261 353 261 353 241.5 335.5 c 128,-1,44
 222 318 222 318 199 320 c 0,45,46
 192 323 192 323 187 321 c 0,47,48
 182 318 182 318 187 309 c 0,49,50
 217 239 217 239 225.5 162 c 128,-1,51
 234 85 234 85 224 19 c 0,52,53
 223 14 223 14 219.5 7 c 128,-1,54
 216 0 216 0 211 0 c 0,55,56
 203 0 203 0 200 9 c 128,-1,57
 197 18 197 18 196 25 c 0,58,59
 191 58 191 58 186 85 c 128,-1,60
 181 112 181 112 175 136.5 c 128,-1,61
 169 161 169 161 161.5 185 c 128,-1,62
 154 209 154 209 144 237 c 0,63,64
 135 261 135 261 127 279.5 c 128,-1,65
 119 298 119 298 110.5 317 c 128,-1,66
 102 336 102 336 92.5 356.5 c 128,-1,67
 83 377 83 377 71 404 c 0,68,69
 67 412 67 412 65 416.5 c 128,-1,70
 63 421 63 421 63 426 c 2,71,-1
 78 516 l 2,0,1
EndSplineSet
EndChar

StartChar: _.025
Encoding: 277 1636 100
Width: 417
GlyphClass: 2
Flags: W
LayerCount: 2
Fore
SplineSet
153 137 m 0,0,1
 149 127 149 127 169.5 116.5 c 128,-1,2
 190 106 190 106 235 108 c 0,3,4
 254 110 254 110 278 115.5 c 128,-1,5
 302 121 302 121 336 135 c 0,6,7
 338 137 338 137 339 132.5 c 128,-1,8
 340 128 340 128 338 124 c 0,9,10
 324 104 324 104 306.5 82 c 128,-1,11
 289 60 289 60 267 41 c 128,-1,12
 245 22 245 22 217.5 10 c 128,-1,13
 190 -2 190 -2 156 -2 c 0,14,15
 145 -2 145 -2 133.5 3 c 128,-1,16
 122 8 122 8 112.5 18.5 c 128,-1,17
 103 29 103 29 97.5 45 c 128,-1,18
 92 61 92 61 94 82 c 0,19,20
 95 100 95 100 104.5 124 c 128,-1,21
 114 148 114 148 124.5 170.5 c 128,-1,22
 135 193 135 193 144 209.5 c 128,-1,23
 153 226 153 226 153 228 c 0,24,25
 153 235 153 235 145.5 241.5 c 128,-1,26
 138 248 138 248 127 254 c 128,-1,27
 116 260 116 260 103.5 266.5 c 128,-1,28
 91 273 91 273 81 281 c 0,29,30
 67 295 67 295 61 311 c 128,-1,31
 55 327 55 327 57 355 c 0,32,33
 60 386 60 386 72 413 c 128,-1,34
 84 440 84 440 100.5 463 c 128,-1,35
 117 486 117 486 136.5 506 c 128,-1,36
 156 526 156 526 174 544 c 0,37,38
 182 552 182 552 188.5 546.5 c 128,-1,39
 195 541 195 541 192 535 c 0,40,41
 188 521 188 521 184 501.5 c 128,-1,42
 180 482 180 482 172 461 c 1,43,44
 163 455 163 455 152 449.5 c 128,-1,45
 141 444 141 444 132 437.5 c 128,-1,46
 123 431 123 431 116.5 422.5 c 128,-1,47
 110 414 110 414 110 402 c 0,48,49
 110 391 110 391 121 384 c 128,-1,50
 132 377 132 377 147 370.5 c 128,-1,51
 162 364 162 364 177.5 357 c 128,-1,52
 193 350 193 350 203 338 c 0,53,54
 212 327 212 327 213.5 310.5 c 128,-1,55
 215 294 215 294 211 277 c 0,56,57
 208 261 208 261 198 238.5 c 128,-1,58
 188 216 188 216 177.5 195 c 128,-1,59
 167 174 167 174 159 157.5 c 128,-1,60
 151 141 151 141 153 137 c 0,0,1
EndSplineSet
EndChar

StartChar: _.026
Encoding: 278 1637 101
Width: 380
GlyphClass: 2
Flags: W
LayerCount: 2
Fore
SplineSet
48 248 m 0,0,1
 48 263 48 263 51.5 285 c 128,-1,2
 55 307 55 307 61.5 330.5 c 128,-1,3
 68 354 68 354 78.5 378 c 128,-1,4
 89 402 89 402 102.5 420.5 c 128,-1,5
 116 439 116 439 133 451 c 128,-1,6
 150 463 150 463 170 463 c 0,7,8
 200 463 200 463 227 442 c 128,-1,9
 254 421 254 421 273.5 390.5 c 128,-1,10
 293 360 293 360 304.5 325.5 c 128,-1,11
 316 291 316 291 316 265 c 0,12,13
 316 177 316 177 282.5 132 c 128,-1,14
 249 87 249 87 174 87 c 0,15,16
 141 87 141 87 117 101 c 128,-1,17
 93 115 93 115 78 137.5 c 128,-1,18
 63 160 63 160 55.5 189 c 128,-1,19
 48 218 48 218 48 248 c 0,0,1
81 263 m 0,20,21
 81 250 81 250 90.5 238.5 c 128,-1,22
 100 227 100 227 114.5 218 c 128,-1,23
 129 209 129 209 146.5 204 c 128,-1,24
 164 199 164 199 179 199 c 0,25,26
 195 199 195 199 213 202.5 c 128,-1,27
 231 206 231 206 246.5 212.5 c 128,-1,28
 262 219 262 219 272 229 c 128,-1,29
 282 239 282 239 281 252 c 0,30,31
 277 267 277 267 266.5 284.5 c 128,-1,32
 256 302 256 302 240.5 316.5 c 128,-1,33
 225 331 225 331 205.5 341 c 128,-1,34
 186 351 186 351 165 351 c 0,35,36
 147 351 147 351 131.5 343 c 128,-1,37
 116 335 116 335 105 322.5 c 128,-1,38
 94 310 94 310 87.5 294 c 128,-1,39
 81 278 81 278 81 263 c 0,20,21
EndSplineSet
EndChar

StartChar: _.027
Encoding: 279 1638 102
Width: 459
GlyphClass: 2
Flags: W
LayerCount: 2
Fore
SplineSet
251 525 m 0,0,1
 275 528 275 528 287.5 522 c 128,-1,2
 300 516 300 516 306 504.5 c 128,-1,3
 312 493 312 493 313 477 c 128,-1,4
 314 461 314 461 316 444 c 0,5,6
 320 397 320 397 324.5 355.5 c 128,-1,7
 329 314 329 314 336 274 c 128,-1,8
 343 234 343 234 355 195.5 c 128,-1,9
 367 157 367 157 386 117 c 0,10,11
 391 107 391 107 392.5 101.5 c 128,-1,12
 394 96 394 96 392 86 c 0,13,14
 387 68 387 68 380 48 c 128,-1,15
 373 28 373 28 369 11 c 0,16,17
 367 0 367 0 361 0 c 128,-1,18
 355 0 355 0 350 10 c 0,19,20
 324 58 324 58 310 111 c 128,-1,21
 296 164 296 164 288 218 c 0,22,23
 282 258 282 258 280 298 c 128,-1,24
 278 338 278 338 278 394 c 0,25,26
 278 399 278 399 274.5 403 c 128,-1,27
 271 407 271 407 263 405 c 0,28,29
 232 400 232 400 198.5 396.5 c 128,-1,30
 165 393 165 393 133 396 c 0,31,32
 108 398 108 398 86 414 c 128,-1,33
 64 430 64 430 59 459 c 0,34,35
 55 482 55 482 56.5 502.5 c 128,-1,36
 58 523 58 523 60 537 c 0,37,38
 61 539 61 539 62.5 542.5 c 128,-1,39
 64 546 64 546 67 546 c 256,40,41
 70 546 70 546 72 543 c 128,-1,42
 74 540 74 540 75 538 c 0,43,44
 76 533 76 533 83.5 529 c 128,-1,45
 91 525 91 525 102 521.5 c 128,-1,46
 113 518 113 518 126.5 516 c 128,-1,47
 140 514 140 514 152 514 c 0,48,49
 178 514 178 514 202.5 517 c 128,-1,50
 227 520 227 520 251 525 c 0,0,1
EndSplineSet
EndChar

StartChar: _.028
Encoding: 280 1639 103
Width: 491
GlyphClass: 2
Flags: W
LayerCount: 2
Fore
SplineSet
396 531 m 0,0,1
 398 517 398 517 403.5 493.5 c 128,-1,2
 409 470 409 470 414 455 c 0,3,4
 414 447 414 447 411.5 443 c 128,-1,5
 409 439 409 439 405 431 c 0,6,7
 380 383 380 383 361.5 335 c 128,-1,8
 343 287 343 287 328.5 236.5 c 128,-1,9
 314 186 314 186 303 132 c 128,-1,10
 292 78 292 78 282 17 c 0,11,12
 280 -1 280 -1 268 -1 c 0,13,14
 260 -1 260 -1 258.5 5 c 128,-1,15
 257 11 257 11 255 17 c 0,16,17
 244 76 244 76 226 128.5 c 128,-1,18
 208 181 208 181 184.5 230 c 128,-1,19
 161 279 161 279 133 325 c 128,-1,20
 105 371 105 371 74 417 c 0,21,22
 64 427 64 427 66 444 c 0,23,24
 67 462 67 462 70 484 c 128,-1,25
 73 506 73 506 75 524 c 0,26,27
 76 536 76 536 82 538 c 128,-1,28
 88 540 88 540 94 532 c 0,29,30
 124 495 124 495 151.5 448 c 128,-1,31
 179 401 179 401 200.5 355 c 128,-1,32
 222 309 222 309 238 270 c 128,-1,33
 254 231 254 231 262 210 c 1,34,35
 268 241 268 241 277 280 c 128,-1,36
 286 319 286 319 299 361.5 c 128,-1,37
 312 404 312 404 329 447.5 c 128,-1,38
 346 491 346 491 368 530 c 0,39,40
 377 544 377 544 384 547 c 128,-1,41
 391 550 391 550 396 531 c 0,0,1
EndSplineSet
EndChar

StartChar: _.029
Encoding: 281 1640 104
Width: 519
GlyphClass: 2
Flags: W
LayerCount: 2
Fore
SplineSet
66 117 m 0,0,1
 65 122 65 122 68.5 127.5 c 128,-1,2
 72 133 72 133 75 137 c 0,3,4
 108 182 108 182 131.5 227 c 128,-1,5
 155 272 155 272 170.5 319.5 c 128,-1,6
 186 367 186 367 195.5 417 c 128,-1,7
 205 467 205 467 210 523 c 0,8,9
 211 531 211 531 214.5 538 c 128,-1,10
 218 545 218 545 223 545 c 0,11,12
 235 545 235 545 239 526 c 0,13,14
 255 477 255 477 276 423 c 128,-1,15
 297 369 297 369 321.5 315 c 128,-1,16
 346 261 346 261 374 210.5 c 128,-1,17
 402 160 402 160 432 118 c 0,18,19
 434 115 434 115 434 111.5 c 128,-1,20
 434 108 434 108 434 103 c 0,21,22
 434 94 434 94 433.5 82 c 128,-1,23
 433 70 433 70 432 57.5 c 128,-1,24
 431 45 431 45 429.5 33 c 128,-1,25
 428 21 428 21 427 13 c 0,26,27
 426 4 426 4 422.5 0.5 c 128,-1,28
 419 -3 419 -3 414 5 c 0,29,30
 387 41 387 41 360 84.5 c 128,-1,31
 333 128 333 128 309.5 174 c 128,-1,32
 286 220 286 220 267 268 c 128,-1,33
 248 316 248 316 236 361 c 1,34,35
 231 311 231 311 217.5 262 c 128,-1,36
 204 213 204 213 184.5 167.5 c 128,-1,37
 165 122 165 122 142 81.5 c 128,-1,38
 119 41 119 41 95 7 c 0,39,40
 77 -14 77 -14 72 10 c 0,41,42
 69 32 69 32 68 61.5 c 128,-1,43
 67 91 67 91 66 117 c 0,0,1
EndSplineSet
EndChar

StartChar: _.030
Encoding: 282 1641 105
Width: 434
GlyphClass: 2
Flags: W
LayerCount: 2
Fore
SplineSet
163 544 m 0,0,1
 190 544 190 544 207 527.5 c 128,-1,2
 224 511 224 511 234.5 487 c 128,-1,3
 245 463 245 463 251.5 435 c 128,-1,4
 258 407 258 407 263 385 c 0,5,6
 277 310 277 310 294 237 c 128,-1,7
 311 164 311 164 349 98 c 0,8,9
 356 88 356 88 351 76 c 0,10,11
 349 70 349 70 345 59.5 c 128,-1,12
 341 49 341 49 336.5 37.5 c 128,-1,13
 332 26 332 26 328 16.5 c 128,-1,14
 324 7 324 7 322 3 c 0,15,16
 319 -2 319 -2 315.5 -3.5 c 128,-1,17
 312 -5 312 -5 307 2 c 0,18,19
 289 29 289 29 276 65.5 c 128,-1,20
 263 102 263 102 254.5 142 c 128,-1,21
 246 182 246 182 241 221.5 c 128,-1,22
 236 261 236 261 235 293 c 1,23,24
 219 278 219 278 196.5 270 c 128,-1,25
 174 262 174 262 154 262 c 0,26,27
 99 262 99 262 77.5 294.5 c 128,-1,28
 56 327 56 327 58 376 c 0,29,30
 59 405 59 405 66.5 434.5 c 128,-1,31
 74 464 74 464 87 488 c 128,-1,32
 100 512 100 512 119 527.5 c 128,-1,33
 138 543 138 543 163 544 c 0,0,1
147 444 m 0,34,35
 138 444 138 444 129.5 439 c 128,-1,36
 121 434 121 434 114 427 c 128,-1,37
 107 420 107 420 102.5 412.5 c 128,-1,38
 98 405 98 405 98 400 c 0,39,40
 100 384 100 384 118 375.5 c 128,-1,41
 136 367 136 367 156 367 c 0,42,43
 179 367 179 367 196 372 c 128,-1,44
 213 377 213 377 213 385 c 0,45,46
 212 390 212 390 206 399.5 c 128,-1,47
 200 409 200 409 191 418.5 c 128,-1,48
 182 428 182 428 170.5 435.5 c 128,-1,49
 159 443 159 443 147 444 c 0,34,35
EndSplineSet
EndChar

StartChar: uni066E
Encoding: 283 1646 106
Width: 1526
GlyphClass: 2
Flags: W
LayerCount: 2
Fore
SplineSet
1241 559 m 1,0,-1
 1290 692 l 2,1,2
 1294 700 1294 700 1298.5 700 c 128,-1,3
 1303 700 1303 700 1315 690 c 0,4,5
 1369 633 1369 633 1406.5 562.5 c 128,-1,6
 1444 492 1444 492 1448 416 c 0,7,8
 1450 395 1450 395 1448.5 363.5 c 128,-1,9
 1447 332 1447 332 1441 300 c 128,-1,10
 1435 268 1435 268 1423.5 241.5 c 128,-1,11
 1412 215 1412 215 1393 205 c 0,12,13
 1278 141 1278 141 1162.5 100 c 128,-1,14
 1047 59 1047 59 915 37 c 0,15,16
 786 12 786 12 663.5 2 c 128,-1,17
 541 -8 541 -8 410 6 c 0,18,19
 339 12 339 12 277 36 c 128,-1,20
 215 60 215 60 168.5 101.5 c 128,-1,21
 122 143 122 143 95 202 c 128,-1,22
 68 261 68 261 68 338 c 0,23,24
 68 467 68 467 154 586 c 0,25,26
 166 603 166 603 176 590 c 0,27,28
 186 578 186 578 180 563 c 0,29,30
 161 534 161 534 151.5 499.5 c 128,-1,31
 142 465 142 465 141 430 c 128,-1,32
 140 395 140 395 147.5 361 c 128,-1,33
 155 327 155 327 170 299 c 0,34,35
 198 247 198 247 242.5 218 c 128,-1,36
 287 189 287 189 340.5 175.5 c 128,-1,37
 394 162 394 162 452 159 c 128,-1,38
 510 156 510 156 565 156 c 0,39,40
 670 156 670 156 769.5 165.5 c 128,-1,41
 869 175 869 175 965.5 194.5 c 128,-1,42
 1062 214 1062 214 1157.5 244 c 128,-1,43
 1253 274 1253 274 1352 315 c 0,44,45
 1384 329 1384 329 1378 354 c 0,46,47
 1360 414 1360 414 1323 464 c 128,-1,48
 1286 514 1286 514 1241 559 c 1,0,-1
EndSplineSet
Substitution2: "'medi' Medial Forms in Arabic lookup 1 subtable" uniFBE9
Substitution2: "'init' Initial Forms in Arabic lookup 0 subtable" uniFBE8
EndChar

StartChar: uni0670
Encoding: 284 1648 107
Width: 0
GlyphClass: 4
Flags: W
AnchorPoint: "Anchor-87" 225 0 mark 0
AnchorPoint: "Anchor-79" 225 0 mark 0
AnchorPoint: "Anchor-74" 225 0 mark 0
AnchorPoint: "Anchor-69" 225 0 mark 0
AnchorPoint: "Anchor-62" 275 0 mark 0
AnchorPoint: "Anchor-54" 275 0 mark 0
AnchorPoint: "Anchor-46" 225 0 mark 0
AnchorPoint: "Anchor-39" 275 0 mark 0
AnchorPoint: "Anchor-31" 275 0 mark 0
AnchorPoint: "Anchor-24" 275 0 mark 0
AnchorPoint: "Anchor-19" 275 0 mark 0
AnchorPoint: "Anchor-10" 275 0 mark 0
AnchorPoint: "Anchor-1" 250 -25 mark 0
LayerCount: 2
Fore
SplineSet
221 526 m 256,0,1
 225 526 225 526 231 516 c 0,2,3
 288 441 288 441 312 358 c 128,-1,4
 336 275 336 275 322 170 c 0,5,6
 317 146 317 146 309.5 117.5 c 128,-1,7
 302 89 302 89 292.5 64.5 c 128,-1,8
 283 40 283 40 271 23 c 128,-1,9
 259 6 259 6 246 6 c 0,10,11
 237 6 237 6 235.5 14 c 128,-1,12
 234 22 234 22 235.5 34 c 128,-1,13
 237 46 237 46 240.5 59 c 128,-1,14
 244 72 244 72 246 82 c 0,15,16
 254 124 254 124 253.5 169.5 c 128,-1,17
 253 215 253 215 243.5 261 c 128,-1,18
 234 307 234 307 214.5 351 c 128,-1,19
 195 395 195 395 164 436 c 0,20,21
 164 440 164 440 171.5 454.5 c 128,-1,22
 179 469 179 469 188.5 485 c 128,-1,23
 198 501 198 501 207.5 513.5 c 128,-1,24
 217 526 217 526 221 526 c 256,0,1
EndSplineSet
EndChar

StartChar: uni06d2
Encoding: 285 1746 108
Width: 1210
GlyphClass: 2
Flags: W
AnchorPoint: "Cursive-95" 1050 0 entry 0
AnchorPoint: "Anchor-16" 0 0 basechar 0
AnchorPoint: "Anchor-15" 0 0 basechar 0
AnchorPoint: "Anchor-14" 0 0 basechar 0
AnchorPoint: "Anchor-13" 375 1600 basechar 0
AnchorPoint: "Anchor-12" 550 -175 basechar 0
AnchorPoint: "Anchor-11" 545 1205 basechar 0
AnchorPoint: "Anchor-10" 645 990 basechar 0
AnchorPoint: "Anchor-9" 570 975 basechar 0
AnchorPoint: "Anchor-8" 545 1000 basechar 0
LayerCount: 2
Fore
SplineSet
775 474 m 0,0,1
 773 512 773 512 768.5 540.5 c 128,-1,2
 764 569 764 569 756 585 c 0,3,4
 742 617 742 617 697 621 c 1,5,6
 653 620 653 620 615 573 c 0,7,8
 595 548 595 548 576 522 c 128,-1,9
 557 496 557 496 538 471.5 c 128,-1,10
 519 447 519 447 499 425.5 c 128,-1,11
 479 404 479 404 458 388 c 0,12,13
 431 368 431 368 385.5 346.5 c 128,-1,14
 340 325 340 325 271 303 c 0,15,16
 132 257 132 257 132 225 c 0,17,18
 130 175 130 175 261 162 c 0,19,20
 446 146 446 146 666 151 c 128,-1,21
 886 156 886 156 1149 167 c 0,22,23
 1174 167 1174 167 1165 150 c 0,24,25
 1142 119 1142 119 1118 101 c 128,-1,26
 1094 83 1094 83 1064 75 c 0,27,28
 758 -2 758 -2 315 -2 c 0,29,30
 50 -3 50 -3 50 150 c 0,31,32
 51 260 51 260 130 351 c 0,33,34
 147 369 147 369 174.5 385.5 c 128,-1,35
 202 402 202 402 235 417.5 c 128,-1,36
 268 433 268 433 304 448 c 128,-1,37
 340 463 340 463 373.5 478 c 128,-1,38
 407 493 407 493 435.5 508 c 128,-1,39
 464 523 464 523 483 539 c 0,40,41
 519 570 519 570 550 608.5 c 128,-1,42
 581 647 581 647 611 681 c 128,-1,43
 641 715 641 715 670.5 739 c 128,-1,44
 700 763 700 763 733 764 c 0,45,46
 807 764 807 764 828 655 c 1,47,48
 840 560 840 560 811 474 c 0,49,50
 802 452 802 452 790 451.5 c 128,-1,51
 778 451 778 451 775 474 c 0,0,1
EndSplineSet
Substitution2: "'fina' Terminal Forms in Arabic lookup 2 subtable" uniFBAF
EndChar

StartChar: uni06D6
Encoding: 286 1750 109
Width: 0
GlyphClass: 4
Flags: W
AnchorPoint: "Anchor-92" 200 1775 mark 0
AnchorPoint: "Anchor-82" 200 1775 mark 0
AnchorPoint: "Anchor-65" 200 1775 mark 0
AnchorPoint: "Anchor-57" 200 1775 mark 0
AnchorPoint: "Anchor-49" 200 1775 mark 0
AnchorPoint: "Anchor-42" 200 1775 mark 0
AnchorPoint: "Anchor-34" 200 1775 mark 0
AnchorPoint: "Anchor-26" 200 1775 mark 0
AnchorPoint: "Anchor-13" 200 1775 mark 0
LayerCount: 2
Fore
SplineSet
243 2055 m 0,0,1
 256 2050 256 2050 299 2052.5 c 128,-1,2
 342 2055 342 2055 405 2075 c 0,3,4
 447 2088 447 2088 473 2104 c 128,-1,5
 499 2120 499 2120 522 2145 c 1,6,7
 519 2170 519 2170 501 2186.5 c 128,-1,8
 483 2203 483 2203 458.5 2209 c 128,-1,9
 434 2215 434 2215 405.5 2209.5 c 128,-1,10
 377 2204 377 2204 353 2186 c 0,11,12
 332 2169 332 2169 311 2148 c 128,-1,13
 290 2127 290 2127 274 2107.5 c 128,-1,14
 258 2088 258 2088 249 2073.5 c 128,-1,15
 240 2059 240 2059 243 2055 c 0,0,1
168 2063 m 1,16,17
 192 2105 192 2105 213 2134.5 c 128,-1,18
 234 2164 234 2164 249 2183 c 0,19,20
 273 2217 273 2217 302 2245.5 c 128,-1,21
 331 2274 331 2274 362.5 2294.5 c 128,-1,22
 394 2315 394 2315 426.5 2326 c 128,-1,23
 459 2337 459 2337 491 2335 c 0,24,25
 569 2330 569 2330 589 2253 c 1,26,27
 602 2173 602 2173 559 2097 c 1,28,29
 517 2037 517 2037 433 1990 c 0,30,31
 388 1962 388 1962 337.5 1948 c 128,-1,32
 287 1934 287 1934 227 1930 c 0,33,34
 172 1927 172 1927 111 1944 c 128,-1,35
 50 1961 50 1961 -1 1991 c 0,36,37
 -10 1993 -10 1993 -22 1982 c 128,-1,38
 -34 1971 -34 1971 -47 1953.5 c 128,-1,39
 -60 1936 -60 1936 -73 1917 c 128,-1,40
 -86 1898 -86 1898 -98 1883 c 0,41,42
 -113 1869 -113 1869 -126 1873.5 c 128,-1,43
 -139 1878 -139 1878 -138 1890 c 0,44,45
 -134 1909 -134 1909 -121.5 1935.5 c 128,-1,46
 -109 1962 -109 1962 -93.5 1989 c 128,-1,47
 -78 2016 -78 2016 -61.5 2040.5 c 128,-1,48
 -45 2065 -45 2065 -33 2082 c 0,49,50
 -18 2103 -18 2103 -1 2114.5 c 128,-1,51
 16 2126 16 2126 41 2117 c 0,52,53
 73 2101 73 2101 95 2090.5 c 128,-1,54
 117 2080 117 2080 132 2074 c 128,-1,55
 147 2068 147 2068 155 2065.5 c 128,-1,56
 163 2063 163 2063 168 2063 c 1,16,17
EndSplineSet
Substitution2: "Single Substitution lookup 35 subtable" _.035
EndChar

StartChar: uni06D7
Encoding: 287 1751 110
Width: 109
GlyphClass: 4
Flags: W
LayerCount: 2
Fore
SplineSet
315 1745 m 0,0,1
 362 1751 362 1751 404 1757.5 c 128,-1,2
 446 1764 446 1764 486.5 1769.5 c 128,-1,3
 527 1775 527 1775 568.5 1779.5 c 128,-1,4
 610 1784 610 1784 657 1786 c 0,5,6
 666 1788 666 1788 662 1778 c 0,7,8
 653 1762 653 1762 645 1749.5 c 128,-1,9
 637 1737 637 1737 629 1723 c 1,10,11
 584 1720 584 1720 544 1716.5 c 128,-1,12
 504 1713 504 1713 465 1708.5 c 128,-1,13
 426 1704 426 1704 387 1698.5 c 128,-1,14
 348 1693 348 1693 305 1686 c 0,15,16
 292 1682 292 1682 265.5 1679.5 c 128,-1,17
 239 1677 239 1677 207.5 1677.5 c 128,-1,18
 176 1678 176 1678 143 1681.5 c 128,-1,19
 110 1685 110 1685 83.5 1693.5 c 128,-1,20
 57 1702 57 1702 41 1715.5 c 128,-1,21
 25 1729 25 1729 27 1749 c 0,22,23
 29 1777 29 1777 37.5 1797 c 128,-1,24
 46 1817 46 1817 60 1833 c 128,-1,25
 74 1849 74 1849 92 1863 c 128,-1,26
 110 1877 110 1877 131 1893 c 0,27,28
 150 1906 150 1906 175 1924.5 c 128,-1,29
 200 1943 200 1943 213 1964 c 1,30,31
 209 1991 209 1991 203 2027 c 128,-1,32
 197 2063 197 2063 191 2103 c 128,-1,33
 185 2143 185 2143 179.5 2185 c 128,-1,34
 174 2227 174 2227 170 2268 c 0,35,36
 168 2270 168 2270 170 2278 c 0,37,38
 176 2290 176 2290 185.5 2302.5 c 128,-1,39
 195 2315 195 2315 203 2327 c 0,40,41
 205 2331 205 2331 207 2331 c 128,-1,42
 209 2331 209 2331 209 2327 c 0,43,44
 211 2313 211 2313 212 2298.5 c 128,-1,45
 213 2284 213 2284 215 2270 c 0,46,47
 221 2194 221 2194 232.5 2125.5 c 128,-1,48
 244 2057 244 2057 256 1981 c 0,49,50
 262 1943 262 1943 293 1924.5 c 128,-1,51
 324 1906 324 1906 362.5 1903.5 c 128,-1,52
 401 1901 401 1901 436.5 1913.5 c 128,-1,53
 472 1926 472 1926 487 1950 c 1,54,55
 489 1962 489 1962 481 1977.5 c 128,-1,56
 473 1993 473 1993 469 2005 c 1,57,58
 461 1985 461 1985 442.5 1968.5 c 128,-1,59
 424 1952 424 1952 401 1950 c 0,60,61
 379 1948 379 1948 356.5 1960.5 c 128,-1,62
 334 1973 334 1973 330 1997 c 0,63,64
 328 2016 328 2016 333 2041.5 c 128,-1,65
 338 2067 338 2067 349 2090 c 128,-1,66
 360 2113 360 2113 377 2129 c 128,-1,67
 394 2145 394 2145 416 2145 c 0,68,69
 434 2147 434 2147 451 2131.5 c 128,-1,70
 468 2116 468 2116 482 2093.5 c 128,-1,71
 496 2071 496 2071 505 2046 c 128,-1,72
 514 2021 514 2021 516 2005 c 0,73,74
 517 1984 517 1984 517.5 1967.5 c 128,-1,75
 518 1951 518 1951 515 1936 c 128,-1,76
 512 1921 512 1921 504.5 1906.5 c 128,-1,77
 497 1892 497 1892 481 1876 c 0,78,79
 457 1849 457 1849 418 1840 c 128,-1,80
 379 1831 379 1831 339.5 1837.5 c 128,-1,81
 300 1844 300 1844 267.5 1865 c 128,-1,82
 235 1886 235 1886 223 1919 c 1,83,84
 219 1915 219 1915 216 1907 c 128,-1,85
 213 1899 213 1899 205 1887 c 0,86,87
 193 1870 193 1870 176.5 1859.5 c 128,-1,88
 160 1849 160 1849 143 1840.5 c 128,-1,89
 126 1832 126 1832 109.5 1823.5 c 128,-1,90
 93 1815 93 1815 80 1803 c 0,91,92
 78 1801 78 1801 73 1795.5 c 128,-1,93
 68 1790 68 1790 68 1784 c 0,94,95
 68 1779 68 1779 77.5 1774 c 128,-1,96
 87 1769 87 1769 92 1764 c 0,97,98
 113 1754 113 1754 142 1748 c 128,-1,99
 171 1742 171 1742 202 1740 c 128,-1,100
 233 1738 233 1738 262.5 1739.5 c 128,-1,101
 292 1741 292 1741 315 1745 c 0,0,1
444 2042 m 1,102,103
 444 2055 444 2055 429 2067 c 128,-1,104
 414 2079 414 2079 401 2077 c 0,105,106
 389 2075 389 2075 377 2062.5 c 128,-1,107
 365 2050 365 2050 365 2036 c 1,108,109
 379 2017 379 2017 403 2019.5 c 128,-1,110
 427 2022 427 2022 444 2042 c 1,102,103
446 2200 m 2,111,112
 442 2196 442 2196 438 2198 c 2,113,-1
 387 2233 l 1,114,-1
 358 2188 l 2,115,116
 356 2186 356 2186 354 2186 c 128,-1,117
 352 2186 352 2186 350 2186 c 2,118,-1
 297 2222 l 2,119,120
 291 2222 291 2222 295 2229 c 2,121,-1
 328 2274 l 2,122,123
 329 2278 329 2278 334 2276 c 2,124,-1
 385 2241 l 1,125,-1
 418 2286 l 2,126,127
 422 2293 422 2293 422 2288 c 1,128,-1
 475 2251 l 2,129,130
 479 2249 479 2249 475 2245 c 2,131,-1
 446 2200 l 2,111,112
EndSplineSet
EndChar

StartChar: uni06D8
Encoding: 288 1752 111
Width: 104
GlyphClass: 4
Flags: W
LayerCount: 2
Fore
SplineSet
356 1769 m 0,0,1
 379 1800 379 1800 404.5 1818.5 c 128,-1,2
 430 1837 430 1837 451 1835 c 0,3,4
 469 1833 469 1833 480.5 1816.5 c 128,-1,5
 492 1800 492 1800 502 1778 c 0,6,7
 509 1763 509 1763 514.5 1746.5 c 128,-1,8
 520 1730 520 1730 523.5 1715 c 128,-1,9
 527 1700 527 1700 528.5 1688 c 128,-1,10
 530 1676 530 1676 530 1669 c 0,11,12
 526 1639 526 1639 510.5 1614 c 128,-1,13
 495 1589 495 1589 481 1583 c 1,14,15
 449 1581 449 1581 414 1589 c 128,-1,16
 379 1597 379 1597 350 1616 c 0,17,18
 342 1622 342 1622 335 1627 c 128,-1,19
 328 1632 328 1632 322 1638 c 1,20,21
 303 1596 303 1596 277.5 1566 c 128,-1,22
 252 1536 252 1536 213 1511 c 0,23,24
 189 1497 189 1497 167.5 1487 c 128,-1,25
 146 1477 146 1477 124 1469.5 c 128,-1,26
 102 1462 102 1462 79.5 1455 c 128,-1,27
 57 1448 57 1448 31 1440 c 0,28,29
 20 1436 20 1436 14 1442 c 128,-1,30
 8 1448 8 1448 20 1456 c 0,31,32
 42 1475 42 1475 62.5 1488 c 128,-1,33
 83 1501 83 1501 102.5 1513 c 128,-1,34
 122 1525 122 1525 141.5 1537.5 c 128,-1,35
 161 1550 161 1550 182 1567 c 0,36,37
 212 1587 212 1587 236 1610 c 128,-1,38
 260 1633 260 1633 280 1659 c 128,-1,39
 300 1685 300 1685 318.5 1712.5 c 128,-1,40
 337 1740 337 1740 356 1769 c 0,0,1
360 1710 m 1,41,42
 383 1692 383 1692 404.5 1681.5 c 128,-1,43
 426 1671 426 1671 465 1667 c 1,44,45
 469 1675 469 1675 464 1691.5 c 128,-1,46
 459 1708 459 1708 459 1716 c 1,47,48
 449 1731 449 1731 438.5 1742 c 128,-1,49
 428 1753 428 1753 412 1753 c 0,50,51
 393 1753 393 1753 381 1738.5 c 128,-1,52
 369 1724 369 1724 360 1710 c 1,41,42
EndSplineSet
EndChar

StartChar: side
Encoding: 289 1759 112
Width: 359
GlyphClass: 2
Flags: W
AnchorPoint: "Cursive-95" 175 0 entry 0
AnchorPoint: "Anchor-16" 0 0 basechar 0
AnchorPoint: "Anchor-15" 0 0 basechar 0
AnchorPoint: "Anchor-14" 0 0 basechar 0
AnchorPoint: "Anchor-13" 550 1620 basechar 0
AnchorPoint: "Anchor-12" 0 0 basechar 0
AnchorPoint: "Anchor-11" 0 0 basechar 0
AnchorPoint: "Anchor-10" 0 0 basechar 0
AnchorPoint: "Anchor-9" 0 0 basechar 0
AnchorPoint: "Anchor-8" 0 0 basechar 0
LayerCount: 2
Fore
SplineSet
27 221 m 0,0,1
 27 290 27 290 73 333 c 0,2,3
 117 378 117 378 177 378 c 0,4,5
 243 378 243 378 288 333 c 0,6,7
 334 290 334 290 334 221 c 0,8,9
 334 160 334 160 289 116 c 0,10,11
 246 71 246 71 177 71 c 0,12,13
 116 71 116 71 72 116 c 0,14,15
 27 160 27 160 27 221 c 0,0,1
EndSplineSet
EndChar

StartChar: down
Encoding: 290 1770 113
Width: 0
GlyphClass: 4
Flags: W
AnchorPoint: "Anchor-89" 250 -75 mark 0
AnchorPoint: "Anchor-84" 225 -275 mark 0
AnchorPoint: "Anchor-77" 225 -275 mark 0
AnchorPoint: "Anchor-72" 225 -275 mark 0
AnchorPoint: "Anchor-67" 225 -275 mark 0
AnchorPoint: "Anchor-59" 225 -275 mark 0
AnchorPoint: "Anchor-51" 225 -275 mark 0
AnchorPoint: "Anchor-44" 225 -275 mark 0
AnchorPoint: "Anchor-36" 225 -275 mark 0
AnchorPoint: "Anchor-28" 225 -275 mark 0
AnchorPoint: "Anchor-21" 225 -275 mark 0
AnchorPoint: "Anchor-16" 225 -275 mark 0
AnchorPoint: "Anchor-2" 225 -275 mark 0
LayerCount: 2
Fore
SplineSet
88 -374 m 0,0,1
 88 -305 88 -305 133 -260 c 0,2,3
 179 -216 179 -216 238 -216 c 0,4,5
 304 -216 304 -216 351 -260 c 0,6,7
 396 -305 396 -305 396 -374 c 0,8,9
 396 -434 396 -434 352 -479 c 0,10,11
 307 -524 307 -524 238 -524 c 0,12,13
 178 -524 178 -524 132 -479 c 0,14,15
 88 -434 88 -434 88 -374 c 0,0,1
EndSplineSet
EndChar

StartChar: up
Encoding: 291 1772 114
Width: 0
GlyphClass: 4
Flags: W
AnchorPoint: "Anchor-101" 0 0 basemark 0
AnchorPoint: "Anchor-100" 0 0 basemark 0
AnchorPoint: "Anchor-99" 0 0 basemark 0
AnchorPoint: "Anchor-98" 0 0 basemark 0
AnchorPoint: "Anchor-97" 130 800 basemark 0
AnchorPoint: "Anchor-85" 150 450 mark 0
AnchorPoint: "Anchor-15" 150 450 mark 0
AnchorPoint: "Anchor-7" 150 450 mark 0
LayerCount: 2
Fore
SplineSet
3 454 m 0,0,1
 3 524 3 524 49 569 c 256,2,3
 95 614 95 614 155 614 c 0,4,5
 222 614 222 614 269 569 c 0,6,7
 315 524 315 524 315 454 c 0,8,9
 315 393 315 393 270 347 c 0,10,11
 225 302 225 302 155 302 c 0,12,13
 94 302 94 302 48 347 c 0,14,15
 3 393 3 393 3 454 c 0,0,1
EndSplineSet
EndChar

StartChar: uni06DC
Encoding: 292 1756 115
Width: 274
GlyphClass: 4
Flags: W
AnchorPoint: "Anchor-101" 0 0 basemark 0
AnchorPoint: "Anchor-100" 0 0 basemark 0
AnchorPoint: "Anchor-99" 0 0 basemark 0
AnchorPoint: "Anchor-98" 0 0 basemark 0
AnchorPoint: "Anchor-97" -50 1825 basemark 0
AnchorPoint: "Anchor-100" 50 900 mark 0
AnchorPoint: "Anchor-90" 0 1300 mark 0
AnchorPoint: "Anchor-86" 0 1300 mark 0
AnchorPoint: "Anchor-78" 0 1300 mark 0
AnchorPoint: "Anchor-73" 0 1300 mark 0
AnchorPoint: "Anchor-68" 0 1300 mark 0
AnchorPoint: "Anchor-60" 0 1300 mark 0
AnchorPoint: "Anchor-52" 0 1300 mark 0
AnchorPoint: "Anchor-45" 0 1300 mark 0
AnchorPoint: "Anchor-37" 0 1300 mark 0
AnchorPoint: "Anchor-29" 0 1300 mark 0
AnchorPoint: "Anchor-22" 0 1300 mark 0
AnchorPoint: "Anchor-17" 0 1300 mark 0
AnchorPoint: "Anchor-8" 0 1300 mark 0
AnchorPoint: "Anchor-4" 0 0 mark 0
LayerCount: 2
Fore
SplineSet
-47 1626 m 1,0,1
 -35 1617 -35 1617 -18 1613 c 128,-1,2
 -1 1609 -1 1609 17 1609.5 c 128,-1,3
 35 1610 35 1610 51.5 1614.5 c 128,-1,4
 68 1619 68 1619 78 1628 c 0,5,6
 102 1640 102 1640 117.5 1662.5 c 128,-1,7
 133 1685 133 1685 149 1718 c 0,8,9
 158 1728 158 1728 167 1725 c 128,-1,10
 176 1722 176 1722 176 1712 c 0,11,12
 172 1697 172 1697 168 1689 c 128,-1,13
 164 1681 164 1681 160 1666 c 1,14,15
 166 1660 166 1660 181.5 1652 c 128,-1,16
 197 1644 197 1644 215.5 1637.5 c 128,-1,17
 234 1631 234 1631 251.5 1628 c 128,-1,18
 269 1625 269 1625 278 1630 c 1,19,20
 278 1648 278 1648 271 1667.5 c 128,-1,21
 264 1687 264 1687 256 1705 c 1,22,23
 260 1720 260 1720 268 1734 c 128,-1,24
 276 1748 276 1748 287 1763 c 0,25,26
 287 1767 287 1767 289 1767 c 128,-1,27
 291 1767 291 1767 291 1765 c 0,28,29
 305 1732 305 1732 313 1697 c 128,-1,30
 321 1662 321 1662 309 1628 c 2,31,-1
 293 1580 l 2,32,33
 282 1554 282 1554 258 1548 c 0,34,35
 246 1544 246 1544 227.5 1547.5 c 128,-1,36
 209 1551 209 1551 190 1559 c 128,-1,37
 171 1567 171 1567 154 1577 c 128,-1,38
 137 1587 137 1587 129 1595 c 1,39,40
 102 1556 102 1556 67.5 1540.5 c 128,-1,41
 33 1525 33 1525 -16 1527 c 1,42,43
 -12 1501 -12 1501 -12 1473 c 128,-1,44
 -12 1445 -12 1445 -18 1417 c 0,45,46
 -29 1375 -29 1375 -60 1343.5 c 128,-1,47
 -91 1312 -91 1312 -131.5 1291.5 c 128,-1,48
 -172 1271 -172 1271 -217 1261 c 128,-1,49
 -262 1251 -262 1251 -301 1251 c 0,50,51
 -384 1251 -384 1251 -436 1296 c 0,52,53
 -490 1341 -490 1341 -492 1421 c 0,54,55
 -492 1466 -492 1466 -474.5 1511 c 128,-1,56
 -457 1556 -457 1556 -428 1593 c 0,57,58
 -424 1599 -424 1599 -419 1594 c 128,-1,59
 -414 1589 -414 1589 -418 1585 c 0,60,61
 -428 1560 -428 1560 -438.5 1534.5 c 128,-1,62
 -449 1509 -449 1509 -453 1478 c 256,63,64
 -457 1447 -457 1447 -448.5 1419.5 c 128,-1,65
 -440 1392 -440 1392 -416 1370 c 0,66,67
 -383 1341 -383 1341 -338.5 1334.5 c 128,-1,68
 -294 1328 -294 1328 -252 1333 c 0,69,70
 -224 1337 -224 1337 -196 1344.5 c 128,-1,71
 -168 1352 -168 1352 -139 1365 c 0,72,73
 -111 1380 -111 1380 -89.5 1398.5 c 128,-1,74
 -68 1417 -68 1417 -51 1443 c 1,75,76
 -53 1492 -53 1492 -74.5 1534 c 128,-1,77
 -96 1576 -96 1576 -121 1619 c 1,78,79
 -117 1638 -117 1638 -109.5 1652 c 128,-1,80
 -102 1666 -102 1666 -96 1687 c 1,81,82
 -90 1693 -90 1693 -88 1687 c 0,83,84
 -76 1671 -76 1671 -65.5 1654.5 c 128,-1,85
 -55 1638 -55 1638 -47 1626 c 1,0,1
EndSplineSet
EndChar

StartChar: uni06DD
Encoding: 293 1757 116
Width: 1595
GlyphClass: 2
Flags: W
LayerCount: 2
Fore
SplineSet
780 -536 m 256,0,1
 714 -536 714 -536 660 -511 c 128,-1,2
 606 -486 606 -486 561 -438 c 1,3,4
 587 -382 587 -382 542 -342 c 0,5,6
 496 -300 496 -300 434 -326 c 0,7,8
 384 -344 384 -344 344 -335.5 c 128,-1,9
 304 -327 304 -327 277.5 -302.5 c 128,-1,10
 251 -278 251 -278 239 -243.5 c 128,-1,11
 227 -209 227 -209 233 -174 c 128,-1,12
 239 -139 239 -139 265 -109 c 128,-1,13
 291 -79 291 -79 340 -65 c 1,14,15
 259 -25 259 -25 199.5 33.5 c 128,-1,16
 140 92 140 92 102.5 161.5 c 128,-1,17
 65 231 65 231 48.5 308 c 128,-1,18
 32 385 32 385 37 462 c 0,19,20
 41 540 41 540 67 613 c 128,-1,21
 93 686 93 686 139.5 749 c 128,-1,22
 186 812 186 812 254 861 c 128,-1,23
 322 910 322 910 410 940 c 1,24,25
 390 992 390 992 396 1031 c 128,-1,26
 402 1070 402 1070 423.5 1099 c 128,-1,27
 445 1128 445 1128 478 1148 c 128,-1,28
 511 1168 511 1168 544.5 1183 c 128,-1,29
 578 1198 578 1198 608 1209 c 128,-1,30
 638 1220 638 1220 654 1230 c 0,31,32
 690 1247 690 1247 654 1277 c 0,33,34
 614 1305 614 1305 606 1335.5 c 128,-1,35
 598 1366 598 1366 609.5 1397.5 c 128,-1,36
 621 1429 621 1429 646.5 1460.5 c 128,-1,37
 672 1492 672 1492 699.5 1522.5 c 128,-1,38
 727 1553 727 1553 750 1582 c 128,-1,39
 773 1611 773 1611 780 1636 c 1,40,41
 784 1610 784 1610 806.5 1581.5 c 128,-1,42
 829 1553 829 1553 856.5 1522.5 c 128,-1,43
 884 1492 884 1492 911 1460.5 c 128,-1,44
 938 1429 938 1429 951 1397.5 c 128,-1,45
 964 1366 964 1366 957 1335.5 c 128,-1,46
 950 1305 950 1305 910 1277 c 1,47,48
 863 1253 863 1253 910 1230 c 0,49,50
 927 1220 927 1220 956.5 1209 c 128,-1,51
 986 1198 986 1198 1019 1183.5 c 128,-1,52
 1052 1169 1052 1169 1083.5 1148.5 c 128,-1,53
 1115 1128 1115 1128 1136 1099 c 128,-1,54
 1157 1070 1157 1070 1162.5 1031 c 128,-1,55
 1168 992 1168 992 1149 940 c 1,56,57
 1237 910 1237 910 1304 861 c 128,-1,58
 1371 812 1371 812 1417.5 749 c 128,-1,59
 1464 686 1464 686 1490 613 c 128,-1,60
 1516 540 1516 540 1522 462 c 0,61,62
 1527 385 1527 385 1510 308 c 128,-1,63
 1493 231 1493 231 1454.5 161.5 c 128,-1,64
 1416 92 1416 92 1356.5 33.5 c 128,-1,65
 1297 -25 1297 -25 1218 -65 c 1,66,67
 1267 -79 1267 -79 1292.5 -109 c 128,-1,68
 1318 -139 1318 -139 1323.5 -174 c 128,-1,69
 1329 -209 1329 -209 1317 -243.5 c 128,-1,70
 1305 -278 1305 -278 1278.5 -302.5 c 128,-1,71
 1252 -327 1252 -327 1213 -335.5 c 128,-1,72
 1174 -344 1174 -344 1126 -326 c 0,73,74
 1060 -300 1060 -300 1017 -342 c 1,75,76
 969 -383 969 -383 996 -438 c 1,77,78
 951 -486 951 -486 898.5 -511 c 128,-1,79
 846 -536 846 -536 780 -536 c 256,0,1
780 48 m 0,80,81
 820 48 820 48 857 35.5 c 128,-1,82
 894 23 894 23 925 2.5 c 128,-1,83
 956 -18 956 -18 980 -43 c 128,-1,84
 1004 -68 1004 -68 1017 -93 c 1,85,86
 1052 -35 1052 -35 1104 -22 c 1,87,88
 1284 45 1284 45 1367 193 c 0,89,90
 1449 340 1449 340 1433 488 c 0,91,92
 1418 636 1418 636 1317 743 c 0,93,94
 1214 852 1214 852 1027 852 c 1,95,96
 1057 897 1057 897 1066 929 c 128,-1,97
 1075 961 1075 961 1058 981 c 0,98,99
 1024 1024 1024 1024 965 1052 c 0,100,101
 903 1080 903 1080 842 1121 c 0,102,103
 813 1143 813 1143 796.5 1175.5 c 128,-1,104
 780 1208 780 1208 780 1253 c 1,105,106
 780 1165 780 1165 718 1121 c 0,107,108
 685 1101 685 1101 654 1083.5 c 128,-1,109
 623 1066 623 1066 594 1052 c 0,110,111
 532 1023 532 1023 503 981 c 0,112,113
 471 940 471 940 532 852 c 1,114,115
 346 852 346 852 243 743 c 0,116,117
 189 689 189 689 161 625 c 128,-1,118
 133 561 133 561 125 488 c 0,119,120
 111 332 111 332 190 193 c 1,121,122
 265 46 265 46 453 -22 c 1,123,124
 503 -35 503 -35 547 -93 c 1,125,126
 557 -68 557 -68 579 -43 c 128,-1,127
 601 -18 601 -18 631.5 2.5 c 128,-1,128
 662 23 662 23 700 35.5 c 128,-1,129
 738 48 738 48 780 48 c 0,80,81
374 -130 m 0,130,131
 345 -130 345 -130 323.5 -149 c 128,-1,132
 302 -168 302 -168 302 -197 c 0,133,134
 302 -227 302 -227 323.5 -248.5 c 128,-1,135
 345 -270 345 -270 374 -270 c 0,136,137
 405 -270 405 -270 427 -248.5 c 128,-1,138
 449 -227 449 -227 449 -197 c 0,139,140
 449 -168 449 -168 427 -149 c 128,-1,141
 405 -130 405 -130 374 -130 c 0,130,131
1183 -130 m 0,142,143
 1169 -130 1169 -130 1155.5 -135 c 128,-1,144
 1142 -140 1142 -140 1131.5 -149 c 128,-1,145
 1121 -158 1121 -158 1114.5 -170 c 128,-1,146
 1108 -182 1108 -182 1108 -197 c 256,147,148
 1108 -212 1108 -212 1114.5 -225.5 c 128,-1,149
 1121 -239 1121 -239 1131.5 -248.5 c 128,-1,150
 1142 -258 1142 -258 1155.5 -264 c 128,-1,151
 1169 -270 1169 -270 1183 -270 c 0,152,153
 1218 -270 1218 -270 1237 -248.5 c 128,-1,154
 1256 -227 1256 -227 1256 -197 c 0,155,156
 1256 -130 1256 -130 1183 -130 c 0,142,143
780 -55 m 0,157,158
 742 -55 742 -55 707 -69.5 c 128,-1,159
 672 -84 672 -84 646 -109 c 128,-1,160
 620 -134 620 -134 604.5 -168.5 c 128,-1,161
 589 -203 589 -203 589 -242 c 256,162,163
 589 -281 589 -281 604.5 -315.5 c 128,-1,164
 620 -350 620 -350 646 -376 c 128,-1,165
 672 -402 672 -402 707 -417.5 c 128,-1,166
 742 -433 742 -433 780 -433 c 0,167,168
 820 -433 820 -433 854 -417.5 c 128,-1,169
 888 -402 888 -402 913.5 -376 c 128,-1,170
 939 -350 939 -350 953.5 -315.5 c 128,-1,171
 968 -281 968 -281 968 -242 c 256,172,173
 968 -203 968 -203 953.5 -168.5 c 128,-1,174
 939 -134 939 -134 913.5 -109 c 128,-1,175
 888 -84 888 -84 854 -69.5 c 128,-1,176
 820 -55 820 -55 780 -55 c 0,157,158
780 -172 m 0,177,178
 811 -172 811 -172 833 -191.5 c 128,-1,179
 855 -211 855 -211 855 -242 c 0,180,181
 855 -271 855 -271 833 -292.5 c 128,-1,182
 811 -314 811 -314 780 -314 c 0,183,184
 747 -314 747 -314 728 -292.5 c 128,-1,185
 709 -271 709 -271 709 -242 c 0,186,187
 709 -172 709 -172 780 -172 c 0,177,178
776 1496 m 1,188,189
 761 1471 761 1471 746.5 1452.5 c 128,-1,190
 732 1434 732 1434 727.5 1416.5 c 128,-1,191
 723 1399 723 1399 733 1379.5 c 128,-1,192
 743 1360 743 1360 776 1333 c 1,193,194
 811 1360 811 1360 819.5 1379.5 c 128,-1,195
 828 1399 828 1399 821.5 1416.5 c 128,-1,196
 815 1434 815 1434 800.5 1452.5 c 128,-1,197
 786 1471 786 1471 776 1496 c 1,188,189
EndSplineSet
EndChar

StartChar: uni06DE
Encoding: 294 1758 117
Width: 1273
GlyphClass: 2
Flags: W
LayerCount: 2
Fore
SplineSet
681 416 m 0,0,1
 702 416 702 416 720 424 c 128,-1,2
 738 432 738 432 751.5 446 c 128,-1,3
 765 460 765 460 772.5 478 c 128,-1,4
 780 496 780 496 780 517 c 0,5,6
 780 559 780 559 751.5 588 c 128,-1,7
 723 617 723 617 681 617 c 0,8,9
 661 617 661 617 642.5 609 c 128,-1,10
 624 601 624 601 610.5 587.5 c 128,-1,11
 597 574 597 574 589 556 c 128,-1,12
 581 538 581 538 581 517 c 256,13,14
 581 496 581 496 589 478 c 128,-1,15
 597 460 597 460 610.5 446 c 128,-1,16
 624 432 624 432 642.5 424 c 128,-1,17
 661 416 661 416 681 416 c 0,0,1
682 3 m 256,18,19
 657 3 657 3 640 11.5 c 128,-1,20
 623 20 623 20 612.5 34 c 128,-1,21
 602 48 602 48 597.5 65.5 c 128,-1,22
 593 83 593 83 593 101 c 0,23,24
 593 123 593 123 600 155 c 128,-1,25
 607 187 607 187 616.5 221 c 128,-1,26
 626 255 626 255 637 286 c 128,-1,27
 648 317 648 317 656 337 c 0,28,29
 667 361 667 361 681 361 c 128,-1,30
 695 361 695 361 706 337 c 0,31,32
 714 317 714 317 725 286 c 128,-1,33
 736 255 736 255 746 221 c 128,-1,34
 756 187 756 187 763 155 c 128,-1,35
 770 123 770 123 770 101 c 0,36,37
 770 83 770 83 765.5 65.5 c 128,-1,38
 761 48 761 48 750.5 34 c 128,-1,39
 740 20 740 20 723.5 11.5 c 128,-1,40
 707 3 707 3 682 3 c 256,18,19
283 197 m 0,41,42
 268 216 268 216 264 235 c 128,-1,43
 260 254 260 254 264 270.5 c 128,-1,44
 268 287 268 287 279 302 c 128,-1,45
 290 317 290 317 304 329 c 0,46,47
 321 342 321 342 350.5 356 c 128,-1,48
 380 370 380 370 412.5 383 c 128,-1,49
 445 396 445 396 475.5 406.5 c 128,-1,50
 506 417 506 417 526 424 c 0,51,52
 552 432 552 432 561.5 420 c 128,-1,53
 571 408 571 408 557 384 c 0,54,55
 546 366 546 366 529 338 c 128,-1,56
 512 310 512 310 492.5 281 c 128,-1,57
 473 252 473 252 452.5 226.5 c 128,-1,58
 432 201 432 201 415 187 c 0,59,60
 401 176 401 176 384 168.5 c 128,-1,61
 367 161 367 161 350 161 c 128,-1,62
 333 161 333 161 315.5 169 c 128,-1,63
 298 177 298 177 283 197 c 0,41,42
186 632 m 256,64,65
 192 657 192 657 204 671.5 c 128,-1,66
 216 686 216 686 231.5 693.5 c 128,-1,67
 247 701 247 701 265 701.5 c 128,-1,68
 283 702 283 702 301 698 c 0,69,70
 322 693 322 693 351.5 678.5 c 128,-1,71
 381 664 381 664 411 646.5 c 128,-1,72
 441 629 441 629 468.5 611 c 128,-1,73
 496 593 496 593 513 580 c 0,74,75
 532 566 532 566 530.5 550.5 c 128,-1,76
 529 535 529 535 501 533 c 0,77,78
 480 530 480 530 448 525.5 c 128,-1,79
 416 521 416 521 381.5 518.5 c 128,-1,80
 347 516 347 516 315 516.5 c 128,-1,81
 283 517 283 517 262 522 c 0,82,83
 244 526 244 526 228 534.5 c 128,-1,84
 212 543 212 543 200.5 556.5 c 128,-1,85
 189 570 189 570 184.5 588.5 c 128,-1,86
 180 607 180 607 186 632 c 256,64,65
462 980 m 0,87,88
 484 991 484 991 503 990.5 c 128,-1,89
 522 990 522 990 537.5 982 c 128,-1,90
 553 974 553 974 564.5 960 c 128,-1,91
 576 946 576 946 584 929 c 0,92,93
 593 909 593 909 600.5 877.5 c 128,-1,94
 608 846 608 846 613 811.5 c 128,-1,95
 618 777 618 777 621.5 744 c 128,-1,96
 625 711 625 711 626 690 c 0,97,98
 628 662 628 662 615 656.5 c 128,-1,99
 602 651 602 651 582 668 c 0,100,101
 566 683 566 683 543 706 c 128,-1,102
 520 729 520 729 497 755 c 128,-1,103
 474 781 474 781 454 807 c 128,-1,104
 434 833 434 833 425 853 c 0,105,106
 417 870 417 870 413 887.5 c 128,-1,107
 409 905 409 905 412.5 922 c 128,-1,108
 416 939 416 939 427.5 954 c 128,-1,109
 439 969 439 969 462 980 c 0,87,88
903 979 m 0,110,111
 925 967 925 967 937 952 c 128,-1,112
 949 937 949 937 952.5 920 c 128,-1,113
 956 903 956 903 952.5 885.5 c 128,-1,114
 949 868 949 868 941 851 c 0,115,116
 931 831 931 831 910.5 805.5 c 128,-1,117
 890 780 890 780 866.5 754 c 128,-1,118
 843 728 843 728 820 705 c 128,-1,119
 797 682 797 682 781 667 c 0,120,121
 761 650 761 650 747.5 656.5 c 128,-1,122
 734 663 734 663 736 690 c 0,123,124
 738 711 738 711 741.5 744 c 128,-1,125
 745 777 745 777 750.5 811.5 c 128,-1,126
 756 846 756 846 763.5 877.5 c 128,-1,127
 771 909 771 909 781 928 c 0,128,129
 789 945 789 945 800.5 959 c 128,-1,130
 812 973 812 973 827.5 981 c 128,-1,131
 843 989 843 989 862 989.5 c 128,-1,132
 881 990 881 990 903 979 c 0,110,111
1177 629 m 0,133,134
 1182 604 1182 604 1177.5 585.5 c 128,-1,135
 1173 567 1173 567 1162 553.5 c 128,-1,136
 1151 540 1151 540 1135 532 c 128,-1,137
 1119 524 1119 524 1101 520 c 0,138,139
 1080 515 1080 515 1047.5 515 c 128,-1,140
 1015 515 1015 515 980.5 517.5 c 128,-1,141
 946 520 946 520 914 524.5 c 128,-1,142
 882 529 882 529 861 532 c 0,143,144
 835 536 835 536 831.5 550 c 128,-1,145
 828 564 828 564 849 579 c 0,146,147
 867 592 867 592 894.5 610 c 128,-1,148
 922 628 922 628 952.5 645 c 128,-1,149
 983 662 983 662 1012 676.5 c 128,-1,150
 1041 691 1041 691 1062 696 c 0,151,152
 1080 700 1080 700 1098 699 c 128,-1,153
 1116 698 1116 698 1131.5 691 c 128,-1,154
 1147 684 1147 684 1159 669 c 128,-1,155
 1171 654 1171 654 1177 629 c 0,133,134
1076 194 m 0,156,157
 1061 174 1061 174 1044 166 c 128,-1,158
 1027 158 1027 158 1009.5 158.5 c 128,-1,159
 992 159 992 159 975.5 166.5 c 128,-1,160
 959 174 959 174 945 185 c 0,161,162
 928 199 928 199 908 225 c 128,-1,163
 888 251 888 251 868.5 280 c 128,-1,164
 849 309 849 309 832 337 c 128,-1,165
 815 365 815 365 804 383 c 0,166,167
 790 408 790 408 800 419.5 c 128,-1,168
 810 431 810 431 836 423 c 0,169,170
 856 416 856 416 886.5 405 c 128,-1,171
 917 394 917 394 949 381 c 128,-1,172
 981 368 981 368 1010.5 353.5 c 128,-1,173
 1040 339 1040 339 1057 326 c 0,174,175
 1071 314 1071 314 1081.5 299.5 c 128,-1,176
 1092 285 1092 285 1096 268 c 128,-1,177
 1100 251 1100 251 1096 232.5 c 128,-1,178
 1092 214 1092 214 1076 194 c 0,156,157
EndSplineSet
EndChar

StartChar: uni06E0
Encoding: 295 1760 118
Width: 0
GlyphClass: 4
Flags: W
AnchorPoint: "Anchor-90" 275 -25 mark 0
AnchorPoint: "Anchor-86" 275 -25 mark 0
AnchorPoint: "Anchor-78" 275 -25 mark 0
AnchorPoint: "Anchor-73" 275 -25 mark 0
AnchorPoint: "Anchor-68" 275 -25 mark 0
AnchorPoint: "Anchor-60" 275 -25 mark 0
AnchorPoint: "Anchor-52" 275 -25 mark 0
AnchorPoint: "Anchor-45" 275 -25 mark 0
AnchorPoint: "Anchor-37" 275 -25 mark 0
AnchorPoint: "Anchor-29" 275 -25 mark 0
AnchorPoint: "Anchor-22" 275 -25 mark 0
AnchorPoint: "Anchor-17" 275 -25 mark 0
AnchorPoint: "Anchor-8" 275 -25 mark 0
AnchorPoint: "Anchor-4" 0 0 mark 0
LayerCount: 2
Fore
SplineSet
102 195 m 0,0,1
 102 230 102 230 112.5 264.5 c 128,-1,2
 123 299 123 299 142.5 326 c 128,-1,3
 162 353 162 353 190.5 370 c 128,-1,4
 219 387 219 387 256 387 c 0,5,6
 292 387 292 387 320 370 c 128,-1,7
 348 353 348 353 367.5 325.5 c 128,-1,8
 387 298 387 298 397.5 263.5 c 128,-1,9
 408 229 408 229 408 195 c 0,10,11
 407 159 407 159 397 124.5 c 128,-1,12
 387 90 387 90 368 63 c 128,-1,13
 349 36 349 36 321 18.5 c 128,-1,14
 293 1 293 1 256 0 c 0,15,16
 218 1 218 1 189.5 18.5 c 128,-1,17
 161 36 161 36 142 63 c 128,-1,18
 123 90 123 90 113 124.5 c 128,-1,19
 103 159 103 159 102 195 c 0,0,1
174 195 m 0,20,21
 174 170 174 170 176 143.5 c 128,-1,22
 178 117 178 117 186.5 94.5 c 128,-1,23
 195 72 195 72 211 57.5 c 128,-1,24
 227 43 227 43 256 43 c 0,25,26
 284 43 284 43 300.5 57.5 c 128,-1,27
 317 72 317 72 325.5 94.5 c 128,-1,28
 334 117 334 117 336 143.5 c 128,-1,29
 338 170 338 170 338 195 c 0,30,31
 338 219 338 219 336 245.5 c 128,-1,32
 334 272 334 272 325.5 294.5 c 128,-1,33
 317 317 317 317 300.5 331.5 c 128,-1,34
 284 346 284 346 256 346 c 0,35,36
 227 346 227 346 211 331.5 c 128,-1,37
 195 317 195 317 186.5 294.5 c 128,-1,38
 178 272 178 272 176 245.5 c 128,-1,39
 174 219 174 219 174 195 c 0,20,21
EndSplineSet
EndChar

StartChar: uni06E1
Encoding: 296 1761 119
Width: 0
GlyphClass: 4
Flags: W
AnchorPoint: "Anchor-90" 200 -50 mark 0
AnchorPoint: "Anchor-86" 200 -50 mark 0
AnchorPoint: "Anchor-78" 200 -50 mark 0
AnchorPoint: "Anchor-73" 200 -50 mark 0
AnchorPoint: "Anchor-68" 200 -50 mark 0
AnchorPoint: "Anchor-60" 200 -50 mark 0
AnchorPoint: "Anchor-52" 200 -50 mark 0
AnchorPoint: "Anchor-45" 200 -50 mark 0
AnchorPoint: "Anchor-37" 200 -50 mark 0
AnchorPoint: "Anchor-29" 200 -50 mark 0
AnchorPoint: "Anchor-22" 200 -50 mark 0
AnchorPoint: "Anchor-17" 200 -50 mark 0
AnchorPoint: "Anchor-8" 200 -50 mark 0
AnchorPoint: "Anchor-4" 225 -15 mark 0
LayerCount: 2
Fore
SplineSet
414 238 m 0,0,1
 412 231 412 231 409 214 c 128,-1,2
 406 197 406 197 399 180 c 0,3,4
 393 166 393 166 387 152.5 c 128,-1,5
 381 139 381 139 371 131 c 0,6,7
 369 127 369 127 359.5 124 c 128,-1,8
 350 121 350 121 344 121 c 0,9,10
 343 121 343 121 337.5 116 c 128,-1,11
 332 111 332 111 324.5 104.5 c 128,-1,12
 317 98 317 98 310 92 c 128,-1,13
 303 86 303 86 299 84 c 0,14,15
 270 64 270 64 237.5 51 c 128,-1,16
 205 38 205 38 175 29 c 128,-1,17
 145 20 145 20 120 14.5 c 128,-1,18
 95 9 95 9 80 4 c 0,19,20
 68 0 68 0 58.5 4 c 128,-1,21
 49 8 49 8 47 20 c 0,22,23
 45 27 45 27 49 33 c 128,-1,24
 53 39 53 39 59 44.5 c 128,-1,25
 65 50 65 50 71.5 53.5 c 128,-1,26
 78 57 78 57 82 59 c 2,27,-1
 248 139 l 2,28,29
 285 160 285 160 285 164 c 0,30,31
 285 165 285 165 275.5 171 c 128,-1,32
 266 177 266 177 251.5 184 c 128,-1,33
 237 191 237 191 219.5 197 c 128,-1,34
 202 203 202 203 186 205 c 0,35,36
 143 213 143 213 104.5 200.5 c 128,-1,37
 66 188 66 188 39 145 c 0,38,39
 31 131 31 131 25.5 141.5 c 128,-1,40
 20 152 20 152 27 168 c 0,41,42
 31 178 31 178 35 188.5 c 128,-1,43
 39 199 39 199 41 209 c 0,44,45
 63 275 63 275 108 302.5 c 128,-1,46
 153 330 153 330 213 322 c 0,47,48
 233 317 233 317 249.5 310.5 c 128,-1,49
 266 304 266 304 281.5 296.5 c 128,-1,50
 297 289 297 289 313 281.5 c 128,-1,51
 329 274 329 274 348 268 c 0,52,53
 352 266 352 266 363 262.5 c 128,-1,54
 374 259 374 259 385 255.5 c 128,-1,55
 396 252 396 252 405 247.5 c 128,-1,56
 414 243 414 243 414 238 c 0,0,1
EndSplineSet
EndChar

StartChar: uni06E2
Encoding: 297 1762 120
Width: 170
GlyphClass: 4
Flags: W
AnchorPoint: "Anchor-97" 250 460 mark 0
AnchorPoint: "Anchor-90" 250 460 mark 0
AnchorPoint: "Anchor-86" 250 460 mark 0
AnchorPoint: "Anchor-78" 250 460 mark 0
AnchorPoint: "Anchor-73" 250 460 mark 0
AnchorPoint: "Anchor-68" 250 460 mark 0
AnchorPoint: "Anchor-60" 250 460 mark 0
AnchorPoint: "Anchor-52" 250 460 mark 0
AnchorPoint: "Anchor-45" 250 460 mark 0
AnchorPoint: "Anchor-37" 250 460 mark 0
AnchorPoint: "Anchor-29" 250 460 mark 0
AnchorPoint: "Anchor-22" 250 460 mark 0
AnchorPoint: "Anchor-17" 250 460 mark 0
AnchorPoint: "Anchor-8" 250 460 mark 0
AnchorPoint: "Anchor-4" 0 0 mark 0
LayerCount: 2
Fore
SplineSet
215 758 m 0,0,1
 234 756 234 756 257.5 741.5 c 128,-1,2
 281 727 281 727 303.5 707.5 c 128,-1,3
 326 688 326 688 344 667.5 c 128,-1,4
 362 647 362 647 369 633 c 1,5,6
 367 612 367 612 358.5 589.5 c 128,-1,7
 350 567 350 567 342 549 c 1,8,9
 328 547 328 547 302 546.5 c 128,-1,10
 276 546 276 546 244.5 544.5 c 128,-1,11
 213 543 213 543 180 538.5 c 128,-1,12
 147 534 147 534 120 524.5 c 128,-1,13
 93 515 93 515 76 498.5 c 128,-1,14
 59 482 59 482 59 455 c 0,15,16
 59 416 59 416 68 366 c 128,-1,17
 77 316 77 316 83.5 262 c 128,-1,18
 90 208 90 208 89 154.5 c 128,-1,19
 88 101 88 101 68 55 c 0,20,21
 66 49 66 49 59.5 49 c 128,-1,22
 53 49 53 49 53 57 c 0,23,24
 53 130 53 130 47 187.5 c 128,-1,25
 41 245 41 245 33.5 291.5 c 128,-1,26
 26 338 26 338 20 374.5 c 128,-1,27
 14 411 14 411 14 442 c 0,28,29
 16 487 16 487 36.5 523 c 128,-1,30
 57 559 57 559 91 583.5 c 128,-1,31
 125 608 125 608 168 618.5 c 128,-1,32
 211 629 211 629 258 623 c 1,33,34
 254 629 254 629 246 636.5 c 128,-1,35
 238 644 238 644 228.5 651.5 c 128,-1,36
 219 659 219 659 210 664.5 c 128,-1,37
 201 670 201 670 195 672 c 0,38,39
 166 676 166 676 143.5 658.5 c 128,-1,40
 121 641 121 641 111 618 c 0,41,42
 109 616 109 616 100.5 617 c 128,-1,43
 92 618 92 618 92 623 c 0,44,45
 93 666 93 666 125 713 c 0,46,47
 141 733 141 733 164.5 746.5 c 128,-1,48
 188 760 188 760 215 758 c 0,0,1
EndSplineSet
EndChar

StartChar: uni06E4
Encoding: 298 1764 121
Width: 0
GlyphClass: 4
Flags: W
LayerCount: 2
Fore
SplineSet
166 772 m 0,0,1
 170 780 170 780 175 778 c 128,-1,2
 180 776 180 776 184 774 c 0,3,4
 219 758 219 758 256.5 746.5 c 128,-1,5
 294 735 294 735 336 735 c 0,6,7
 361 735 361 735 389 739.5 c 128,-1,8
 417 744 417 744 444.5 754 c 128,-1,9
 472 764 472 764 496 778.5 c 128,-1,10
 520 793 520 793 537 813 c 0,11,12
 543 819 543 819 549 817 c 0,13,14
 555 813 555 813 552 797.5 c 128,-1,15
 549 782 549 782 541 770 c 0,16,17
 522 743 522 743 494.5 723 c 128,-1,18
 467 703 467 703 436.5 690 c 128,-1,19
 406 677 406 677 374 670.5 c 128,-1,20
 342 664 342 664 313 664 c 0,21,22
 270 664 270 664 235.5 676 c 128,-1,23
 201 688 201 688 172 709 c 0,24,25
 164 714 164 714 162 709 c 0,26,27
 152 694 152 694 139.5 676.5 c 128,-1,28
 127 659 127 659 115 647 c 0,29,30
 111 643 111 643 106.5 643 c 128,-1,31
 102 643 102 643 100 645 c 0,32,33
 96 647 96 647 97 652 c 128,-1,34
 98 657 98 657 100 664 c 0,35,36
 104 671 104 671 111.5 685.5 c 128,-1,37
 119 700 119 700 128 716 c 128,-1,38
 137 732 137 732 147 747.5 c 128,-1,39
 157 763 157 763 166 772 c 0,0,1
EndSplineSet
EndChar

StartChar: uni06E5
Encoding: 299 1765 122
Width: 645
GlyphClass: 2
Flags: W
AnchorPoint: "Cursive-95" 500 0 entry 0
AnchorPoint: "Anchor-16" 0 0 basechar 0
AnchorPoint: "Anchor-15" 0 0 basechar 0
AnchorPoint: "Anchor-14" 800 1500 basechar 0
AnchorPoint: "Anchor-13" 800 1500 basechar 0
AnchorPoint: "Anchor-12" 0 0 basechar 0
AnchorPoint: "Anchor-11" 0 0 basechar 0
AnchorPoint: "Anchor-10" 0 0 basechar 0
AnchorPoint: "Anchor-9" 0 0 basechar 0
AnchorPoint: "Anchor-8" 300 900 basechar 0
LayerCount: 2
Fore
SplineSet
45 47 m 0,0,1
 90 42 90 42 137 47 c 0,2,3
 203 53 203 53 259 74.5 c 128,-1,4
 315 96 315 96 367 141 c 0,5,6
 383 156 383 156 402 176 c 128,-1,7
 421 196 421 196 439.5 219 c 128,-1,8
 458 242 458 242 472.5 265 c 128,-1,9
 487 288 487 288 494 309 c 0,10,11
 502 342 502 342 489 360 c 1,12,13
 481 336 481 336 460.5 317.5 c 128,-1,14
 440 299 440 299 408 299 c 0,15,16
 391 299 391 299 370.5 306 c 128,-1,17
 350 313 350 313 340 328 c 0,18,19
 328 342 328 342 322.5 363.5 c 128,-1,20
 317 385 317 385 319 401 c 0,21,22
 328 440 328 440 339 470 c 128,-1,23
 350 500 350 500 375 530 c 0,24,25
 385 545 385 545 401.5 551 c 128,-1,26
 418 557 418 557 430 557 c 0,27,28
 445 557 445 557 459.5 548 c 128,-1,29
 474 539 474 539 486 525.5 c 128,-1,30
 498 512 498 512 507.5 496 c 128,-1,31
 517 480 517 480 522 467 c 0,32,33
 541 417 541 417 540 363.5 c 128,-1,34
 539 310 539 310 522.5 258 c 128,-1,35
 506 206 506 206 477 157.5 c 128,-1,36
 448 109 448 109 412 70 c 0,37,38
 373 29 373 29 319.5 12.5 c 128,-1,39
 266 -4 266 -4 207 -6 c 0,40,41
 159 -8 159 -8 114.5 -1 c 128,-1,42
 70 6 70 6 27 16 c 0,43,44
 19 20 19 20 19.5 25 c 128,-1,45
 20 30 20 30 24.5 35 c 128,-1,46
 29 40 29 40 35.5 43.5 c 128,-1,47
 42 47 42 47 45 47 c 0,0,1
375 412 m 0,48,49
 381 401 381 401 396.5 398 c 128,-1,50
 412 395 412 395 426 395 c 0,51,52
 442 397 442 397 454.5 403.5 c 128,-1,53
 467 410 467 410 469 416 c 0,54,55
 469 420 469 420 464 428 c 128,-1,56
 459 436 459 436 451 444.5 c 128,-1,57
 443 453 443 453 431.5 459 c 128,-1,58
 420 465 420 465 408 465 c 0,59,60
 395 464 395 464 383 444 c 256,61,62
 371 424 371 424 375 412 c 0,48,49
EndSplineSet
EndChar

StartChar: uni06E6
Encoding: 300 1766 123
Width: 707
GlyphClass: 2
Flags: W
AnchorPoint: "Cursive-95" 475 0 entry 0
AnchorPoint: "Anchor-16" 0 0 basechar 0
AnchorPoint: "Anchor-15" 0 0 basechar 0
AnchorPoint: "Anchor-14" 950 1250 basechar 0
AnchorPoint: "Anchor-13" 900 1400 basechar 0
AnchorPoint: "Anchor-12" 0 0 basechar 0
AnchorPoint: "Anchor-11" 0 0 basechar 0
AnchorPoint: "Anchor-10" 0 0 basechar 0
AnchorPoint: "Anchor-9" 0 0 basechar 0
AnchorPoint: "Anchor-8" 275 600 basechar 0
LayerCount: 2
Fore
SplineSet
369 262 m 1,0,1
 369 276 369 276 368 291.5 c 128,-1,2
 367 307 367 307 360 328 c 0,3,4
 353 341 353 341 344.5 345 c 128,-1,5
 336 349 336 349 327 346.5 c 128,-1,6
 318 344 318 344 308 336.5 c 128,-1,7
 298 329 298 329 289 319 c 0,8,9
 268 293 268 293 252 271.5 c 128,-1,10
 236 250 236 250 209 227 c 0,11,12
 199 218 199 218 174.5 210 c 128,-1,13
 150 202 150 202 124.5 194.5 c 128,-1,14
 99 187 99 187 79.5 179 c 128,-1,15
 60 171 60 171 61 164 c 0,16,17
 61 150 61 150 77.5 144.5 c 128,-1,18
 94 139 94 139 123 131 c 0,19,20
 144 128 144 128 172 126.5 c 128,-1,21
 200 125 200 125 230.5 124 c 128,-1,22
 261 123 261 123 291.5 123.5 c 128,-1,23
 322 124 322 124 348 124 c 128,-1,24
 374 124 374 124 394 124.5 c 128,-1,25
 414 125 414 125 422 125 c 0,26,27
 458 125 458 125 487.5 126 c 128,-1,28
 517 127 517 127 546 128 c 128,-1,29
 575 129 575 129 605 130 c 128,-1,30
 635 131 635 131 672 131 c 0,31,32
 678 131 678 131 680 130 c 128,-1,33
 682 129 682 129 680 123 c 0,34,35
 677 120 677 120 671.5 112.5 c 128,-1,36
 666 105 666 105 659 97.5 c 128,-1,37
 652 90 652 90 644 84 c 128,-1,38
 636 78 636 78 629 78 c 0,39,40
 580 67 580 67 515.5 59.5 c 128,-1,41
 451 52 451 52 383 47.5 c 128,-1,42
 315 43 315 43 250 42.5 c 128,-1,43
 185 42 185 42 135 45 c 0,44,45
 116 47 116 47 96 50.5 c 128,-1,46
 76 54 76 54 60 62.5 c 128,-1,47
 44 71 44 71 33.5 86 c 128,-1,48
 23 101 23 101 23 127 c 0,49,50
 23 133 23 133 27 147.5 c 128,-1,51
 31 162 31 162 37.5 178 c 128,-1,52
 44 194 44 194 51.5 208.5 c 128,-1,53
 59 223 59 223 66 229 c 0,54,55
 79 242 79 242 100 251 c 128,-1,56
 121 260 121 260 143.5 268 c 128,-1,57
 166 276 166 276 187.5 283.5 c 128,-1,58
 209 291 209 291 223 301 c 0,59,60
 241 316 241 316 257 337.5 c 128,-1,61
 273 359 273 359 288.5 378 c 128,-1,62
 304 397 304 397 319.5 410.5 c 128,-1,63
 335 424 335 424 352 424 c 0,64,65
 362 424 362 424 370 418.5 c 128,-1,66
 378 413 378 413 384 404.5 c 128,-1,67
 390 396 390 396 393.5 386.5 c 128,-1,68
 397 377 397 377 397 369 c 0,69,70
 399 344 399 344 398 314.5 c 128,-1,71
 397 285 397 285 385 262 c 0,72,73
 381 254 381 254 377 252 c 128,-1,74
 373 250 373 250 369 262 c 1,0,1
EndSplineSet
EndChar

StartChar: uni06E7
Encoding: 301 1767 124
Width: 688
GlyphClass: 2
Flags: W
AnchorPoint: "Anchor-16" 0 0 basechar 0
AnchorPoint: "Anchor-15" 0 0 basechar 0
AnchorPoint: "Anchor-14" 0 0 basechar 0
AnchorPoint: "Anchor-13" 0 0 basechar 0
AnchorPoint: "Anchor-12" 250 -525 basechar 0
AnchorPoint: "Anchor-11" 325 400 basechar 0
AnchorPoint: "Anchor-10" 0 0 basechar 0
AnchorPoint: "Anchor-9" 0 0 basechar 0
AnchorPoint: "Anchor-8" 325 600 basechar 0
LayerCount: 2
Fore
SplineSet
3 157 m 2,0,-1
 294 157 l 1,1,-1
 395 400 l 2,2,3
 407 429 407 429 442 418 c 0,4,5
 458 412 458 412 465.5 400 c 128,-1,6
 473 388 473 388 468 376 c 2,7,-1
 377 157 l 1,8,-1
 691 157 l 2,9,10
 718 157 718 157 733.5 152.5 c 128,-1,11
 749 148 749 148 750 124 c 2,12,-1
 750 35 l 2,13,14
 750 18 750 18 737.5 9 c 128,-1,15
 725 0 725 0 691 0 c 2,16,-1
 -1 0 l 2,17,18
 -26 0 -26 0 -42 5.5 c 128,-1,19
 -58 11 -58 11 -58 37 c 2,20,-1
 -58 132 l 2,21,22
 -58 141 -58 141 -56 146 c 128,-1,23
 -54 151 -54 151 -47.5 153.5 c 128,-1,24
 -41 156 -41 156 -29 156.5 c 128,-1,25
 -17 157 -17 157 3 157 c 2,0,-1
357 -363 m 2,26,27
 355 -368 355 -368 350.5 -367.5 c 128,-1,28
 346 -367 346 -367 343 -364 c 2,29,-1
 246 -290 l 1,30,-1
 185 -374 l 2,31,32
 180 -385 180 -385 172 -377 c 2,33,-1
 71 -299 l 2,34,35
 68 -297 68 -297 67 -296 c 128,-1,36
 66 -295 66 -295 69 -290 c 2,37,-1
 133 -199 l 2,38,39
 137 -190 137 -190 145 -195 c 2,40,-1
 241 -268 l 1,41,-1
 307 -185 l 2,42,43
 311 -178 311 -178 316 -182 c 2,44,-1
 418 -267 l 2,45,46
 423 -272 423 -272 418 -278 c 2,47,-1
 357 -363 l 2,26,27
EndSplineSet
Substitution2: "'medi' Medial Forms in Arabic lookup 1 subtable" uni06E7
EndChar

StartChar: uni06E8
Encoding: 302 1768 125
Width: 426
GlyphClass: 2
Flags: W
LayerCount: 2
Fore
SplineSet
2 157 m 2,0,-1
 123 157 l 1,1,-1
 224 400 l 2,2,3
 236 429 236 429 271 418 c 0,4,5
 287 412 287 412 294.5 400 c 128,-1,6
 302 388 302 388 297 376 c 2,7,-1
 206 157 l 1,8,-1
 430 157 l 2,9,10
 457 157 457 157 472.5 152.5 c 128,-1,11
 488 148 488 148 489 124 c 2,12,-1
 489 35 l 2,13,14
 489 18 489 18 476.5 9 c 128,-1,15
 464 0 464 0 430 0 c 2,16,-1
 -2 0 l 2,17,18
 -27 0 -27 0 -43 5.5 c 128,-1,19
 -59 11 -59 11 -59 37 c 2,20,-1
 -59 132 l 2,21,22
 -59 141 -59 141 -57 146 c 128,-1,23
 -55 151 -55 151 -48.5 153.5 c 128,-1,24
 -42 156 -42 156 -30 156.5 c 128,-1,25
 -18 157 -18 157 2 157 c 2,0,-1
218 827 m 2,26,-1
 325 737 l 2,27,28
 330 733 330 733 330 730.5 c 128,-1,29
 330 728 330 728 326 723 c 2,30,-1
 246 624 l 2,31,32
 240 616 240 616 230 623 c 2,33,-1
 123 712 l 2,34,35
 115 718 115 718 123 727 c 2,36,-1
 203 825 l 2,37,38
 209 833 209 833 218 827 c 2,26,-1
EndSplineSet
EndChar

StartChar: uni06E9
Encoding: 303 1769 126
Width: 923
GlyphClass: 2
Flags: W
LayerCount: 2
Fore
SplineSet
265 245 m 2,0,1
 265 192 265 192 257 148 c 128,-1,2
 249 104 249 104 231 68 c 1,3,-1
 642 68 l 1,4,5
 624 104 624 104 616 148 c 128,-1,6
 608 192 608 192 608 245 c 2,7,-1
 608 707 l 1,8,9
 635 707 635 707 662.5 710 c 128,-1,10
 690 713 690 713 714 723 c 128,-1,11
 738 733 738 733 757 752 c 128,-1,12
 776 771 776 771 786 802 c 0,13,14
 798 840 798 840 787.5 871 c 128,-1,15
 777 902 777 902 753.5 927.5 c 128,-1,16
 730 953 730 953 699.5 973.5 c 128,-1,17
 669 994 669 994 642 1011 c 0,18,19
 606 1033 606 1033 581 1050 c 128,-1,20
 556 1067 556 1067 534.5 1085 c 128,-1,21
 513 1103 513 1103 490.5 1126 c 128,-1,22
 468 1149 468 1149 437 1185 c 1,23,24
 405 1149 405 1149 382.5 1126 c 128,-1,25
 360 1103 360 1103 338.5 1085 c 128,-1,26
 317 1067 317 1067 291.5 1050 c 128,-1,27
 266 1033 266 1033 230 1011 c 0,28,29
 203 994 203 994 172.5 973.5 c 128,-1,30
 142 953 142 953 119 927.5 c 128,-1,31
 96 902 96 902 85.5 871 c 128,-1,32
 75 840 75 840 87 802 c 0,33,34
 97 771 97 771 116 752 c 128,-1,35
 135 733 135 733 159 723 c 128,-1,36
 183 713 183 713 210.5 710 c 128,-1,37
 238 707 238 707 265 707 c 1,38,-1
 265 245 l 2,0,1
48 0 m 1,39,40
 70 24 70 24 96.5 47.5 c 128,-1,41
 123 71 123 71 145.5 98.5 c 128,-1,42
 168 126 168 126 183 161.5 c 128,-1,43
 198 197 198 197 198 245 c 2,44,-1
 198 642 l 1,45,46
 135 651 135 651 87 687.5 c 128,-1,47
 39 724 39 724 21 780 c 0,48,49
 4 833 4 833 15 875.5 c 128,-1,50
 26 918 26 918 53 953.5 c 128,-1,51
 80 989 80 989 118 1017.5 c 128,-1,52
 156 1046 156 1046 195 1070 c 0,53,54
 244 1100 244 1100 274 1121.5 c 128,-1,55
 304 1143 304 1143 328 1166 c 128,-1,56
 352 1189 352 1189 376 1217.5 c 128,-1,57
 400 1246 400 1246 437 1289 c 1,58,59
 474 1246 474 1246 498.5 1217.5 c 128,-1,60
 523 1189 523 1189 547 1166 c 128,-1,61
 571 1143 571 1143 600.5 1121.5 c 128,-1,62
 630 1100 630 1100 678 1070 c 0,63,64
 717 1046 717 1046 755 1017.5 c 128,-1,65
 793 989 793 989 820 953.5 c 128,-1,66
 847 918 847 918 857.5 875 c 128,-1,67
 868 832 868 832 852 780 c 0,68,69
 833 724 833 724 785.5 687.5 c 128,-1,70
 738 651 738 651 675 642 c 1,71,-1
 675 245 l 2,72,73
 675 195 675 195 691 158.5 c 128,-1,74
 707 122 707 122 730 93.5 c 128,-1,75
 753 65 753 65 779 43 c 128,-1,76
 805 21 805 21 825 0 c 1,77,-1
 48 0 l 1,39,40
334 776 m 1,78,-1
 232 776 l 2,79,80
 198 777 198 777 178 791 c 128,-1,81
 158 805 158 805 152 822 c 0,82,83
 145 844 145 844 156 864 c 128,-1,84
 167 884 167 884 186.5 900.5 c 128,-1,85
 206 917 206 917 228.5 930 c 128,-1,86
 251 943 251 943 266 952 c 0,87,88
 296 971 296 971 317 985 c 128,-1,89
 338 999 338 999 356 1013.5 c 128,-1,90
 374 1028 374 1028 392.5 1045 c 128,-1,91
 411 1062 411 1062 437 1087 c 1,92,93
 464 1062 464 1062 482.5 1045 c 128,-1,94
 501 1028 501 1028 519 1013.5 c 128,-1,95
 537 999 537 999 557 985 c 128,-1,96
 577 971 577 971 607 952 c 0,97,98
 623 943 623 943 645.5 930 c 128,-1,99
 668 917 668 917 687 900.5 c 128,-1,100
 706 884 706 884 717 864 c 128,-1,101
 728 844 728 844 721 822 c 0,102,103
 716 805 716 805 695.5 791 c 128,-1,104
 675 777 675 777 641 776 c 2,105,-1
 539 776 l 1,106,-1
 539 245 l 2,107,108
 539 216 539 216 541.5 189 c 128,-1,109
 544 162 544 162 550 137 c 1,110,-1
 325 137 l 1,111,112
 334 186 334 186 334 245 c 2,113,-1
 334 776 l 1,78,-1
EndSplineSet
EndChar

StartChar: zeronojoin
Encoding: 304 8204 127
Width: 68
GlyphClass: 2
Flags: W
LayerCount: 2
Fore
SplineSet
63 0 m 1,0,-1
 0 0 l 1,1,-1
 0 1628 l 1,2,-1
 63 1626 l 1,3,-1
 63 0 l 1,0,-1
EndSplineSet
EndChar

StartChar: zerojoin
Encoding: 305 8205 128
Width: 63
GlyphClass: 2
Flags: W
LayerCount: 2
Fore
SplineSet
180 1495 m 1,0,-1
 150 1466 l 1,1,-1
 66 1550 l 1,2,-1
 66 0 l 1,3,-1
 0 0 l 1,4,-1
 0 1550 l 1,5,-1
 -84 1466 l 1,6,-1
 -115 1495 l 1,7,-1
 -6 1604 l 1,8,-1
 -115 1710 l 1,9,-1
 -84 1741 l 1,10,-1
 33 1632 l 1,11,-1
 150 1741 l 1,12,-1
 180 1710 l 1,13,-1
 74 1604 l 1,14,-1
 180 1495 l 1,0,-1
EndSplineSet
EndChar

StartChar: lefttoright
Encoding: 306 8206 129
Width: 63
GlyphClass: 2
Flags: W
LayerCount: 2
Fore
SplineSet
324 1604 m 1,0,-1
 186 1456 l 1,1,-1
 156 1487 l 1,2,-1
 242 1573 l 1,3,-1
 66 1573 l 1,4,-1
 66 0 l 1,5,-1
 0 0 l 1,6,-1
 0 1638 l 1,7,-1
 238 1638 l 1,8,-1
 156 1720 l 1,9,-1
 186 1751 l 1,10,-1
 324 1604 l 1,0,-1
EndSplineSet
EndChar

StartChar: righttoleft
Encoding: 307 8207 130
Width: 63
GlyphClass: 2
Flags: W
LayerCount: 2
Fore
SplineSet
-123 1751 m 1,0,-1
 -90 1720 l 1,1,-1
 -172 1638 l 1,2,-1
 63 1638 l 1,3,-1
 63 0 l 1,4,-1
 0 0 l 1,5,-1
 0 1573 l 1,6,-1
 -176 1573 l 1,7,-1
 -90 1487 l 1,8,-1
 -123 1456 l 1,9,-1
 -258 1604 l 1,10,-1
 -123 1751 l 1,0,-1
EndSplineSet
EndChar

StartChar: uniFBAF
Encoding: 308 64431 131
Width: 973
GlyphClass: 2
Flags: W
AnchorPoint: "Anchor-16" 0 0 basechar 0
AnchorPoint: "Anchor-15" 0 0 basechar 0
AnchorPoint: "Anchor-14" 15 1275 basechar 0
AnchorPoint: "Anchor-13" 15 1395 basechar 0
AnchorPoint: "Anchor-12" 600 -525 basechar 0
AnchorPoint: "Anchor-11" 500 700 basechar 0
AnchorPoint: "Anchor-10" 0 0 basechar 0
AnchorPoint: "Anchor-9" 0 0 basechar 0
AnchorPoint: "Anchor-8" 500 700 basechar 0
LayerCount: 2
Fore
SplineSet
1097 -247 m 0,0,1
 1109 -246 1109 -246 1114 -252.5 c 128,-1,2
 1119 -259 1119 -259 1118.5 -267 c 128,-1,3
 1118 -275 1118 -275 1112 -282.5 c 128,-1,4
 1106 -290 1106 -290 1096 -291 c 0,5,6
 1081 -294 1081 -294 1056 -309 c 128,-1,7
 1031 -324 1031 -324 1001 -342 c 128,-1,8
 971 -360 971 -360 938 -375.5 c 128,-1,9
 905 -391 905 -391 874 -395 c 0,10,11
 817 -404 817 -404 750 -410 c 128,-1,12
 683 -416 683 -416 610.5 -420 c 128,-1,13
 538 -424 538 -424 463 -425 c 128,-1,14
 388 -426 388 -426 316 -425 c 0,15,16
 185 -423 185 -423 121.5 -390 c 128,-1,17
 58 -357 58 -357 58 -300 c 0,18,19
 58 -281 58 -281 68 -249.5 c 128,-1,20
 78 -218 78 -218 93 -183 c 128,-1,21
 108 -148 108 -148 126.5 -114.5 c 128,-1,22
 145 -81 145 -81 163 -58 c 0,23,24
 191 -21 191 -21 240 5 c 128,-1,25
 289 31 289 31 344.5 52.5 c 128,-1,26
 400 74 400 74 456 94 c 128,-1,27
 512 114 512 114 553 138 c 0,28,29
 573 150 573 150 594 168 c 128,-1,30
 615 186 615 186 634.5 206 c 128,-1,31
 654 226 654 226 671 246 c 128,-1,32
 688 266 688 266 700 283 c 0,33,34
 714 303 714 303 729 306.5 c 128,-1,35
 744 310 744 310 758 290 c 0,36,37
 768 275 768 275 784.5 252.5 c 128,-1,38
 801 230 801 230 826.5 209 c 128,-1,39
 852 188 852 188 888 172.5 c 128,-1,40
 924 157 924 157 973 157 c 2,41,-1
 999 157 l 1,42,-1
 1001 5 l 1,43,44
 991 4 991 4 986.5 4 c 128,-1,45
 982 4 982 4 972 4 c 0,46,47
 918 4 918 4 878.5 16 c 128,-1,48
 839 28 839 28 810 46.5 c 128,-1,49
 781 65 781 65 761 86.5 c 128,-1,50
 741 108 741 108 726 128 c 0,51,52
 717 139 717 139 703.5 137 c 128,-1,53
 690 135 690 135 681 122 c 0,54,55
 652 83 652 83 622.5 50.5 c 128,-1,56
 593 18 593 18 558.5 -9.5 c 128,-1,57
 524 -37 524 -37 481.5 -60 c 128,-1,58
 439 -83 439 -83 383 -104 c 0,59,60
 352 -115 352 -115 313 -125.5 c 128,-1,61
 274 -136 274 -136 239.5 -148.5 c 128,-1,62
 205 -161 205 -161 180 -176.5 c 128,-1,63
 155 -192 155 -192 152 -214 c 0,64,65
 150 -228 150 -228 175.5 -243 c 128,-1,66
 201 -258 201 -258 267 -264 c 0,67,68
 348 -272 348 -272 444 -273 c 128,-1,69
 540 -274 540 -274 646 -271 c 128,-1,70
 752 -268 752 -268 866 -261.5 c 128,-1,71
 980 -255 980 -255 1097 -247 c 0,0,1
EndSplineSet
EndChar

StartChar: uniFBE8
Encoding: 309 64488 132
Width: 485
GlyphClass: 2
Flags: W
AnchorPoint: "Anchor-16" 0 0 basechar 0
AnchorPoint: "Anchor-15" 0 0 basechar 0
AnchorPoint: "Anchor-14" 0 0 basechar 0
AnchorPoint: "Anchor-13" 0 0 basechar 0
AnchorPoint: "Anchor-12" 200 -150 basechar 0
AnchorPoint: "Anchor-11" 0 0 basechar 0
AnchorPoint: "Anchor-10" 75 650 basechar 0
AnchorPoint: "Anchor-9" 90 780 basechar 0
AnchorPoint: "Anchor-8" 150 850 basechar 0
LayerCount: 2
Fore
SplineSet
238 547 m 0,0,1
 242 555 242 555 246 555 c 128,-1,2
 250 555 250 555 262 545 c 0,3,4
 289 516 289 516 312.5 483.5 c 128,-1,5
 336 451 336 451 354 415 c 128,-1,6
 372 379 372 379 382.5 341 c 128,-1,7
 393 303 393 303 393 264 c 0,8,9
 393 247 393 247 391 226 c 128,-1,10
 389 205 389 205 384.5 184 c 128,-1,11
 380 163 380 163 373.5 143 c 128,-1,12
 367 123 367 123 358 109 c 0,13,14
 335 73 335 73 292 51 c 128,-1,15
 249 29 249 29 198.5 18 c 128,-1,16
 148 7 148 7 95.5 3.5 c 128,-1,17
 43 0 43 0 0 0 c 2,18,-1
 -18 0 l 2,19,20
 -50 0 -50 0 -66 24.5 c 128,-1,21
 -82 49 -82 49 -82 79 c 128,-1,22
 -82 109 -82 109 -66 133.5 c 128,-1,23
 -50 158 -50 158 -18 158 c 2,24,-1
 0 158 l 2,25,26
 27 158 27 158 69.5 158.5 c 128,-1,27
 112 159 112 159 157.5 162 c 128,-1,28
 203 165 203 165 245 172.5 c 128,-1,29
 287 180 287 180 313 194 c 0,30,31
 332 206 332 206 328 221 c 0,32,33
 311 276 311 276 278 318.5 c 128,-1,34
 245 361 245 361 203 403 c 1,35,36
 211 438 211 438 220 475 c 128,-1,37
 229 512 229 512 238 547 c 0,0,1
EndSplineSet
Substitution2: "Single Substitution lookup 48 subtable" uniFE97.zz24
Substitution2: "Single Substitution lookup 45 subtable" uniFBE8.calt
EndChar

